<?xml version="1.0" encoding="UTF-8" standalone="no"?>
<!-- Created with Inkscape (http://www.inkscape.org/) -->

<svg
   version="1.1"
   width="793.33331"
   height="980"
   viewBox="0 0 793.33331 980"
   xmlns="http://www.w3.org/2000/svg"
   xmlns:svg="http://www.w3.org/2000/svg">

   <defs>
      <linearGradient id="PastelGradient" x1="0%" x2="0%" y1="0%" y2="100%">
         <stop offset="0%" stop-color="#c398f0" />
         <stop offset="25%" stop-color="#469efa" />
         <stop offset="50%" stop-color="#00bbfc" />
         <stop offset="75%" stop-color="#00d8e8" />
         <stop offset="100%" stop-color="#29e4d9" />
      </linearGradient>
   </defs>
      <path
         fill="url(#PastelGradient)"
         d="m 500.67205,972.00597 c -2.87766,-3.17979 -2.7315,-3.93244 4.79131,-24.67264 10.03157,-27.65676 0.30918,-69.48208 -23.40021,-100.66666 -3.06651,-4.03334 -13.44263,-17.60133 -23.05804,-30.1511 -21.378,-27.90196 -21.93021,-29.52031 -13.08944,-38.36108 7.1836,-7.1836 7.82381,-7.26471 20.85188,-2.64207 14.57956,5.17315 47.91947,6.34058 55.05925,1.92795 4.5068,-2.78535 4.8921,-2.81517 8.9907,-0.6957 4.82849,2.49691 10.29751,1.48292 18.18249,-3.37116 13.6163,-8.38235 -9.22806,-62.57181 -28.65208,-67.96604 -6.44134,-1.78882 -18.45106,-1.77938 -34.65298,0.0272 -21.61571,2.4103 -29.6887,6.89553 -44.96705,24.98299 l -8.23663,9.75103 3.42104,6.90693 c 6.4756,13.07398 5.42343,35.3927 -2.19595,46.58077 -12.9886,19.07207 -56.69918,25.06426 -75.41923,10.33907 l -3.25753,-2.56237 -5.88661,5.61677 c -14.84942,14.16872 -35.36422,18.3282 -69.81964,14.15627 -21.782,-2.63741 -34.31658,-7.03873 -41.76857,-14.66638 -8.54142,-8.74278 -22.82856,-32.99318 -22.9245,-38.91114 -0.0145,-0.89576 -4.13477,-3.55804 -9.1561,-5.91618 C 178.2091,748.90343 157.55877,727.82364 131.31417,686 c -0.92034,-1.46667 -3.00952,-4.16667 -4.64262,-6 -12.71079,-14.26923 -17.21342,-21.88544 -18.28439,-30.92807 -0.6362,-5.37173 -1.15746,-6.3698 -2.9143,-5.58008 -10.770311,4.84138 -17.72542,0.70492 -18.801228,-11.18179 l -0.671634,-7.42095 -3.104428,6.24392 c -5.195567,10.44981 -9.081648,14.2033 -14.680763,14.17989 -11.460962,-0.0479 -13.221232,-10.11343 -6.091822,-34.83395 0.43362,-1.50353 -0.582186,-2.61058 -3.248198,-3.53996 -5.503556,-1.91855 -9.717677,-8.16372 -16.625283,-24.63807 -3.31291,-7.90115 -9.891059,-20.84562 -14.61811,-28.76549 C 17.924587,537.2723 15.581753,531.10126 12.621771,514 11.479406,507.4 9.0721769,496.3271 7.2723721,489.39356 3.6267456,475.34921 2.9567949,456.05393 5.3490542,434 c 0.7159227,-6.6 2.1934656,-21.3 3.2834286,-32.66667 3.1755812,-33.1165 6.1758032,-47.49599 13.9724182,-66.96712 2.233971,-5.57907 4.061765,-11.97841 4.061765,-14.22075 0,-4.35561 6.442927,-9.26516 9.599075,-7.31456 0.961924,0.59451 1.228862,0.24706 0.726415,-0.94551 C 16.448278,263.12416 15.598124,245.88023 30.654329,183.33333 33.478762,171.6 36.612606,158.4 37.618427,154 c 2.463152,-10.77515 4.951967,-12.0144 20.03333,-9.97517 29.175559,3.94498 44.799583,9.58155 59.475913,21.45672 9.79002,7.92148 9.20054,7.91075 10.17192,0.18512 3.72021,-29.58765 8.75709,-37.19854 39.90465,-60.29714 31.32485,-23.230077 48.20682,-35.855084 55.0618,-41.1774 12.24492,-9.507145 30.02108,-18.176255 63.06729,-30.756769 6.23333,-2.372997 15.23333,-5.844997 20,-7.715557 46.46513,-18.2340883 70.66123,-22.2515969 128.55343,-21.3449532 46.7892,0.7327607 57.98459,2.1899457 92.11323,11.9893992 39.84262,11.440127 75.03739,41.019336 108.23942,90.96908 27.32943,41.11491 34.48612,63.26207 28.98823,89.70715 l -0.63212,3.04048 6.98834,-3.54125 c 10.18609,-5.16169 21.9493,-9.37919 32.49082,-11.64906 19.37945,-4.17289 41.57505,-10.58669 49.59553,-14.33147 10.38911,-4.8507 16.07212,-5.00611 20.85836,-0.57037 1.97156,1.82718 5.02759,3.68429 6.79118,4.12693 5.78529,1.45201 10.35464,14.53466 6.01356,17.21759 -1.96929,1.2171 -1.622,19.70319 0.79931,42.54666 3.53727,33.37178 1.40629,48.58859 -11.34911,81.04143 C 765.28125,339.09748 752.17229,356 742.92451,356 c -2.55946,0 -3.00168,0.47278 -2.18251,2.33333 15.45357,35.09937 30.78977,112.08474 24.62355,123.60644 -4.04043,7.54962 -12.50956,4.93425 -17.8128,-5.50082 l -3.14369,-6.18575 -0.97305,22.54006 c -1.40166,32.46847 -2.31764,39.42169 -5.62951,42.73355 -2.31069,2.31069 -2.67236,3.93131 -2.13211,9.5538 1.81662,18.90588 -7.05415,30.2421 -15.38115,19.65604 l -2.56695,-3.26335 -1.57755,20.26335 c -2.77958,35.70302 -2.71572,35.32471 -6.46028,38.27018 -4.41693,3.47436 -6.44801,3.35485 -10.41575,-0.61289 l -3.27273,-3.27273 v 19.27273 c 0,20.25982 -1.29531,24.60606 -7.33333,24.60606 -1.1,0 -2,0.94029 -2,2.08954 0,2.48076 -7.62017,9.9292 -16,15.63942 -7.72348,5.26296 -16.92836,12.53591 -22,17.3826 -4.04063,3.86141 -20.96308,16.13303 -39.33333,28.52329 -5.5,3.7096 -13,9.83498 -16.66667,13.61195 -3.66667,3.77697 -10.23294,9.58427 -14.59171,12.90513 l -7.92505,6.03791 -0.0789,8.96968 c -0.0555,6.31676 -0.79505,10.06273 -2.50033,12.66531 -3.20915,4.89779 -2.12472,6.52684 16.98994,25.52272 30.78223,30.59095 41.35214,37.85345 73.43934,50.45956 23.80613,9.35273 29.53438,10.7608 39.52746,9.71632 5.20976,-0.54453 9.02994,-0.28133 10.91117,0.75175 1.59209,0.8743 4.20674,1.43209 5.81034,1.23953 3.65675,-0.4391 8.42191,4.18278 8.40467,8.15196 -0.0441,10.15174 -8.28908,19.78307 -24.65364,28.79893 -26.02035,14.33559 -30.74466,15.41077 -63.33333,14.41376 -26.76188,-0.81875 -28.93694,-1.2517 -52.1948,-10.38962 -20.76572,-8.15876 -18.31997,-9.04616 -30.37937,11.0226 -5.44913,9.06821 -12.99931,21.28766 -16.77819,27.15433 -3.77887,5.86666 -7.72049,12.46666 -8.75916,14.66666 -1.20228,2.54656 -3.41255,4.44935 -6.08287,5.23664 -2.76617,0.81555 -4.80921,2.63158 -6,5.33333 -2.34815,5.32766 -9.84755,6.47031 -13.80021,2.10267 z m 35.6704,-61.61914 c 20.45717,-33.89296 23.01463,-42.31181 18.40933,-60.60113 -2.056,-8.16513 -18.90736,-38.73891 -25.44595,-46.16715 l -5.25331,-5.96807 -25.69293,-0.66976 c -14.13112,-0.36837 -27.64294,-1.29784 -30.02627,-2.0655 -5.77627,-1.8605 -6.26505,-2.76282 10,18.46063 24.42526,31.8713 25.76786,33.74655 29.76494,41.57389 9.03914,17.70099 18.56839,47.52869 18.56839,58.12126 0,12.18427 0.84257,11.95053 9.6758,-2.68417 z m 144.32239,-18.41725 c 17.43047,-8.974 19.16704,-10.63625 11.11187,-10.63625 -17.92788,0 -63.26809,-18.89662 -86.2811,-35.95973 -10.44717,-7.7461 -48.56134,-44.3442 -52.48837,-50.40053 -1.50999,-2.32874 -2.61994,-2.7838 -4.81204,-1.97289 -2.80009,1.03582 -2.77181,1.16916 1.6361,7.71453 20.27882,30.11232 28.72405,59.76379 22.7941,80.03074 -0.92854,3.17348 -0.42416,3.4541 20.70792,11.52117 17.69822,6.75622 23.54527,7.59104 50.90676,7.26825 l 22.2401,-0.26237 z M 328.94979,800.28633 c 10.54196,-5.43957 11.26858,-6.96134 11.85621,-24.83066 0.26749,-8.13395 0.82536,-18.239 1.23971,-22.45567 0.61996,-6.3091 0.39356,-7.66667 -1.27861,-7.66667 -1.11758,0 -6.31389,-3.68533 -11.54734,-8.18963 -28.66728,-24.67317 -68.26991,-32.8133 -92.10643,-18.93202 -17.35112,10.10448 -6.56962,63.707 15.80671,78.58646 13.57673,9.02804 61.07054,11.20702 76.02975,3.48819 z m 78.08774,-8.29017 c 11.66477,-4.36435 14.85633,-8.76124 15.4234,-21.2482 0.69929,-15.39884 -3.3429,-20.32476 -10.46094,-12.74796 -5.63304,5.9961 -10.19836,4.33423 -17.84376,-6.49551 -16.05901,-22.74765 -36.65713,-12.30704 -35.28446,17.88469 0.99056,21.78722 22.88758,32.06476 48.16576,22.60698 z M 210.92772,733.57161 c 0.42055,-7.2647 1.55699,-12.39763 3.74601,-16.91954 1.72827,-3.57014 2.55243,-6.68779 1.83146,-6.92812 -19.80793,-6.60264 -62.97676,-50.2515 -75.90258,-76.74658 -5.60947,-11.49819 -6.32954,-11.99553 -9.23443,-6.37809 -7.91031,15.29684 -7.06341,23.82576 3.6241,36.49764 4.43914,5.26336 11.34786,14.66975 15.35272,20.90308 14.07388,21.90519 17.07399,25.7284 29.67136,37.81193 12.16022,11.66419 25.63771,22.01753 28.81232,22.13346 0.9329,0.0341 1.72242,-3.86789 2.09904,-10.37378 z m 368.4056,-7.847 c 5.13333,-5.05681 14.73333,-12.74881 21.33333,-17.09333 27.57223,-18.14968 44.66667,-31.96774 44.66667,-36.1057 0,-3.05696 2.70272,-7.50349 6.26313,-10.30411 6.34031,-4.98729 11.04399,-15.43232 11.05769,-24.5548 0.016,-10.68243 0.73187,-11.05316 -17.98749,9.31568 -26.80536,29.16734 -61.44314,55.8088 -78.25168,60.18687 -13.84191,3.60536 -13.7663,3.48176 -8.48237,13.86729 2.50823,4.92992 5.19382,10.63764 5.96797,12.68381 1.80509,4.77108 3.21354,4.04136 15.43275,-7.99571 z m -217.91236,-0.18588 c 7.8459,-3.7016 17.3246,-3.70318 28.59069,-0.005 8.47049,2.78067 8.78886,2.79269 10.53987,0.39803 2.25706,-3.08671 9.36056,-3.08015 15.3443,0.0142 4.48833,2.32101 8.10417,1.14717 8.10417,-2.63091 0,-3.7953 23.20292,-23.7299 32.66666,-28.06532 23.28284,-10.66604 71.58865,-9.68012 83.59811,1.70623 l 3.59811,3.41142 3.40031,-4.04103 c 2.67906,-3.18389 5.08661,-4.33807 11.35049,-5.44143 17.97655,-3.16651 86.31661,-62.37565 98.99993,-85.77256 3.32151,-6.12717 3.55867,-6.25037 13.28576,-6.90161 10.52982,-0.70499 11.19734,-1.02782 12.16882,-5.88523 1.15751,-5.78755 5.83892,-10.79156 11.002,-11.76016 5.25375,-0.98561 5.36674,-1.27784 6.6628,-17.2322 2.12163,-26.11715 5.24604,-36.22877 12.24232,-39.6202 3.50626,-1.69965 3.66974,-2.18858 3.26049,-9.75125 -0.56787,-10.49383 1.14797,-14.80156 6.3509,-15.94432 l 4.07996,-0.89611 0.0237,-10.89406 c 0.0692,-31.81535 3.03081,-40.89406 13.34038,-40.89406 6.10763,0 6.63593,-0.25364 6.63593,-3.18604 0,-4.52246 -3.82167,-24.24661 -6.22873,-32.14729 -10.50265,-34.47284 -13.13213,-40.66667 -17.26434,-40.66667 -4.8497,0 -6.05671,-12.33682 -1.74349,-17.82019 2.0151,-2.56178 3.98826,-3.51314 7.28642,-3.51314 3.14748,0 4.95389,-0.80515 5.9399,-2.64754 0.77931,-1.45615 4.48248,-5.50615 8.22926,-9 7.31681,-6.82288 12.57816,-16.45825 19.8501,-36.35246 8.20658,-22.45114 8.78552,-35.64896 3.33013,-75.91523 -1.13626,-8.3867 -2.06592,-19.0367 -2.06592,-23.66666 0,-9.2726 0.0536,-9.20324 -5.06621,-6.55756 -3.71211,1.91825 -36.42619,11.97093 -52.93379,16.26597 -10.17493,2.64738 -37.5555,16.08548 -51.33333,25.19387 -9.05115,5.98363 -40,36.36303 -40,39.26401 0,3.72349 -5.54112,9.33375 -10.05514,10.18058 -9.27199,1.73944 -12.61847,-0.0494 -33.81996,-18.07867 -29.20121,-24.832 -42.80549,-31.5431 -81.45823,-40.18401 -18,-4.02395 -87.67091,-5.11172 -124.75978,-1.94789 -13.88212,1.1842 -29.74022,2.4872 -35.24022,2.89555 -41.56393,3.08593 -103.39146,19.87755 -115.40058,31.34143 -4.98072,4.75459 -17.59937,8.44296 -22.50462,6.57798 -4.51103,-1.71509 -6.70032,-5.60855 -9.97415,-17.73813 -5.29359,-19.61279 -29.2318,-44.53102 -46.31572,-48.21186 -2.30729,-0.49713 -5.30729,-2.14768 -6.66666,-3.6679 -1.35938,-1.52022 -4.87159,-4.27438 -7.80493,-6.12035 -2.93333,-1.84598 -8.73068,-6.28191 -12.883,-9.85763 -9.286914,-7.99731 -21.050919,-13.42885 -35.250038,-16.27524 -16.928075,-3.39343 -18.843715,-3.12741 -20.415919,2.83507 -13.662908,51.81573 -18.064642,86.32103 -12.878572,100.95543 1.04819,2.95785 3.731404,11.37791 5.962699,18.71124 3.919269,12.881 15.484148,32.86149 29.798168,51.48192 2.016667,2.62338 3.666667,5.401 3.666667,6.17248 0,2.29742 9.212188,9.67893 12.079395,9.67893 6.336298,0 6.281295,13.75944 -0.08262,20.66667 -3.243715,3.52065 -14.745673,37.33199 -13.112818,38.54665 0.247154,0.18385 2.541758,0.90634 5.099121,1.60553 12.283988,3.35848 10.547731,16.40239 -7.966264,59.84782 -5.000085,11.73333 -9.515493,22.76431 -10.034239,24.51328 l -0.943175,3.17995 4.606152,-3.51328 c 4.451998,-3.3957 10.764318,-4.5342 13.821504,-2.49287 6.964692,4.65045 6.198056,18.36217 -2.701221,48.31292 -3.832917,12.89978 -4.073049,14.50721 -1.832507,12.26667 2.561523,-2.56153 9.271622,-1.87229 12.647398,1.29908 4.067344,3.82107 4.127839,13.01005 0.166623,25.30923 -3.231957,10.0349 -3.005324,11.1241 1.924632,9.24973 10.017814,-3.80877 15.415884,4.78246 13.039814,20.75334 -1.87582,12.60836 -2.0347,11.90513 2.97383,13.16219 4.03844,1.01358 9.51984,-8.4089 13.05195,-22.43619 1.86651,-7.41256 6.47675,-12.04849 11.98172,-12.04849 5.55233,0 6.40712,1.10851 17.30728,22.44444 5.24507,10.26667 10.78195,20.90063 12.30418,23.63104 1.52223,2.7304 12.7326,14.82098 24.91192,26.86796 32.31212,31.96101 36.8983,33.91896 72.25911,30.8491 18.96321,-1.6463 47.76087,4.57378 60.4982,13.06715 10.14801,6.76679 12.04017,8.19248 21.15396,15.93885 8.07663,6.86482 9.41046,7.56139 11.33334,5.91861 1.19865,-1.02405 4.9188,-3.15434 8.267,-4.73398 z M 472.39053,620.03007 c -2.69998,-1.13323 -9.72388,-10.552 -9.72388,-13.03933 0,-5.06861 -21.1538,-21.09656 -34.66666,-26.26645 -5.5,-2.10425 -12.62627,-4.92805 -15.83616,-6.2751 -12.35309,-5.18407 -29.81426,4.14152 -60.74417,32.442 -11.24825,10.29202 -18.10295,13.20537 -24.15593,10.26666 -7.10014,-3.4471 -6.90805,-13.5075 0.34342,-17.98669 2.04939,-1.26591 7.02617,-5.43019 11.05951,-9.25396 29.99935,-28.44068 62.77984,-45.07627 74.92378,-38.02265 2.42525,1.40867 10.48699,4.95464 17.91497,7.87994 27.38211,10.78369 38.80177,19.53608 50.95922,39.05681 9.07625,14.57337 3.26675,26.7982 -10.0741,21.19877 z m -95.77016,-82.6321 c -1.49213,-0.60482 -3.5156,-2.06679 -4.4966,-3.24882 C 371.14277,532.96712 368.7066,532 366.71005,532 c -11.16738,0 -11.10294,-17.89724 0.0851,-23.64701 4.66536,-2.39762 15.79679,-2.05616 21.15944,0.64908 17.94713,9.05359 7.22403,35.91831 -11.33426,28.3959 z m 39.87989,0.0276 c -5.67404,-2.43564 -7.63466,-15.88535 -3.4982,-23.99745 3.2437,-6.36129 7.86836,-9.34101 15.99068,-10.30298 7.87565,-0.93276 7.57718,-0.31103 8.8613,-18.45846 1.30294,-18.41334 9.17782,-32.289 31.9378,-56.27492 6.77414,-7.13902 8.70005,-8.40165 14.03006,-9.19813 3.39795,-0.50777 8.27809,-2.22931 10.84475,-3.82564 5.55984,-3.45793 33.57388,-15.36446 36.17757,-15.37619 1.00234,-0.005 3.49019,-0.87816 5.52857,-1.94141 30.4085,-15.86166 65.8549,-6.76255 67.38697,17.29827 0.81324,12.77158 -0.12638,14.70758 -13.98328,28.81158 -28.89769,29.41299 -73.38375,33.72312 -102.42753,9.92393 -7.39909,-6.063 -7.34804,-6.07124 -14.53793,2.34462 -11.4752,13.43187 -14.62808,22.57869 -15.47844,44.90455 -0.82806,21.74011 -1.78564,24.59678 -8.90391,26.56223 -2.6803,0.74007 -6.86657,3.27755 -9.30281,5.63886 -4.75343,4.6072 -16.32243,6.59683 -22.6256,3.89114 z M 529.75067,443 c -1.90043,-2.01667 -4.59985,-6.21667 -5.99873,-9.33333 C 522.35307,430.55 520.3499,428 519.30047,428 c -3.20222,0 -16.69199,7.14565 -16.27102,8.6189 0.85328,2.98614 17.55673,9.9844 23.90687,10.01629 l 6.26967,0.0315 z m 31.58265,-2.69745 c 16.09919,-10.07703 25.36806,-23.38274 18.75432,-26.9223 -7.11705,-3.80894 -21.41111,-1.30096 -21.44359,3.7624 -0.0124,1.93821 -1.43941,8.79127 -3.17106,15.22903 l -3.14846,11.70501 2.83773,-0.84384 c 1.56075,-0.46412 4.33773,-1.78275 6.17106,-2.9303 z M 255.23,463.55606 c -16.20796,-3.36972 -42.04935,-22.604 -50.12125,-37.30627 -0.97648,-1.77859 -3.05558,-5.56239 -4.62022,-8.40846 -7.57997,-13.78791 -8.29173,-25.04543 -1.80306,-28.51806 9.17276,-4.90911 50.36939,-7.14137 72.57268,-3.93239 26.62086,3.84745 53.1748,27.66522 48.88495,43.84775 -6.65867,25.11844 -35.5905,40.41375 -64.9131,34.31743 z m 29.69162,-24.1381 c 8.52536,-3.96934 15.06047,-12.83005 12.1584,-16.4851 -8.2265,-10.36102 -17.81595,-14.65577 -19.20128,-8.59953 -2.70626,11.83092 -6.69973,22.60887 -9.36444,25.27357 l -3.05976,3.05977 6.27273,-0.013 c 3.81152,-0.008 8.98853,-1.27749 13.19435,-3.23568 z M 248.34529,433 c -0.40386,-3.11667 -2.14677,-8.89132 -3.87313,-12.83257 -1.72636,-3.94125 -3.13883,-8.89125 -3.13883,-11 v -3.8341 h -9.92131 c -11.63636,0 -12.81894,1.0936 -8.37372,7.74363 6.39978,9.57405 22.48542,25.58971 25.70154,25.58971 0.18685,0 0.009,-2.55 -0.39455,-5.66667 z m -189.141274,117.91045 1.934599,-8.42289 -3.569308,2.34739 c -1.96312,1.29106 -5.475325,2.68136 -7.8049,3.08955 l -4.235592,0.74217 4.8234,8.56991 c 5.449903,9.68304 5.120722,9.91829 8.851801,-6.32613 z M 37.776338,524.79013 C 38.671674,518.25794 44.164666,501.59112 51.219802,484 c 3.979558,-9.92254 5.153609,-15.44131 2.374366,-11.16099 -1.206602,1.85829 -6.243936,4.49432 -8.588432,4.49432 -6.2683,0 -10.119604,-11.88766 -5.843421,-18.03666 4.696451,-6.75332 18.821815,-43.15142 24.740944,-63.75222 3.615349,-12.58278 7.22454,-24.58899 8.020425,-26.68046 1.272949,-3.34512 1.003628,-4.3141 -2.238311,-8.05318 -2.026956,-2.33778 -8.185375,-11.26978 -13.685374,-19.84888 -5.5,-8.57911 -10.3,-15.59478 -10.666667,-15.59038 -4.672686,0.0561 -17.349261,48.54016 -19.337946,73.96178 -0.458938,5.86667 -1.695647,18.89075 -2.748243,28.94241 -2.465774,23.54666 -2.467501,45.33367 -0.0043,53.81559 1.050249,3.61644 3.476236,14.37534 5.391083,23.90867 5.46882,27.22728 7.432698,31.2636 9.142378,18.79013 z M 610.55042,233.02232 c 17.38279,-14.95781 16.89881,-12.63191 4.95037,-23.79044 -26.0755,-24.35164 -62.26903,-48.37622 -101.7151,-67.51655 -71.64021,-34.76182 -191.96258,-33.37614 -281.7857,3.24517 -17.49146,7.13135 -53.22167,26.80688 -65.66666,36.16062 -8.57284,6.4434 -8.22335,8.26455 3.69323,19.24494 10.37863,9.56327 19.90541,21.03482 23.86938,28.74201 1.25637,2.44277 2.99375,4.12631 3.86085,3.74121 28.30683,-12.57186 82.53654,-27.35771 110.2432,-30.05804 150.28302,-14.6468 220.72503,-4.74202 272.60384,38.33058 11.83855,9.829 11.95325,9.88666 13.88376,6.97917 1.07063,-1.61245 8.2989,-8.39785 16.06283,-15.07867 z m 34.03248,-32.64628 c 8.42286,-26.7204 -2.53519,-55.64327 -39.79768,-105.042707 -35.98327,-47.703545 -77.70049,-68.449194 -149.08209,-74.13736 -47.86006,-3.813811 -90.98323,1.413664 -131.03647,15.884501 -65.26867,23.580915 -80.67313,31.122438 -106.86088,52.31561 -5.02652,4.067846 -14.23912,10.936756 -20.47245,15.264246 -43.25723,30.0313 -49.45586,36.86612 -51.99962,57.33658 -1.76879,14.23412 -1.8233,14.1727 6.64031,7.4826 76.30468,-60.31538 214.91032,-86.407205 323.15091,-60.83156 44.65736,10.55188 108.34923,46.90318 151.58443,86.51485 16.51835,15.13395 14.89552,14.66061 17.87354,5.21324 z"
         id="path1" />
</svg>
