<?xml version="1.0" encoding="utf-8"?>
<!-- Generator: Adobe Illustrator 24.1.3, SVG Export Plug-In . SVG Version: 6.00 Build 0)  -->
<svg version="1.1" id="Layer_1" xmlns="http://www.w3.org/2000/svg" xmlns:xlink="http://www.w3.org/1999/xlink" x="0px" y="0px"
	 viewBox="0 0 912.9 912.9" style="enable-background:new 0 0 912.9 912.9;" xml:space="preserve">
<style type="text/css">
	.st0{fill:#FFFFFF;}
	.st1{fill:#0000FF;}
	.st2{display:none;}
	.st3{display:inline;}
	.st4{fill:#00FFFF;}
	.st5{fill:none;stroke:#00FFFF;stroke-width:0.75;stroke-miterlimit:10;}
	.st6{fill:none;stroke:#00FFFF;stroke-width:0.75;stroke-miterlimit:10;stroke-dasharray:6.0455,6.0455;}
	.st7{fill:none;stroke:#00FFFF;stroke-width:0.75;stroke-miterlimit:10;stroke-dasharray:5.9969,5.9969;}
	.st8{fill:none;stroke:#00FFFF;stroke-width:0.75;stroke-miterlimit:10;stroke-dasharray:5.9804,5.9804;}
	.st9{fill:none;stroke:#00FFFF;stroke-width:0.75;stroke-miterlimit:10;stroke-dasharray:5.9835,5.9835;}
	.st10{display:inline;fill:none;stroke:#00FFFF;stroke-width:0.75;stroke-miterlimit:10;stroke-dasharray:6;}
</style>
<g id="Background">
</g>
<circle class="st0" cx="456.4" cy="456.4" r="456.4"/>
<g id="Logo">
	<path class="st1" d="M347.4,361.3c-1.2,11.6-3.3,20.9-11,27.9c-5.5,5-10.6,4.6-15.3-0.9c-8.5-10.1-9.3-33.3-1.4-43.4
		c5.4-6.9,22-3.6,25.4,5.3C346.6,354.2,346.9,358.7,347.4,361.3z M329,382.2c6.6-6.1,7.3-13.3,6.9-20.8c-0.5-8.3-2.3-9.4-12.1-7.8
		C322.4,363.3,321.2,373,329,382.2z"/>
	<path class="st1" d="M580.2,386.6c-0.4,4.8-2.5,7.4-6.1,7.6c-3.6,0.3-6.4-1.9-7.6-5.9c-0.1-0.2-0.2-0.4-0.2-0.7
		c-0.6-12.5-2.6-26,0.3-38.4c1.1-4.5,3.1-6.6,6.1-6.4c3.2,0.2,5.8,3.2,5.4,7.8c-0.9,10.8,1.1,22.3,1.9,32.9
		C580.1,384.8,580.1,385.9,580.2,386.6z"/>
	<path d="M657.2,455c-5.6-67.8-9.6-112.9-14-180.7c-1.2-13.9,0-37.3-20-44.3c-18.6-6.5-36.3,8.3-46,18
		c-81.6,81.6-177.5,143.9-280.1,211.4c-3.9,2.6-9.9,2.6-10.2-7.4c-1-29.2-3.4-57.6-6.7-87.1c-2-18-3.9-51.7-7-79
		c-0.3-2.8,2-12,12-13c60-6,114.3-6.8,180-10c4.1-0.2,6-1.3,10-2c0,0,3-1,3-3c0-2-1.3-2.1-1.3-2.1c-7.3-4.1-16.7-4.2-24.5-4.7
		c-62.1-3.2-89.7,2.6-151.2,2.9c-4.9,0.2-25,1-29,1c-14,0-20.9,3.9-21,20c0,3.4,0.1,6.6,0.7,11.3c7.7,65.4,8.3,119.7,11.3,188.7
		c0.3,7,4.8,16.3,14,20c10,4,21.2-0.9,30-8c32.4-26.2,38-33,72-54c33-24,55.9-35.9,81-55c41.2-30.2,77-60,119-95
		c7-5.8,6.8-6.6,14-12c1.7-1.3,9-7.2,12-9c5-3,11.6,1,12,9c4,72,12.3,130.7,20,194c0.7,6-4,16-14,15c-7-0.7-19-1-28-2
		c-61.8-6.9-87.1-1.8-149-3c-12.7-0.2-41.9-0.7-56-1c-6,0-20.8,2-22.8,4.6c-2.7,5.1,3.4,10.5,8.1,10.6c19.2,3.6,39.4,3.2,58.9,3
		c39.4-0.2,78.9,0.7,118.5,3.8c31.8,2.6,52.7,8,84.3,6.1C670.2,500,658.2,466,657.2,455z"/>
	<path class="st1" d="M124.4,675.1v-72.7c0-5.5,3.7-9.1,9.2-9.1h20.6c31.9,0,40.3,17.9,40.3,45.4s-8.4,45.4-40.3,45.4h-20.6
		C128.1,684.2,124.4,680.7,124.4,675.1z M153.7,669.6c20.6,0,24.5-10.7,24.5-30.8c0-20.1-3.9-30.8-24.5-30.8h-10.4
		c-1.6,0-2.5,0.9-2.5,2.5v56.7c0,1.6,0.9,2.5,2.5,2.5L153.7,669.6L153.7,669.6z"/>
	<path class="st1" d="M212.1,675.1v-72.7c0-5.5,3.7-9.1,9.2-9.1h49.3c3,0,4.7,1.6,4.7,4.7v5.2c0,3-1.6,4.7-4.7,4.7h-39.7
		c-1.6,0-2.5,0.9-2.5,2.5v20.5h42c3,0,4.7,1.6,4.7,4.7v5.2c0,3-1.6,4.7-4.7,4.7h-42V667c0,1.6,0.9,2.5,2.5,2.5h39.8
		c3,0,4.7,1.6,4.7,4.7v5.2c0,3-1.6,4.7-4.7,4.7h-49.4C215.8,684.2,212.1,680.7,212.1,675.1z"/>
	<path d="M297.1,675.1v-72.7c0-5.5,3.7-9.1,9.2-9.1h27c21.4,0,28,10.5,28,22.4c0,9-3.6,17-14.3,19.6v1.4
		c13.7,2.3,18.5,10.5,18.5,22.5c0,15.9-8.7,25-33.4,25h-25.8C300.8,684.2,297.1,680.7,297.1,675.1z M331.9,630.2
		c10.4,0,14.1-4.3,14.1-11.9c0-7.7-3.8-10.4-14.1-10.4h-16c-1.6,0-2.5,0.9-2.5,2.5v19.8H331.9z M332.3,669.6
		c12.7,0,17.4-3.9,17.4-12.7c0-8.4-4.3-13-17.4-13h-18.9v23.2c0,1.6,0.9,2.5,2.5,2.5H332.3L332.3,669.6z"/>
	<path d="M380.9,679.5v-5.2c0-3,1.6-4.7,4.7-4.7h11.6V608h-11.6c-3,0-4.7-1.6-4.7-4.7v-5.2c0-3,1.6-4.7,4.7-4.7H425
		c3,0,4.7,1.6,4.7,4.7v5.2c0,3-1.6,4.7-4.7,4.7h-11.5v61.6H425c3,0,4.7,1.6,4.7,4.7v5.2c0,3-1.6,4.7-4.7,4.7h-39.4
		C382.5,684.2,380.9,682.6,380.9,679.5z"/>
	<path d="M739.6,679.5v-5.2c0-3,1.6-4.7,4.7-4.7h11.6V608h-11.6c-3,0-4.7-1.6-4.7-4.7v-5.2c0-3,1.6-4.7,4.7-4.7h39.4
		c3,0,4.7,1.6,4.7,4.7v5.2c0,3-1.6,4.7-4.7,4.7h-11.5v61.6h11.5c3,0,4.7,1.6,4.7,4.7v5.2c0,3-1.6,4.7-4.7,4.7h-39.4
		C741.2,684.2,739.6,682.6,739.6,679.5z"/>
	<path d="M516.9,684.2h-7c-2.8,0-4.6-1.3-5.2-4l-3.8-15.6h-36.1l-3.8,15.6c-0.6,2.6-2.4,4-5.2,4h-7c-3.3,0-4.8-2-4-5.2l18.5-72.2
		c2.5-9.9,6.7-13.4,15.5-13.4h7.8c8.9,0,13.1,3.5,15.6,13.4l18.5,72.2C521.7,682.2,520.2,684.2,516.9,684.2z M497.5,650.5l-8.9-37.1
		c-1.1-4.4-2.4-5.2-5.2-5.2h-1c-2.8,0-4.2,0.9-5.2,5.2l-8.9,37.1H497.5z"/>
	<path d="M721,684.2h-7c-2.8,0-4.6-1.3-5.2-4l-3.8-15.6h-36l-3.8,15.6c-0.6,2.6-2.4,4-5.2,4h-7c-3.3,0-4.8-2-4-5.2l18.5-72.2
		c2.5-9.9,6.7-13.4,15.5-13.4h7.8c8.9,0,13.1,3.5,15.5,13.4l18.5,72.2C725.9,682.2,724.4,684.2,721,684.2z M701.7,650.5l-8.9-37.1
		c-1.1-4.4-2.4-5.2-5.2-5.2h-1c-2.8,0-4.2,0.9-5.2,5.2l-8.9,37.1H701.7z"/>
	<path d="M570.4,630c-10.3-3.1-19.3-5.8-19.3-12.6c0-4.7,4-10.1,15.1-10.1h1.3c2.9,0.2,4.8,0.3,8.2,1.8c3.7,1.7,4.5,2.4,5.9,3.6
		c2.4,1.9,3.6,3.6,5.2,4.9c2.9,2.4,5.6,2,7.4-1.1l3-4.4c1.7-2.9,1.2-5.2-1.3-8.1c-0.9-1-4.6-4.3-5.7-5.1c-2.2-1.6-5.7-3.6-6.4-3.9
		c-4.9-2.2-10.8-3.7-17.5-3.7l0,0l0,0l0,0l0,0c-18.9,0-32.2,11-32.2,26.6c0,17.5,16.2,22.3,30.6,26.6c10.3,3.1,19.3,5.8,19.3,12.6
		c0,4.6-1.8,9.4-11,11.2c-1.8,0.3-5.4,0.5-7.6,0.4c-3.1-0.1-5.8-0.5-9.2-2.1c-3.7-1.7-4.5-2.4-5.9-3.6c-2.4-1.9-3.4-3.4-4.9-4.7
		c-2.9-2.4-5.8-2.1-7.6,0.9l-3,4.4c-1.7,2.9-1.2,5.2,1.3,8.1c0.9,1,4.6,4.2,5.7,5c1.3,0.9,3,2.1,4.4,2.9c1,0.6,5.1,2.4,6.7,3
		c3.9,1.2,8.2,1.9,12.9,1.9c24.4,0,35.4-14,35.4-27.9C601,639.2,584.8,634.3,570.4,630z"/>
</g>
<g id="Clearspace" class="st2">
	<g class="st3">
		<path class="st4" d="M871.2,750.4v-5.2c0-3,1.6-4.7,4.7-4.7h11.6v-61.6h-11.6c-3,0-4.7-1.6-4.7-4.7V669c0-3,1.6-4.7,4.7-4.7h39.4
			c3,0,4.7,1.6,4.7,4.7v5.2c0,3-1.6,4.7-4.7,4.7h-11.5v61.6h11.5c3,0,4.7,1.6,4.7,4.7v5.2c0,3-1.6,4.7-4.7,4.7h-39.4
			C872.9,755.1,871.2,753.5,871.2,750.4z"/>
		<path class="st4" d="M852.7,755.1h-7c-2.8,0-4.6-1.3-5.2-4l-3.8-15.6h-36.1l-3.8,15.6c-0.6,2.6-2.4,4-5.2,4h-7c-3.3,0-4.8-2-4-5.2
			l18.5-72.2c2.5-9.9,6.7-13.4,15.5-13.4h7.8c8.9,0,13.1,3.5,15.5,13.4l18.5,72.2C857.6,753.1,856.1,755.1,852.7,755.1z
			 M833.3,721.4l-8.9-37.1c-1.1-4.4-2.4-5.2-5.2-5.2h-1c-2.8,0-4.2,0.8-5.2,5.2l-8.9,37.1H833.3z"/>
	</g>
	<g class="st3">
		<g>
			<polyline class="st5" points="780.5,661.5 780.5,664.5 777.5,664.5 			"/>
			<line class="st6" x1="771.4" y1="664.5" x2="121.6" y2="664.5"/>
			<polyline class="st5" points="118.5,664.5 115.5,664.5 115.5,661.5 			"/>
			<line class="st7" x1="115.5" y1="655.5" x2="115.5" y2="214.7"/>
			<polyline class="st5" points="115.5,211.7 115.5,208.7 118.5,208.7 			"/>
			<line class="st6" x1="124.6" y1="208.7" x2="774.5" y2="208.7"/>
			<polyline class="st5" points="777.5,208.7 780.5,208.7 780.5,211.7 			"/>
			<line class="st7" x1="780.5" y1="217.7" x2="780.5" y2="658.5"/>
		</g>
	</g>
	<g class="st3">
		<g>
			<polyline class="st5" points="920,752.1 920,755.1 917,755.1 			"/>
			<line class="st8" x1="911.1" y1="755.1" x2="-18.9" y2="755.1"/>
			<polyline class="st5" points="-21.9,755.1 -24.9,755.1 -24.9,752.1 			"/>
			<line class="st9" x1="-24.9" y1="746.1" x2="-24.9" y2="126.8"/>
			<polyline class="st5" points="-24.9,123.9 -24.9,120.9 -21.9,120.9 			"/>
			<line class="st8" x1="-15.9" y1="120.9" x2="914" y2="120.9"/>
			<polyline class="st5" points="917,120.9 920,120.9 920,123.9 			"/>
			<line class="st9" x1="920" y1="129.9" x2="920" y2="749.1"/>
		</g>
	</g>
	<line class="st10" x1="115.5" y1="119.5" x2="115.5" y2="753.8"/>
	<line class="st10" x1="780.5" y1="119.5" x2="780.5" y2="753.8"/>
	<line class="st10" x1="919" y1="208.7" x2="-24.9" y2="208.7"/>
	<line class="st10" x1="919" y1="664.8" x2="-24.9" y2="664.8"/>
</g>
</svg>
