<?xml version="1.0" encoding="utf-8"?>
<!-- Generator: Adobe Illustrator 24.1.3, SVG Export Plug-In . SVG Version: 6.00 Build 0)  -->
<svg version="1.1" id="Layer_1" xmlns="http://www.w3.org/2000/svg" xmlns:xlink="http://www.w3.org/1999/xlink" x="0px" y="0px"
	 viewBox="0 0 664 456.1" style="enable-background:new 0 0 664 456.1;" xml:space="preserve">
<style type="text/css">
	.st0{fill:#8080FF;}
	.st1{fill:#FFFFFF;}
	.st2{display:none;}
	.st3{display:inline;}
	.st4{fill:#00FFFF;}
	.st5{fill:none;stroke:#00FFFF;stroke-width:0.75;stroke-miterlimit:10;}
	.st6{fill:none;stroke:#00FFFF;stroke-width:0.75;stroke-miterlimit:10;stroke-dasharray:6.0455,6.0455;}
	.st7{fill:none;stroke:#00FFFF;stroke-width:0.75;stroke-miterlimit:10;stroke-dasharray:5.9969,5.9969;}
	.st8{fill:none;stroke:#00FFFF;stroke-width:0.75;stroke-miterlimit:10;stroke-dasharray:5.9804,5.9804;}
	.st9{fill:none;stroke:#00FFFF;stroke-width:0.75;stroke-miterlimit:10;stroke-dasharray:5.9835,5.9835;}
	.st10{display:inline;fill:none;stroke:#00FFFF;stroke-width:0.75;stroke-miterlimit:10;stroke-dasharray:6;}
</style>
<g id="Background">
</g>
<g id="Logo">
	<path class="st0" d="M223,132.9c-1.2,11.6-3.3,20.9-11,27.9c-5.5,5-10.6,4.6-15.3-0.9c-8.5-10.1-9.3-33.3-1.4-43.4
		c5.4-6.9,22-3.6,25.4,5.3C222.2,125.8,222.5,130.3,223,132.9z M204.6,153.8c6.6-6.1,7.3-13.3,6.9-20.8c-0.5-8.3-2.3-9.4-12.1-7.8
		C198,134.9,196.8,144.6,204.6,153.8z"/>
	<path class="st0" d="M455.8,158.2c-0.4,4.8-2.5,7.4-6.1,7.6c-3.6,0.3-6.4-1.9-7.6-5.9c-0.1-0.2-0.2-0.4-0.2-0.7
		c-0.6-12.5-2.6-26,0.3-38.4c1.1-4.5,3.1-6.6,6.1-6.4c3.2,0.2,5.8,3.2,5.4,7.8c-0.9,10.8,1.1,22.3,1.9,32.9
		C455.7,156.4,455.7,157.5,455.8,158.2z"/>
	<path class="st1" d="M532.8,226.6c-5.6-67.8-9.6-112.9-14-180.7c-1.2-13.9,0-37.3-20-44.3c-18.6-6.5-36.3,8.3-46,18
		C371.2,101.2,275.3,163.5,172.7,231c-3.9,2.6-9.9,2.6-10.2-7.4c-1-29.2-3.4-57.6-6.7-87.1c-2-18-3.9-51.7-7-79c-0.3-2.8,2-12,12-13
		c60-6,114.3-6.8,180-10c4.1-0.2,6-1.3,10-2c0,0,3-1,3-3s-1.3-2.1-1.3-2.1c-7.3-4.1-16.7-4.2-24.5-4.7c-62.1-3.2-89.7,2.6-151.2,2.9
		c-4.9,0.2-25,1-29,1c-14,0-20.9,3.9-21,20c0,3.4,0.1,6.6,0.7,11.3c7.7,65.4,8.3,119.7,11.3,188.7c0.3,7,4.8,16.3,14,20
		c10,4,21.2-0.9,30-8c32.4-26.2,38-33,72-54c33-24,55.9-35.9,81-55c41.2-30.2,77-60,119-95c7-5.8,6.8-6.6,14-12c1.7-1.3,9-7.2,12-9
		c5-3,11.6,1,12,9c4,72,12.3,130.7,20,194c0.7,6-4,16-14,15c-7-0.7-19-1-28-2c-61.8-6.9-87.1-1.8-149-3c-12.7-0.2-41.9-0.7-56-1
		c-6,0-20.8,2-22.8,4.6c-2.7,5.1,3.4,10.5,8.1,10.6c19.2,3.6,39.4,3.2,58.9,3c39.4-0.2,78.9,0.7,118.5,3.8c31.8,2.6,52.7,8,84.3,6.1
		C545.8,271.6,533.8,237.6,532.8,226.6z"/>
	<path class="st0" d="M0,446.7V374c0-5.5,3.7-9.1,9.2-9.1h20.6c31.9,0,40.3,17.9,40.3,45.4s-8.4,45.4-40.3,45.4H9.2
		C3.7,455.8,0,452.3,0,446.7z M29.3,441.2c20.6,0,24.5-10.7,24.5-30.8c0-20.1-3.9-30.8-24.5-30.8H18.9c-1.6,0-2.5,0.9-2.5,2.5v56.7
		c0,1.6,0.9,2.5,2.5,2.5L29.3,441.2L29.3,441.2z"/>
	<path class="st0" d="M87.7,446.7V374c0-5.5,3.7-9.1,9.2-9.1h49.3c3,0,4.7,1.6,4.7,4.7v5.2c0,3-1.6,4.7-4.7,4.7h-39.7
		c-1.6,0-2.5,0.9-2.5,2.5v20.5h42c3,0,4.7,1.6,4.7,4.7v5.2c0,3-1.6,4.7-4.7,4.7h-42v21.5c0,1.6,0.9,2.5,2.5,2.5h39.8
		c3,0,4.7,1.6,4.7,4.7v5.2c0,3-1.6,4.7-4.7,4.7H96.9C91.4,455.8,87.7,452.3,87.7,446.7z"/>
	<path class="st1" d="M172.7,446.7V374c0-5.5,3.7-9.1,9.2-9.1h27c21.4,0,28,10.5,28,22.4c0,9-3.6,17-14.3,19.6v1.4
		c13.7,2.3,18.5,10.5,18.5,22.5c0,15.9-8.7,25-33.4,25h-25.8C176.4,455.8,172.7,452.3,172.7,446.7z M207.5,401.8
		c10.4,0,14.1-4.3,14.1-11.9c0-7.7-3.8-10.4-14.1-10.4h-16c-1.6,0-2.5,0.9-2.5,2.5v19.8H207.5z M207.9,441.2
		c12.7,0,17.4-3.9,17.4-12.7c0-8.4-4.3-13-17.4-13H189v23.2c0,1.6,0.9,2.5,2.5,2.5H207.9L207.9,441.2z"/>
	<path class="st1" d="M256.5,451.1v-5.2c0-3,1.6-4.7,4.7-4.7h11.6v-61.6h-11.6c-3,0-4.7-1.6-4.7-4.7v-5.2c0-3,1.6-4.7,4.7-4.7h39.4
		c3,0,4.7,1.6,4.7,4.7v5.2c0,3-1.6,4.7-4.7,4.7h-11.5v61.6h11.5c3,0,4.7,1.6,4.7,4.7v5.2c0,3-1.6,4.7-4.7,4.7h-39.4
		C258.1,455.8,256.5,454.2,256.5,451.1z"/>
	<path class="st1" d="M615.2,451.1v-5.2c0-3,1.6-4.7,4.7-4.7h11.6v-61.6h-11.6c-3,0-4.7-1.6-4.7-4.7v-5.2c0-3,1.6-4.7,4.7-4.7h39.4
		c3,0,4.7,1.6,4.7,4.7v5.2c0,3-1.6,4.7-4.7,4.7h-11.5v61.6h11.5c3,0,4.7,1.6,4.7,4.7v5.2c0,3-1.6,4.7-4.7,4.7h-39.4
		C616.8,455.8,615.2,454.2,615.2,451.1z"/>
	<path class="st1" d="M392.5,455.8h-7c-2.8,0-4.6-1.3-5.2-4l-3.8-15.6h-36.1l-3.8,15.6c-0.6,2.6-2.4,4-5.2,4h-7c-3.3,0-4.8-2-4-5.2
		l18.5-72.2c2.5-9.9,6.7-13.4,15.5-13.4h7.8c8.9,0,13.1,3.5,15.6,13.4l18.5,72.2C397.3,453.8,395.8,455.8,392.5,455.8z M373.1,422.1
		l-8.9-37.1c-1.1-4.4-2.4-5.2-5.2-5.2h-1c-2.8,0-4.2,0.9-5.2,5.2l-8.9,37.1H373.1z"/>
	<path class="st1" d="M596.6,455.8h-7c-2.8,0-4.6-1.3-5.2-4l-3.8-15.6h-36l-3.8,15.6c-0.6,2.6-2.4,4-5.2,4h-7c-3.3,0-4.8-2-4-5.2
		l18.5-72.2c2.5-9.9,6.7-13.4,15.5-13.4h7.8c8.9,0,13.1,3.5,15.5,13.4l18.5,72.2C601.5,453.8,600,455.8,596.6,455.8z M577.3,422.1
		l-8.9-37.1c-1.1-4.4-2.4-5.2-5.2-5.2h-1c-2.8,0-4.2,0.9-5.2,5.2l-8.9,37.1H577.3z"/>
	<path class="st1" d="M446,401.6c-10.3-3.1-19.3-5.8-19.3-12.6c0-4.7,4-10.1,15.1-10.1h1.3c2.9,0.2,4.8,0.3,8.2,1.8
		c3.7,1.7,4.5,2.4,5.9,3.6c2.4,1.9,3.6,3.6,5.2,4.9c2.9,2.4,5.6,2,7.4-1.1l3-4.4c1.7-2.9,1.2-5.2-1.3-8.1c-0.9-1-4.6-4.3-5.7-5.1
		c-2.2-1.6-5.7-3.6-6.4-3.9c-4.9-2.2-10.8-3.7-17.5-3.7l0,0l0,0l0,0l0,0c-18.9,0-32.2,11-32.2,26.6c0,17.5,16.2,22.3,30.6,26.6
		c10.3,3.1,19.3,5.8,19.3,12.6c0,4.6-1.8,9.4-11,11.2c-1.8,0.3-5.4,0.5-7.6,0.4c-3.1-0.1-5.8-0.5-9.2-2.1c-3.7-1.7-4.5-2.4-5.9-3.6
		c-2.4-1.9-3.4-3.4-4.9-4.7c-2.9-2.4-5.8-2.1-7.6,0.9l-3,4.4c-1.7,2.9-1.2,5.2,1.3,8.1c0.9,1,4.6,4.2,5.7,5c1.3,0.9,3,2.1,4.4,2.9
		c1,0.6,5.1,2.4,6.7,3c3.9,1.2,8.2,1.9,12.9,1.9c24.4,0,35.4-14,35.4-27.9C476.6,410.8,460.4,405.9,446,401.6z"/>
</g>
<g id="Clearspace" class="st2">
	<g class="st3">
		<path class="st4" d="M755.7,541.7v-5.2c0-3,1.6-4.7,4.7-4.7H772v-61.6h-11.6c-3,0-4.7-1.6-4.7-4.7v-5.2c0-3,1.6-4.7,4.7-4.7h39.4
			c3,0,4.7,1.6,4.7,4.7v5.2c0,3-1.6,4.7-4.7,4.7h-11.5v61.6h11.5c3,0,4.7,1.6,4.7,4.7v5.2c0,3-1.6,4.7-4.7,4.7h-39.4
			C757.4,546.4,755.7,544.8,755.7,541.7z"/>
		<path class="st4" d="M737.2,546.4h-7c-2.8,0-4.6-1.3-5.2-4l-3.8-15.6h-36.1l-3.8,15.6c-0.6,2.6-2.4,4-5.2,4h-7c-3.3,0-4.8-2-4-5.2
			l18.5-72.2c2.5-9.9,6.7-13.4,15.5-13.4h7.8c8.9,0,13.1,3.5,15.5,13.4l18.5,72.2C742.1,544.4,740.6,546.4,737.2,546.4z
			 M717.8,512.7l-8.9-37.1c-1.1-4.4-2.4-5.2-5.2-5.2h-1c-2.8,0-4.2,0.8-5.2,5.2l-8.9,37.1H717.8z"/>
	</g>
	<g class="st3">
		<g>
			<polyline class="st5" points="665,452.8 665,455.8 662,455.8 			"/>
			<line class="st6" x1="655.9" y1="455.8" x2="6.1" y2="455.8"/>
			<polyline class="st5" points="3,455.8 0,455.8 0,452.8 			"/>
			<line class="st7" x1="0" y1="446.8" x2="0" y2="6"/>
			<polyline class="st5" points="0,3 0,0 3,0 			"/>
			<line class="st6" x1="9.1" y1="0" x2="659" y2="0"/>
			<polyline class="st5" points="662,0 665,0 665,3 			"/>
			<line class="st7" x1="665" y1="9" x2="665" y2="449.8"/>
		</g>
	</g>
	<g class="st3">
		<g>
			<polyline class="st5" points="804.5,543.4 804.5,546.4 801.5,546.4 			"/>
			<line class="st8" x1="795.6" y1="546.4" x2="-134.4" y2="546.4"/>
			<polyline class="st5" points="-137.4,546.4 -140.4,546.4 -140.4,543.4 			"/>
			<line class="st9" x1="-140.4" y1="537.4" x2="-140.4" y2="-81.9"/>
			<polyline class="st5" points="-140.4,-84.8 -140.4,-87.8 -137.4,-87.8 			"/>
			<line class="st8" x1="-131.4" y1="-87.8" x2="798.5" y2="-87.8"/>
			<polyline class="st5" points="801.5,-87.8 804.5,-87.8 804.5,-84.8 			"/>
			<line class="st9" x1="804.5" y1="-78.8" x2="804.5" y2="540.4"/>
		</g>
	</g>
	<line class="st10" x1="0" y1="-89.2" x2="0" y2="545.1"/>
	<line class="st10" x1="665" y1="-89.2" x2="665" y2="545.1"/>
	<line class="st10" x1="803.5" y1="0" x2="-140.4" y2="0"/>
	<line class="st10" x1="803.5" y1="456.1" x2="-140.4" y2="456.1"/>
</g>
</svg>
