<svg xmlns="http://www.w3.org/2000/svg" xmlns:xlink="http://www.w3.org/1999/xlink" xmlns:ev="http://www.w3.org/2001/xml-events" version="1.1" baseProfile="full" width="154" height="22" viewBox="0 0 154 22">
  <g transform="scale(NaN)">
    <path fill-rule="evenodd" fill="rgb( 0, 0, 0 )" d="M152.93 21.75C152.85 21.75 152.77 21.75 152.69 21.75 152.16 21.75 151.68 21.59 151.57 21.09 151.49 20.76 151.44 20.27 151.41 19.72 150.4 20.9 148.99 21.97 146.34 21.97 143.41 21.97 141.62 20.27 141.62 17.44 141.62 14.86 143.12 13.21 145.65 12.5 147.12 12.09 148.51 11.92 151.36 11.87 151.36 11.87 151.36 10.68 151.36 10.68 151.36 8.87 150.4 8.07 148.29 8.07 146.34 8.07 145.38 8.84 144.93 10.11 144.74 10.63 144.34 10.82 143.89 10.82 143.68 10.82 143.46 10.79 143.28 10.71 142.77 10.55 142.4 10.16 142.4 9.67 142.4 9.56 142.42 9.45 142.45 9.34 142.72 8.49 143.41 7.69 144.02 7.2 144.96 6.45 146.16 5.99 148.32 5.99 151.89 5.99 153.65 7.44 153.65 10.68 153.65 10.68 153.65 18.18 153.65 18.18 153.65 19.14 153.79 20.08 153.95 20.6 153.97 20.68 154 20.79 154 20.87 154 21.31 153.6 21.7 152.93 21.75ZM151.36 13.84C148.24 13.93 146.77 14.2 145.7 14.75 144.64 15.3 144.08 16.15 144.08 17.47 144.08 18.9 145.14 19.86 146.74 19.86 148.43 19.86 149.81 19.01 150.67 17.91 151.17 17.25 151.36 16.73 151.36 15.68 151.36 15.68 151.36 13.84 151.36 13.84ZM137.33 3.71C136.31 3.71 135.51 2.91 135.51 1.84 135.51 0.8 136.31 0 137.33 0 138.31 0 139.12 0.8 139.12 1.84 139.12 2.91 138.31 3.71 137.33 3.71ZM131.06 21.75C130.29 21.75 129.91 21.31 129.91 20.74 129.91 20.74 129.91 20.16 129.91 20.16 129.91 19.86 129.97 19.28 129.99 18.9 129.09 20.82 127.56 22 125.08 22 121.19 22 118.73 18.84 118.73 13.9 118.73 9.09 121.16 5.99 125.11 5.99 127.59 5.99 129.09 7.2 130.02 9.15 129.97 8.51 129.91 7.72 129.91 7.11 129.91 7.11 129.91 1.13 129.91 1.13 129.91 0.39 130.42 0.03 131.09 0.03 131.83 0.03 132.29 0.39 132.29 1.13 132.29 1.13 132.29 20.65 132.29 20.65 132.29 21.4 131.81 21.75 131.06 21.75ZM125.43 8.13C122.74 8.13 121.19 10.44 121.19 13.93 121.19 17.52 122.74 19.86 125.43 19.86 128.23 19.86 129.97 17.36 129.97 13.95 129.97 10.6 128.36 8.13 125.43 8.13ZM115.19 14.45C115.19 14.45 105.8 14.45 105.8 14.45 105.85 17.83 107.48 19.94 110.36 19.94 112.28 19.94 113.35 18.95 113.99 17.5 114.23 17 114.57 16.81 114.95 16.81 115.13 16.81 115.32 16.86 115.51 16.92 115.96 17.06 116.33 17.39 116.33 17.88 116.33 18.05 116.31 18.21 116.2 18.37 115.35 20.19 113.8 22 110.33 22 105.96 22 103.42 18.81 103.42 14.06 103.42 9.31 105.82 5.99 110.17 5.99 114.07 5.99 116.25 9.12 116.52 12.72 116.52 12.8 116.52 12.85 116.52 12.94 116.52 13.93 116.01 14.45 115.19 14.45ZM114.09 11.95C113.77 10 112.63 7.99 110.17 7.99 107.61 7.99 106.22 9.75 105.88 12.44 105.88 12.44 113.69 12.44 113.69 12.44 113.99 12.44 114.09 12.33 114.09 12.09 114.09 12.06 114.09 12 114.09 11.95ZM99.18 21.75C98.43 21.75 97.98 21.4 97.98 20.65 97.98 20.65 97.98 11.87 97.98 11.87 97.98 9.53 97.34 8.21 95.42 8.21 94.01 8.21 93.07 9.09 92.43 10.08 92.03 10.66 91.71 11.73 91.71 12.55 91.71 12.55 91.71 20.65 91.71 20.65 91.71 21.4 91.21 21.75 90.51 21.75 89.76 21.75 89.31 21.4 89.31 20.65 89.31 20.65 89.31 11.87 89.31 11.87 89.31 9.53 88.64 8.21 86.75 8.21 85.34 8.21 84.48 9.06 83.84 10.05 83.36 10.79 83.12 11.78 83.12 12.69 83.12 12.69 83.12 20.65 83.12 20.65 83.12 21.4 82.64 21.75 81.95 21.75 81.2 21.75 80.72 21.4 80.72 20.65 80.72 20.65 80.72 7.28 80.72 7.28 80.72 6.57 81.23 6.21 81.98 6.21 82.64 6.21 83.12 6.57 83.12 7.28 83.12 7.28 83.12 7.86 83.12 7.86 83.12 8.21 83.02 8.76 82.94 9.17 83.6 7.55 84.72 6.02 87.34 6.02 89.68 6.02 90.97 7.11 91.31 9.01 92.09 7.58 93.05 6.02 96.01 6.02 99.15 6.02 100.41 7.97 100.41 11.32 100.41 11.32 100.41 20.65 100.41 20.65 100.41 21.4 99.88 21.75 99.18 21.75ZM76.48 14.45C76.48 14.45 67.09 14.45 67.09 14.45 67.14 17.83 68.77 19.94 71.65 19.94 73.57 19.94 74.64 18.95 75.28 17.5 75.52 17 75.87 16.81 76.24 16.81 76.43 16.81 76.61 16.86 76.8 16.92 77.25 17.06 77.63 17.39 77.63 17.88 77.63 18.05 77.6 18.21 77.49 18.37 76.64 20.19 75.09 22 71.63 22 67.25 22 64.72 18.81 64.72 14.06 64.72 9.31 67.12 5.99 71.46 5.99 75.36 5.99 77.55 9.12 77.81 12.72 77.81 12.8 77.81 12.85 77.81 12.94 77.81 13.93 77.31 14.45 76.48 14.45ZM75.39 11.95C75.07 10 73.92 7.99 71.46 7.99 68.9 7.99 67.52 9.75 67.17 12.44 67.17 12.44 74.99 12.44 74.99 12.44 75.28 12.44 75.39 12.33 75.39 12.09 75.39 12.06 75.39 12 75.39 11.95ZM57.78 20.65C57.46 21.51 56.87 21.75 56.18 21.75 55.46 21.75 54.9 21.48 54.58 20.63 54.58 20.63 49.67 7.8 49.67 7.8 49.62 7.64 49.59 7.5 49.59 7.36 49.59 6.84 49.94 6.43 50.44 6.29 50.63 6.24 50.82 6.21 50.98 6.21 51.46 6.21 51.86 6.43 52.04 6.98 52.04 6.98 55.14 15.63 55.14 15.63 55.46 16.56 55.99 18.4 56.21 19.39 56.45 18.37 56.95 16.43 57.3 15.49 57.3 15.49 60.34 7 60.34 7 60.55 6.45 60.93 6.21 61.41 6.21 61.57 6.21 61.73 6.24 61.92 6.29 62.45 6.45 62.8 6.81 62.8 7.33 62.8 7.47 62.77 7.64 62.69 7.8 62.69 7.8 57.78 20.65 57.78 20.65ZM45.72 3.71C44.71 3.71 43.91 2.91 43.91 1.84 43.91 0.8 44.71 0 45.72 0 46.71 0 47.51 0.8 47.51 1.84 47.51 2.91 46.71 3.71 45.72 3.71ZM39.48 21.75C38.73 21.75 38.25 21.4 38.25 20.65 38.25 20.65 38.25 1.13 38.25 1.13 38.25 0.39 38.73 0.03 39.48 0.03 40.2 0.03 40.68 0.39 40.68 1.13 40.68 1.13 40.68 20.65 40.68 20.65 40.68 21.4 40.2 21.75 39.48 21.75ZM32.89 21.97C30.7 21.97 29.1 20.85 29.1 17.96 29.1 17.96 29.1 8.54 29.1 8.54 29.1 8.54 27.02 8.54 27.02 8.54 26.38 8.54 26.09 8.1 26.09 7.47 26.09 6.84 26.38 6.37 27.05 6.37 27.05 6.37 29.1 6.37 29.1 6.37 29.1 6.37 29.1 3.05 29.1 3.05 29.1 2.34 29.56 1.95 30.3 1.95 31 1.95 31.5 2.34 31.5 3.05 31.5 3.05 31.5 6.37 31.5 6.37 31.5 6.37 34.92 6.37 34.92 6.37 35.59 6.37 35.91 6.81 35.91 7.47 35.91 8.1 35.56 8.54 34.92 8.54 34.92 8.54 31.5 8.54 31.5 8.54 31.5 8.54 31.5 17.74 31.5 17.74 31.5 19.09 32.07 19.67 33.05 19.67 33.72 19.67 34.17 19.47 34.63 19.2 34.79 19.12 34.95 19.06 35.11 19.06 35.51 19.06 35.83 19.36 35.99 19.77 36.07 19.97 36.09 20.19 36.09 20.38 36.09 20.76 35.93 21.15 35.53 21.37 34.76 21.75 34.04 21.97 32.89 21.97ZM24.17 8.71C24.09 8.71 24.01 8.71 23.93 8.68 23.56 8.6 23.21 8.51 22.65 8.51 21.5 8.54 20.62 9.15 19.95 10.03 19.26 10.9 18.86 11.92 18.83 13.07 18.83 13.07 18.83 20.65 18.83 20.65 18.83 21.4 18.3 21.75 17.63 21.75 16.89 21.75 16.38 21.4 16.38 20.65 16.38 20.65 16.38 7.28 16.38 7.28 16.38 6.57 16.89 6.21 17.63 6.21 18.3 6.21 18.83 6.57 18.83 7.28 18.83 7.28 18.83 7.88 18.83 7.88 18.83 8.27 18.73 8.73 18.67 9.17 19.1 7.86 20.46 6.15 22.76 6.07 22.97 6.04 23.16 6.04 23.34 6.04 23.74 6.04 24.04 6.1 24.41 6.18 25.02 6.26 25.26 6.65 25.26 7.17 25.26 7.31 25.24 7.47 25.21 7.64 25.1 8.21 24.73 8.71 24.17 8.71ZM11.31 21.75C11.23 21.75 11.15 21.75 11.07 21.75 10.54 21.75 10.06 21.59 9.95 21.09 9.87 20.76 9.82 20.27 9.79 19.72 8.78 20.9 7.36 21.97 4.72 21.97 1.79 21.97 0 20.27 0 17.44 0 14.86 1.49 13.21 4.03 12.5 5.5 12.09 6.88 11.92 9.74 11.87 9.74 11.87 9.74 10.68 9.74 10.68 9.74 8.87 8.78 8.07 6.67 8.07 4.72 8.07 3.76 8.84 3.31 10.11 3.12 10.63 2.72 10.82 2.27 10.82 2.05 10.82 1.84 10.79 1.65 10.71 1.15 10.55 0.77 10.16 0.77 9.67 0.77 9.56 0.8 9.45 0.83 9.34 1.09 8.49 1.79 7.69 2.4 7.2 3.34 6.45 4.54 5.99 6.7 5.99 10.27 5.99 12.03 7.44 12.03 10.68 12.03 10.68 12.03 18.18 12.03 18.18 12.03 19.14 12.17 20.08 12.33 20.6 12.35 20.68 12.38 20.79 12.38 20.87 12.38 21.31 11.98 21.7 11.31 21.75ZM9.74 13.84C6.62 13.93 5.15 14.2 4.08 14.75 3.01 15.3 2.45 16.15 2.45 17.47 2.45 18.9 3.52 19.86 5.12 19.86 6.8 19.86 8.19 19.01 9.04 17.91 9.55 17.25 9.74 16.73 9.74 15.68 9.74 15.68 9.74 13.84 9.74 13.84ZM45.7 6.21C46.42 6.21 46.92 6.57 46.92 7.28 46.92 7.28 46.92 20.65 46.92 20.65 46.92 21.4 46.42 21.75 45.7 21.75 44.95 21.75 44.5 21.4 44.5 20.65 44.5 20.65 44.5 7.28 44.5 7.28 44.5 6.57 44.95 6.21 45.7 6.21ZM137.3 6.21C138.02 6.21 138.53 6.57 138.53 7.28 138.53 7.28 138.53 20.65 138.53 20.65 138.53 21.4 138.02 21.75 137.3 21.75 136.55 21.75 136.1 21.4 136.1 20.65 136.1 20.65 136.1 7.28 136.1 7.28 136.1 6.57 136.55 6.21 137.3 6.21Z"/>
  </g>
</svg>
