<?xml version="1.0" encoding="utf-8"?> <!-- Generated by Layerhero SVG Exporter: http://www.layerhero.com/photoshop-svg-exporter --><!DOCTYPE svg PUBLIC "-//W3C//DTD SVG 1.1//EN" "http://www.w3.org/Graphics/SVG/1.1/DTD/svg11.dtd"><svg version="1.1" baseProfile="full" xmlns="http://www.w3.org/2000/svg" xmlns:xlink="http://www.w3.org/1999/xlink" xmlns:ev="http://www.w3.org/2001/xml-events" width="154" height="22" viewBox="0 0 154 22"><g transform="scale(NaN)" ><path fill-rule="evenodd"  fill="rgb( 0, 0, 0 )" d="M152.933,21.753 C152.853,21.753 152.773,21.753 152.693,21.753 C152.159,21.753 151.679,21.588 151.572,21.094 C151.492,20.764 151.439,20.270 151.412,19.720 C150.399,20.901 148.985,21.973 146.344,21.973 C143.409,21.973 141.622,20.270 141.622,17.441 C141.622,14.859 143.116,13.211 145.650,12.497 C147.117,12.085 148.505,11.920 151.359,11.865 C151.359,11.865 151.359,10.684 151.359,10.684 C151.359,8.871 150.399,8.075 148.291,8.075 C146.344,8.075 145.383,8.844 144.930,10.107 C144.743,10.629 144.343,10.822 143.890,10.822 C143.676,10.822 143.463,10.794 143.276,10.712 C142.769,10.547 142.396,10.162 142.396,9.668 C142.396,9.558 142.422,9.448 142.449,9.338 C142.716,8.487 143.409,7.691 144.023,7.196 C144.957,6.454 146.157,5.988 148.318,5.988 C151.893,5.988 153.653,7.443 153.653,10.684 C153.653,10.684 153.653,18.182 153.653,18.182 C153.653,19.144 153.787,20.077 153.947,20.600 C153.973,20.681 154.000,20.791 154.000,20.874 C154.000,21.313 153.600,21.698 152.933,21.753 ZM151.359,13.843 C148.238,13.925 146.771,14.200 145.704,14.749 C144.636,15.299 144.076,16.150 144.076,17.468 C144.076,18.896 145.143,19.857 146.744,19.857 C148.425,19.857 149.812,19.006 150.665,17.908 C151.172,17.249 151.359,16.727 151.359,15.683 C151.359,15.683 151.359,13.843 151.359,13.843 ZM137.327,3.708 C136.314,3.708 135.513,2.912 135.513,1.840 C135.513,0.797 136.314,-0.000 137.327,-0.000 C138.314,-0.000 139.115,0.797 139.115,1.840 C139.115,2.912 138.314,3.708 137.327,3.708 ZM131.059,21.753 C130.285,21.753 129.912,21.313 129.912,20.736 C129.912,20.736 129.912,20.160 129.912,20.160 C129.912,19.857 129.965,19.281 129.992,18.896 C129.085,20.819 127.564,22.000 125.083,22.000 C121.188,22.000 118.734,18.842 118.734,13.898 C118.734,9.091 121.162,5.988 125.110,5.988 C127.591,5.988 129.085,7.196 130.018,9.146 C129.965,8.514 129.912,7.718 129.912,7.114 C129.912,7.114 129.912,1.126 129.912,1.126 C129.912,0.385 130.418,0.028 131.085,0.028 C131.832,0.028 132.286,0.385 132.286,1.126 C132.286,1.126 132.286,20.654 132.286,20.654 C132.286,21.396 131.806,21.753 131.059,21.753 ZM125.430,8.130 C122.736,8.130 121.188,10.437 121.188,13.925 C121.188,17.523 122.736,19.857 125.430,19.857 C128.231,19.857 129.965,17.358 129.965,13.953 C129.965,10.602 128.364,8.130 125.430,8.130 ZM115.187,14.447 C115.187,14.447 105.796,14.447 105.796,14.447 C105.850,17.825 107.477,19.940 110.358,19.940 C112.279,19.940 113.346,18.951 113.986,17.496 C114.226,17.001 114.573,16.809 114.946,16.809 C115.133,16.809 115.320,16.864 115.507,16.919 C115.960,17.056 116.334,17.386 116.334,17.880 C116.334,18.045 116.307,18.210 116.200,18.374 C115.347,20.187 113.799,22.000 110.331,22.000 C105.956,22.000 103.422,18.814 103.422,14.062 C103.422,9.311 105.823,5.988 110.171,5.988 C114.066,5.988 116.254,9.119 116.520,12.717 C116.520,12.799 116.520,12.854 116.520,12.936 C116.520,13.925 116.014,14.447 115.187,14.447 ZM114.093,11.948 C113.773,9.997 112.626,7.993 110.171,7.993 C107.610,7.993 106.223,9.751 105.876,12.442 C105.876,12.442 113.693,12.442 113.693,12.442 C113.986,12.442 114.093,12.332 114.093,12.085 C114.093,12.057 114.093,12.003 114.093,11.948 ZM99.181,21.753 C98.434,21.753 97.981,21.396 97.981,20.654 C97.981,20.654 97.981,11.865 97.981,11.865 C97.981,9.531 97.340,8.212 95.420,8.212 C94.006,8.212 93.072,9.091 92.432,10.080 C92.032,10.657 91.712,11.728 91.712,12.552 C91.712,12.552 91.712,20.654 91.712,20.654 C91.712,21.396 91.205,21.753 90.511,21.753 C89.764,21.753 89.311,21.396 89.311,20.654 C89.311,20.654 89.311,11.865 89.311,11.865 C89.311,9.531 88.644,8.212 86.750,8.212 C85.336,8.212 84.482,9.064 83.842,10.053 C83.362,10.794 83.122,11.783 83.122,12.689 C83.122,12.689 83.122,20.654 83.122,20.654 C83.122,21.396 82.642,21.753 81.948,21.753 C81.201,21.753 80.721,21.396 80.721,20.654 C80.721,20.654 80.721,7.279 80.721,7.279 C80.721,6.565 81.228,6.208 81.975,6.208 C82.642,6.208 83.122,6.565 83.122,7.279 C83.122,7.279 83.122,7.855 83.122,7.855 C83.122,8.212 83.015,8.762 82.935,9.173 C83.602,7.553 84.722,6.015 87.337,6.015 C89.684,6.015 90.965,7.114 91.311,9.009 C92.085,7.581 93.045,6.015 96.006,6.015 C99.154,6.015 100.408,7.965 100.408,11.316 C100.408,11.316 100.408,20.654 100.408,20.654 C100.408,21.396 99.875,21.753 99.181,21.753 ZM76.480,14.447 C76.480,14.447 67.090,14.447 67.090,14.447 C67.143,17.825 68.770,19.940 71.651,19.940 C73.572,19.940 74.639,18.951 75.279,17.496 C75.519,17.001 75.866,16.809 76.240,16.809 C76.426,16.809 76.613,16.864 76.800,16.919 C77.253,17.056 77.627,17.386 77.627,17.880 C77.627,18.045 77.600,18.210 77.493,18.374 C76.640,20.187 75.093,22.000 71.625,22.000 C67.250,22.000 64.715,18.814 64.715,14.062 C64.715,9.311 67.116,5.988 71.464,5.988 C75.359,5.988 77.547,9.119 77.814,12.717 C77.814,12.799 77.814,12.854 77.814,12.936 C77.814,13.925 77.307,14.447 76.480,14.447 ZM75.386,11.948 C75.066,9.997 73.919,7.993 71.464,7.993 C68.904,7.993 67.516,9.751 67.170,12.442 C67.170,12.442 74.986,12.442 74.986,12.442 C75.279,12.442 75.386,12.332 75.386,12.085 C75.386,12.057 75.386,12.003 75.386,11.948 ZM57.780,20.654 C57.460,21.505 56.873,21.753 56.179,21.753 C55.459,21.753 54.899,21.478 54.579,20.627 C54.579,20.627 49.670,7.800 49.670,7.800 C49.617,7.635 49.590,7.498 49.590,7.361 C49.590,6.839 49.937,6.427 50.444,6.290 C50.631,6.235 50.817,6.208 50.977,6.208 C51.458,6.208 51.858,6.427 52.044,6.976 C52.044,6.976 55.139,15.628 55.139,15.628 C55.459,16.562 55.993,18.402 56.206,19.391 C56.446,18.374 56.953,16.425 57.300,15.491 C57.300,15.491 60.341,7.004 60.341,7.004 C60.554,6.454 60.928,6.208 61.408,6.208 C61.568,6.208 61.728,6.235 61.915,6.290 C62.448,6.454 62.795,6.812 62.795,7.334 C62.795,7.471 62.768,7.635 62.688,7.800 C62.688,7.800 57.780,20.654 57.780,20.654 ZM45.722,3.708 C44.709,3.708 43.908,2.912 43.908,1.840 C43.908,0.797 44.709,-0.000 45.722,-0.000 C46.709,-0.000 47.510,0.797 47.510,1.840 C47.510,2.912 46.709,3.708 45.722,3.708 ZM39.480,21.753 C38.734,21.753 38.253,21.396 38.253,20.654 C38.253,20.654 38.253,1.126 38.253,1.126 C38.253,0.385 38.734,0.028 39.480,0.028 C40.201,0.028 40.681,0.385 40.681,1.126 C40.681,1.126 40.681,20.654 40.681,20.654 C40.681,21.396 40.201,21.753 39.480,21.753 ZM32.892,21.973 C30.704,21.973 29.103,20.846 29.103,17.963 C29.103,17.963 29.103,8.542 29.103,8.542 C29.103,8.542 27.023,8.542 27.023,8.542 C26.382,8.542 26.089,8.103 26.089,7.471 C26.089,6.839 26.382,6.372 27.049,6.372 C27.049,6.372 29.103,6.372 29.103,6.372 C29.103,6.372 29.103,3.049 29.103,3.049 C29.103,2.335 29.557,1.950 30.304,1.950 C30.997,1.950 31.504,2.335 31.504,3.049 C31.504,3.049 31.504,6.372 31.504,6.372 C31.504,6.372 34.919,6.372 34.919,6.372 C35.586,6.372 35.906,6.812 35.906,7.471 C35.906,8.103 35.559,8.542 34.919,8.542 C34.919,8.542 31.504,8.542 31.504,8.542 C31.504,8.542 31.504,17.743 31.504,17.743 C31.504,19.089 32.065,19.665 33.052,19.665 C33.719,19.665 34.172,19.473 34.626,19.198 C34.786,19.116 34.946,19.061 35.106,19.061 C35.506,19.061 35.826,19.363 35.986,19.775 C36.066,19.967 36.093,20.187 36.093,20.380 C36.093,20.764 35.933,21.148 35.533,21.368 C34.759,21.753 34.039,21.973 32.892,21.973 ZM24.169,8.707 C24.089,8.707 24.009,8.707 23.929,8.680 C23.555,8.597 23.208,8.514 22.648,8.514 C21.501,8.542 20.621,9.146 19.954,10.025 C19.260,10.904 18.860,11.920 18.833,13.074 C18.833,13.074 18.833,20.654 18.833,20.654 C18.833,21.396 18.300,21.753 17.633,21.753 C16.886,21.753 16.379,21.396 16.379,20.654 C16.379,20.654 16.379,7.279 16.379,7.279 C16.379,6.565 16.886,6.208 17.633,6.208 C18.300,6.208 18.833,6.565 18.833,7.279 C18.833,7.279 18.833,7.883 18.833,7.883 C18.833,8.267 18.727,8.734 18.673,9.173 C19.100,7.855 20.461,6.152 22.755,6.070 C22.968,6.043 23.155,6.043 23.342,6.043 C23.742,6.043 24.035,6.098 24.409,6.180 C25.022,6.262 25.262,6.647 25.262,7.169 C25.262,7.306 25.236,7.471 25.209,7.635 C25.102,8.212 24.729,8.707 24.169,8.707 ZM11.311,21.753 C11.231,21.753 11.151,21.753 11.071,21.753 C10.537,21.753 10.057,21.588 9.950,21.094 C9.870,20.764 9.817,20.270 9.790,19.720 C8.777,20.901 7.363,21.973 4.722,21.973 C1.787,21.973 -0.000,20.270 -0.000,17.441 C-0.000,14.859 1.494,13.211 4.028,12.497 C5.495,12.085 6.883,11.920 9.737,11.865 C9.737,11.865 9.737,10.684 9.737,10.684 C9.737,8.871 8.777,8.075 6.669,8.075 C4.722,8.075 3.761,8.844 3.308,10.107 C3.121,10.629 2.721,10.822 2.268,10.822 C2.054,10.822 1.841,10.794 1.654,10.712 C1.147,10.547 0.774,10.162 0.774,9.668 C0.774,9.558 0.800,9.448 0.827,9.338 C1.094,8.487 1.787,7.691 2.401,7.196 C3.335,6.454 4.535,5.988 6.696,5.988 C10.271,5.988 12.031,7.443 12.031,10.684 C12.031,10.684 12.031,18.182 12.031,18.182 C12.031,19.144 12.165,20.077 12.325,20.600 C12.351,20.681 12.378,20.791 12.378,20.874 C12.378,21.313 11.978,21.698 11.311,21.753 ZM9.737,13.843 C6.616,13.925 5.149,14.200 4.082,14.749 C3.014,15.299 2.454,16.150 2.454,17.468 C2.454,18.896 3.521,19.857 5.122,19.857 C6.803,19.857 8.190,19.006 9.043,17.908 C9.550,17.249 9.737,16.727 9.737,15.683 C9.737,15.683 9.737,13.843 9.737,13.843 ZM45.696,6.208 C46.416,6.208 46.923,6.565 46.923,7.279 C46.923,7.279 46.923,20.654 46.923,20.654 C46.923,21.396 46.416,21.753 45.696,21.753 C44.949,21.753 44.495,21.396 44.495,20.654 C44.495,20.654 44.495,7.279 44.495,7.279 C44.495,6.565 44.949,6.208 45.696,6.208 ZM137.301,6.208 C138.021,6.208 138.528,6.565 138.528,7.279 C138.528,7.279 138.528,20.654 138.528,20.654 C138.528,21.396 138.021,21.753 137.301,21.753 C136.554,21.753 136.100,21.396 136.100,20.654 C136.100,20.654 136.100,7.279 136.100,7.279 C136.100,6.565 136.554,6.208 137.301,6.208 Z"/></g></svg>