<svg id="Layer_1" xmlns="http://www.w3.org/2000/svg" viewBox="0 0 1190 191"><style>.st1{fill:#fefefe}</style><path d="M928.4 190.8h-17c-2.2-.7-4.4-1.5-6.6-2.1-9.7-2.6-18.1-7.7-24.7-15.2-6.7-7.6-12.6-15.9-18.8-23.9-2.1-2.7-4.3-5.2-6.5-7.8-.3.2-.6.3-.9.5.3 1.7.7 3.5 1.1 5.2 2.9 12.1 5.8 24.3 8.6 36.4 1 4.2.6 4.9-3.6 4.9-16.1.1-32.3 0-48.4 0-2.7 0-4.8-1-6.4-3.2-.9-1.2-1.7-2.5-2.7-3.6-1.4-1.5-3-2.9-4.5-4.3-.8 1.9-1.8 3.8-2.3 5.8-1.3 4.9-1.6 5.3-6.7 5.3-13 0-26-.1-38.9.1-3.9.1-6.7-1.2-8.9-4.3l-1.8-2.4c-4.8-6.1-9.6-12.1-14.4-18.2-1 1.9-1.2 3.5-1.2 5 0 5.2-.1 10.3 0 15.5 0 2.9-1.2 4.4-4.2 4.3h-2.5c-97 0-194 0-290.9.1-4.5 0-7.4-1.7-10-5.2-6-8-12.2-15.8-18.4-23.6-.7-.8-1.6-1.4-3.1-2.7-.1 2.4-.3 4-.3 5.6v19c0 6.7-.1 6.8-7.1 6.9h-71.4c-12.7 0-9.4 1.2-16.8-8.2-3.1-3.9-3-3.9-7-1.2-9.2 6.1-19.2 9.6-30.5 9.4-12.1-.2-24.3 0-36.4-.1-12-.1-11.3 1.4-17.7-8.4-1.5-2.3-3.1-2.4-5.4-.7-6.3 4.8-13.4 8.1-21.1 9.8-1.1.2-2.2.8-3.2 1.2h-17c-.4-.2-.9-.6-1.3-.7-13.5-2.6-24.8-9.1-33.4-20-1.5-1.9-2.7-1.5-4 0-1.8 2-3.3 4.2-5.3 5.9-7.4 6.6-15.8 11.4-25.7 13.5-1.1.2-2.2.8-3.2 1.2h-17c-.9-.3-1.8-.8-2.8-1-14.1-3.1-25.2-10.5-33.8-22.1-6.6-8.9-13.5-17.7-20.5-26.3C5.2 130.6.9 118.6 1 104.9c0-15.9-.1-32 0-48.1 0-4.3.2-8.7 1-12.9C5.9 24.6 17 11 35.5 3.8c3.7-1.4 7.6-2.4 11.3-3.6h17c.6.2 1.2.7 1.8.8 12.8 2.9 23.9 8.8 32 19.4 1.8 2.3 3.2 1.9 5-.4 6.5-8 14.7-13.8 24.6-17.1 3.1-1.1 6.3-1.9 9.5-2.8h17c1.2.5 2.4 1.1 3.7 1.4 7.4 1.7 14.1 5 20.3 9.3 3.2 2.3 3.6 2 4-1.9.6-6.5.8-6.8 7.6-6.8 15.8 0 31.6.1 47.4 0 11.5-.1 22 3 31.4 9.7 1.4 1 3.1 1.5 4.7 2.2.2-1.6.5-3.2.7-4.8v-1c.1-5.6.4-6 6-6 25.8 0 51.6.1 77.3-.1 4.1 0 6.9 1.5 9.3 4.6 6.1 8.1 12.4 16 18.7 24 .7.9 1.8 1.5 3.3 2.9.1-2.7.3-4.3.3-5.9V8.2c0-5.6.4-6 5.9-6 13.5 0 27 .2 40.4-.1 5.1-.1 8.4 1.9 11.3 5.7 5.8 7.7 11.7 15.3 17.6 22.9 1 1.2 2.2 2.3 4.1 4.3.2-2.8.4-4.4.4-6V8c0-5.6.4-5.9 6-6h204.1c3 0 6 .1 9 0 3.3-.2 5.7 1.3 7.7 3.8 8.6 11 17.1 22.1 25.8 33 2.3 2.9 3.1 6 3.1 9.7-.1 11.5-.1 23 0 34.4 0 1.4.2 2.8.3 4.2 1.2-1.5 1.7-3 2.1-4.6 6-24.7 12.1-49.4 18.1-74.1 1.5-6 1.7-6.3 8.1-6.3 13.8 0 27.6.1 41.4-.1 3.8 0 6.5.9 8.9 4.2 7.7 10.2 15.8 20.1 23.5 30.3 2.1 2.8 3.8 6.3 4.7 9.7 3.2 12.2 6 24.6 8.9 36.8.3 1.1.7 2.1 1 3.1.9-1.9.8-3.7.9-5.4.3-11 .4-21.9 1-32.9.8-13.1 6.7-24 15.9-32.9 6.7-6.6 14.9-11.1 24.2-13.2 1.6-.4 3.1-1.1 4.7-1.6h17c.8.3 1.5.8 2.3.9 8.3 1.6 15.8 5.1 22.6 10 1 .7 2.2 1.3 3.3 1.9.3-.6.6-.9.6-1.2.1-1.7.1-3.3.2-5 .2-4 .7-4.5 4.8-4.7h95.3c10.5 0 19.9 3.2 28.6 9 1.6 1.1 3.4 1.9 5 2.8.3-2 .9-4.1 1-6.1.2-5.1.6-5.6 5.4-5.6 14.6-.1 29.3 0 43.9 0 2.7 0 4.7.8 6.4 3 8.7 11.3 17.6 22.6 26.4 33.8 2.1 2.6 2.9 5.5 2.8 8.8-.1 6.8 0 13.6 0 20.5v24.5c0 1.9-.2 3.8 2 5.2 2.4 1.6 4.8 3.5 6.6 5.7 8.1 10.1 16 20.4 24 30.6 2.3 2.9 3.4 5.9 3.3 9.6-.1 12.3 0 24.6-.1 36.9 0 8.2 0 8.2-8.3 8.2-67.9 0-135.8-.1-203.6.1-7.8 0-14.5-.5-18.4-8.3-1.3-2.5-3.1-2.2-5.3-.8-4.5 2.7-9.2 5.4-14 7.5-3.4 1.5-7.2 2.3-10.9 3.4zM434.2 113c-.4-2.2-1.1-4.5-1.1-6.7-.1-26.8 0-53.5-.1-80.3 0-1.5-.1-3 0-4.5.1-2.9-1.1-4.3-4.1-4.3-6.8.1-13.6.1-20.5 0-2.9 0-4.3 1.2-4.2 4.2v121.7c6.9 9 13.9 17.9 20.6 27 2.2 3 4.8 4 8.5 3.9 17.6-.2 35.3-.1 52.9-.1 7.2 0 7.2 0 7.3-7.5 0-3.2.1-6.3.2-9.5.4-.1.8-.1 1.2-.2 3.5 4.8 7.2 9.5 10.6 14.4 1.4 2 3 2.8 5.4 2.8 7.2-.1 14.3 0 21.5 0 4.6 0 4.7-.1 4.7-4.8.1-4 0-8.1 0-12.1 1.9.8 2.8 1.7 3.6 2.7 2.8 3.7 5.6 7.4 8.2 11.3 1.5 2.1 3.2 3 5.8 3 7.2-.1 14.3 0 21.5-.1 4.5 0 4.6-.2 4.7-4.9.1-5 0-10 0-15 0-1 .4-2 .7-3.8 5.3 6.9 10.3 12.9 14.8 19.3 2.4 3.4 5.1 4.5 9.2 4.5 31.9-.1 63.9-.1 95.8-.1 1 0 2-.1 3 0 2.5.1 3.7-1 3.6-3.5 0-4.3-.4-8.7.1-13 1.3-9.9-1.7-17.9-9-24.5-2.5-2.3-3.2-5.3-3.1-8.6.1-7-.3-14 .1-21 .3-5.3-1.1-9.7-4.9-13.5-2.5-2.4-4.5-5.3-6.6-8.1-.8-1-1.3-2.1-2.4-3.8 7.6 0 14.4.1 21.2 0 4.2 0 4.5-.3 4.6-4.6.1-7.5 0-15 0-22.5 0-1.1.1-2.6-.5-3.4-6.9-9.1-13.9-18.2-21.1-27.2-1.3-1.6-1.9.1-2.5 1-.1-4-2.8-4.2-5.9-4.2-17 .1-33.9 0-50.9 0-8.2 0-8.2 0-8.2 8.2 0 39.1 0 78.2.1 117.3-.3-2.1-.8-4.2-.8-6.3 0-32.2 0-64.5-.1-96.7 0-2.4-.2-5.1-1.4-7.1-2.5-4.3-5.6-8.2-8.5-12.3-.8-1.2-1.7-2.1-3.2-1-1.6-.7-3.1-1.9-4.7-2-6.5-.2-12.9 0-19.4-.2-3.6-.1-5.5 1.5-6.7 4.7-1.6 4.2-3.4 8.3-5.1 12.4-2.8-5.8-7.4-10.2-11.7-16.1-.3 2-.4 2.6-.4 3.2v37.7c0 1.3.5 2.5.8 3.8-.5.2-1 .4-1.4.7-.1-1.5-.4-3-.4-4.4V23c0-5.5-.4-5.9-6-5.9-6 0-12-.1-18 0-4.3.1-4.8.7-4.9 5-.1 4.7 0 9.3-.1 14-1.7-2.2-3.3-4.5-5.1-6.7-2.9-3.8-5.9-7.5-8.8-11.2-.3-.2-.6-.5-.9-.5-8.4-.2-16.9-.4-25.3-.3-.9 0-2.2 1.7-2.7 2.9-.5 1.1-.2 2.6-.2 3.9v118.5c-.3-.9-1.1-1.8-.9-2.7 1.1-6.6-2-11.5-5.9-16.2-1.6-1.9-2.9-4-4.4-6-.6-.8-1.5-1.4-3.1-2.9 0 7.9.1 14.6 0 21.4 0 2.1-.5 4.2-.8 6.3 0-8.4 0-16.8-.1-25.2 0-3.7-.7-4.3-4.3-4.4-2.5-.1-4.9 0-7.4 0 .1-20.9.2-41.9.1-62.8 0-1.9-1.2-4.1-2.5-5.7-5.5-7.3-11.2-14.5-16.8-21.6-.9-1.1-1.9-2.1-3.8-4-.1 2.9-.3 4.7-.3 6.4v82.8c.2 1.6.4 3.2.4 4.9zm680-.1c-.4-2.2-1.1-4.5-1.1-6.7-.1-27.1 0-54.2-.1-81.4 0-1.5 0-3-.1-4.5-.1-2-1.2-3.1-3.2-3.1h-22.5c-2 0-3 1.2-3.1 3.2-.1 1.5-.1 3-.1 4.5-.1 11.5-.2 23-.2 34.4-1.3-1.5-2.6-2.9-3.9-4.4-4.5-5.4-8.9-10.9-13.4-16.3-1.1-1.4-2.2-2.9-3.4-4.3-2.1-2.5-4.1-5.2-6.5-7.5-8-7.6-18.2-9.3-28.6-9.7-9.6-.3-19.3-.1-28.9-.1-5.6 0-6 .4-6 6v119.7c-.4-2-1-4.1-1-6.1-.1-31.7 0-63.5-.1-95.2 0-2 .4-4.4-.6-5.8-4.1-6-8.7-11.6-13.1-17.4-1.9-.4-3.8-1-5.7-1.1-5.6-.1-11.3-.1-16.9 0-6.2 0-6.4.2-6.4 6.5v5.5c0 37.9 0 75.7.1 113.6-.3-2.1-.8-4.2-.8-6.3-.1-24.5 0-49.1-.1-73.6 0-2.4-.4-5.2-1.7-7-5.2-7.1-10.8-13.8-16.2-20.7-1.2-1.4-2.3-2.8-3.6-4.1-2.1-2.3-4.1-4.8-6.5-6.8-8.8-7.6-19.4-9.3-30.5-7.8-9.5 1.3-17.6 5.5-23.8 13.2-5.9 7.4-8.5 15.8-8.7 25-.3 16.3-.1 32.6-.1 48.9 0 13.4 4.4 24.7 15 33.3.5 1.4.7 3 1.6 4.2 4.7 6.2 9.8 12.2 14.3 18.5 15.7 22.2 52 21.5 65.9-3.8 1.9-3.4 2.1-3.4 4.7-.1 3.7 4.7 7.4 9.4 10.9 14.3 2 2.8 4.3 4.1 7.9 4 6.3-.3 12.6-.1 19-.1 5.8 0 5.8 0 5.8-5.8 0-3.7.1-7.4.1-11.1 1.9.8 2.8 1.8 3.5 2.8 2.8 3.7 5.5 7.5 8.2 11.3 1.2 1.7 2.5 2.9 4.8 2.9 7.8-.1 15.6-.1 23.4 0 2.5 0 3.6-1 3.5-3.5-.1-3.3 0-6.7 0-10v-8.2c.4-.1.7-.2 1.1-.2 4.8 6.1 9.7 12.1 14.3 18.4 1.9 2.5 3.9 3.7 7.1 3.6 5.5-.2 11 0 16.5-.1 10.2-.1 8.8 1.3 9-9.1 0-2.6.2-5.3.3-7.9 4.5 4.6 8 9.2 11.3 13.9 1.5 2.1 3.2 3.1 5.8 3.1 19.3-.1 38.6 0 57.9-.1 4 0 4.3-.3 4.3-4.2.1-7.5.2-15-.1-22.4-.1-2.1-1.1-4.5-2.4-6.3-5.7-7.6-11.6-15-17.4-22.4-.9-1.2-2-2.3-3-3.4-.9 7.8-.8 15.1-.9 22.4 0 1.8-.6 3.5-.9 5.2v-24.9c0-4.1-.6-4.6-4.6-4.8-2.2-.1-4.3-.1-6.5-.2 0-19.6-.1-39.2.1-58.8 0-4-.9-7.3-3.6-10.5-5.5-6.6-10.7-13.6-16-20.4-1.1-1.4-2.3-2.7-4.1-4.8-.1 2.6-.3 4.2-.3 5.8V58c.2 18.4.2 36.7.3 54.9zm-1084.3 23c.1.5 0 1.1.2 1.4 7 8.9 13.4 18.2 21.1 26.4 11.5 12.2 26.1 14.7 41.6 9.3 15.5-5.5 23.3-17.2 24.9-33.4.1-1.3.7-2.5 1-3.7h-.1c7.3 9.3 14.1 19 22.1 27.7 17.8 19.1 49.2 15 62.1-7.7.6-1 1.2-1.9 2-3.3 1.3 1.5 2.4 2.7 3.4 3.9 3.7 4.7 7.3 9.5 10.9 14.3 1.5 2 3.1 3.2 5.8 3.2 12.5-.1 25 .3 37.4-.2 13.5-.6 24.2-6.6 31.3-18.4.7-1.1 1.5-2.1 2.6-3.6 2.9 3.8 5.5 7.2 8.1 10.6 2.9 3.7 5 8.7 8.8 10.6 3.9 1.9 9.4.9 14.2.9 15.3.1 30.6 0 45.9 0 5.2 0 5.2-.1 5.3-5.4 0-3.5-.4-7 .1-10.5 1.4-10.1-1.4-18.6-9.1-25.4-2.4-2.1-3-4.9-3-8.1.1-7-.3-14 .1-20.9.3-5.5-1.2-9.9-5-13.9-3.2-3.3-5.8-7.1-9.3-11.4 2.7-.1 4.3-.2 5.9-.3h15.5c4.5-.1 4.7-.2 4.7-4.4.1-7.6.1-15.3 0-22.9 0-1.6-.5-3.4-1.4-4.6-6.8-8.8-13.7-17.6-20.6-26.3-.5-.6-1.3-1-2-1.4-1.9-.4-3.8-1.1-5.8-1.1-17.8-.1-35.5-.1-53.3 0-5.6 0-5.9.4-6 6v5.5c0 38 0 76 .1 114.1-.3-2.1-.8-4.2-.8-6.3-.1-23.9 0-47.7 0-71.6 0-2.8-.1-5.5-2-8-4.3-5.2-8.4-10.7-12.7-16-.6-.8-1.7-1.2-2.6-1.8-.5-.7-1-1.3-1.4-2-4.5-8-10.6-14.2-19.5-16.8-5.5-1.7-11.3-2.7-17.1-3-10-.5-19.9-.2-29.9-.1-5.5 0-5.9.4-5.9 6v34.9c-1.5-1.9-3.1-3.9-4.6-5.8-4.5-5.4-8.9-10.9-13.4-16.3-.8-1-1.6-2.1-2.4-3.2-4.1-5.5-8.8-10.3-15.2-13.2-6.1-2.8-12.3-3.7-18.9-3.6-19.9.3-36.1 16.3-36.2 36.3-.1 12.8-.1 25.6 0 38.4 0 10.1-.8 20.3 1.9 30.2-2.4-2.9-4.8-5.8-7.3-8.7-2.5-2.8-5-5.6-7.6-8.3-1.9-.4-3.8-1-5.7-1-6.1-.2-12.2-.1-18.4-.1.1-5.5-.1-11 .4-16.4.2-2.5 1-5.3 2.4-7.3 2.7-3.7 6.6-3.7 8.8.2 4.2 7.6 10.4 10 18.5 8.7.8-.1 1.7-.1 2.5 0 2.6.2 3.5-1.2 3.4-3.6-.1-3.5 0-7 0-10.5-.1-6.1 1.3-12.9-.7-18.3-2.4-6.1-7.9-11-12.1-16.3-.5-.6-1.5-.8-2.3-1.2-.8-1.3-1.6-2.5-2.4-3.8-3.9-5.9-8.6-11-15-14.2-6.3-3.3-13.1-4.2-20.2-4.1-19.6.3-36 16.4-36.1 35.9-.1 18.6 0 37.2 0 55.8 0 5.4 1 10.7 3.7 15.3 2.7 4.5 6.2 8.5 9.3 12.8zm698.9 7.1c0 .2 0 .4.1.5 7.4 9.6 14.7 19.3 22.2 28.8.8 1 2.6 1.5 3.9 1.5 7.8.1 15.6 0 23.4.1 2.6 0 4-.8 4.5-3.5.4-2.3.9-4.6 1.7-6.7.4-1 1.6-2.5 2.4-2.5 9.8-.2 20.7-3.2 25.9 9.3.1.3.3.6.6.8 1.7.9 3.3 2.4 5 2.5 7.6.3 15.3.2 22.9.1 3.5 0 3.6-.3 3-3.9-.1-.7-.3-1.3-.5-1.9-8.5-36-17.3-72-25.5-108.1-1.9-8.2-4.8-15.3-10.4-21.6-5.7-6.5-10.9-13.3-16.4-20-1.9-.4-3.8-1.1-5.7-1.1-6.1-.1-12.3-.1-18.4-.1-10.2 0-9-.7-11.4 9-7.9 32.8-15.6 65.6-23.4 98.4-1.3 6.1-2.6 12.2-3.9 18.4z" fill="#bcbcbc"/><path d="M605 19.2c1.5-1.1 2.4-.2 3.2 1 2.9 4.1 6 8 8.5 12.3 1.2 2 1.4 4.7 1.4 7.1.1 32.2 0 64.5.1 96.7 0 2.1.5 4.2.8 6.3l61.8.3c2.8 0 3.3-1.4 3.3-3.7v-20.9c0-5.2-.1-5.3-5.2-5.3h-26.4c-4.1 0-4.1-.1-4.2-4.2-.1-3.2-.1-6.3 0-9.5.1-4.2.1-4.2 4.2-4.3 5.3-.1 10.6-.1 16 0 2.8.1 3.9-1 3.8-3.7-.1-7.3 0-14.6-.1-21.9 0-4-.2-4.1-4.3-4.2-5.2-.1-10.3-.1-15.5 0-2.9.1-4.3-.8-4.2-4 .2-3.3 0-6.6.1-10 .1-4.1.2-4.1 4.3-4.2 9-.1 17.9 0 26.9 0 4.6 0 4.7-.1 4.7-4.8 0-7-.1-14-.1-20.9.6-.9 1.2-2.6 2.5-1 7.1 9 14.1 18.1 21.1 27.2.6.8.5 2.2.5 3.4 0 7.5.1 15 0 22.5 0 4.3-.3 4.6-4.6 4.6-6.8.1-13.6 0-21.2 0 1 1.7 1.6 2.8 2.4 3.8 2.2 2.7 4.2 5.6 6.6 8.1 3.8 3.8 5.2 8.1 4.9 13.5-.4 7 0 14-.1 21 0 3.3.6 6.3 3.1 8.6 7.3 6.6 10.3 14.6 9 24.5-.6 4.2-.2 8.6-.1 13 0 2.5-1.1 3.7-3.6 3.5-1-.1-2 0-3 0-31.9 0-63.9-.1-95.8.1-4.1 0-6.8-1.1-9.2-4.5-4.5-6.4-9.4-12.4-14.8-19.3-.4 1.8-.7 2.8-.7 3.8-.1 5 0 10 0 15-.1 4.7-.2 4.9-4.7 4.9-7.2.1-14.3-.1-21.5.1-2.6 0-4.4-.8-5.8-3-2.6-3.8-5.5-7.5-8.2-11.3-.8-1-1.7-1.9-3.6-2.7v12.1c-.1 4.7-.1 4.8-4.7 4.8-7.2.1-14.3-.1-21.5 0-2.4 0-4-.8-5.4-2.8-3.4-4.9-7-9.6-10.6-14.4-.4.1-.8.1-1.2.2-.1 3.2-.2 6.3-.2 9.5 0 7.4 0 7.5-7.3 7.5-17.6 0-35.3-.1-52.9.1-3.7 0-6.2-.9-8.5-3.9-6.7-9.1-13.7-18-20.6-27 17.6 0 35.2 0 52.9-.1 4 0 8-.2 11.9-.3.3-2.1.7-4.2.8-6.3.1-6.8 0-13.5 0-21.4 1.6 1.5 2.5 2.1 3.1 2.9 1.5 2 2.8 4.1 4.4 6 3.9 4.7 7 9.6 5.9 16.2-.1.8.6 1.8.9 2.7 7 .1 13.9.2 20.9.2 9.2 0 8 1.1 8-7.8.1-39 0-78 0-116.9 2.9 3.7 5.9 7.5 8.8 11.2 1.7 2.2 3.4 4.5 5.1 6.7V138c0 5.1 0 5.1 5.3 5.1h19.4c5 0 5-.1 5-4.9v-34.9c0-1.6.1-3.1.2-4.7 1.4 1.3 2.1 2.8 2.7 4.3 4.9 12.2 9.7 24.4 14.6 36.6.7 1.8 1.3 3.7 4 3.7 9-.1 17.9 0 27.5 0-.9-2.6-1.6-4.5-2.4-6.5-6.9-17.3-13.7-34.6-20.7-51.8-1.3-3.1-1.6-5.8-.1-9 1.9-3.9 3.3-8 4.8-12 6-15 11.8-29.8 17.6-44.7zM1149 142.7c.3-1.7.9-3.5.9-5.2.1-7.3 0-14.6.9-22.4 1 1.1 2.1 2.2 3 3.4 5.9 7.5 11.8 14.9 17.4 22.4 1.3 1.7 2.3 4.1 2.4 6.3.3 7.5.2 15 .1 22.4 0 4-.3 4.2-4.3 4.2-19.3 0-38.6 0-57.9.1-2.6 0-4.3-1-5.8-3.1-3.3-4.7-6.8-9.4-11.3-13.9-.1 2.6-.2 5.3-.3 7.9-.2 10.4 1.2 8.9-9 9.1-5.5.1-11-.1-16.5.1-3.2.1-5.2-1.1-7.1-3.6-4.6-6.2-9.5-12.3-14.3-18.4-.4.1-.7.2-1.1.2v8.2c0 3.3-.1 6.7 0 10 .1 2.5-1 3.6-3.5 3.5-7.8-.1-15.6-.1-23.4 0-2.3 0-3.6-1.2-4.8-2.9-2.7-3.8-5.4-7.5-8.2-11.3-.8-1-1.7-2-3.5-2.8 0 3.7-.1 7.4-.1 11.1-.1 5.8-.1 5.8-5.8 5.8-6.3 0-12.6-.2-19 .1-3.6.1-5.9-1.2-7.9-4-3.5-4.9-7.2-9.6-10.9-14.3-2.6-3.3-2.8-3.3-4.7.1-13.8 25.3-50.2 25.9-65.9 3.8-4.5-6.4-9.6-12.3-14.3-18.5-.9-1.1-1.1-2.8-1.6-4.2 5.7 4.7 12.5 6.8 19.7 7.6 20.4 2.5 40.2-12.3 42-32.4 1.2-13 .5-26.3.7-39.4 0-2.5-1-3.6-3.6-3.5-11.1.1-22.3.1-33.4 0-2.6 0-3.5 1.1-3.4 3.6.1 6.3 0 12.6 0 19 0 7 0 7 7.1 7.3.7 0 1.4-.1 2 .1s1.2.6 1.5 1.1c2.1 4.1-.9 11.9-5.2 13.7-6 2.5-12.2-1.2-12.4-7.9-.3-7.6-.1-15.3-.1-23V54.6c0-3.9 1.5-6.8 5.1-8.4 5.7-2.6 11.7.5 12.7 7 .5 3.3 1.8 4.1 4.8 4 7-.1 14 0 21-.1 4.1 0 4.1-.2 4.1-4.3 0-6.3-2.1-12.1-4.2-17.8 5.5 6.9 11.1 13.6 16.2 20.7 1.3 1.8 1.7 4.6 1.7 7 .1 24.5.1 49.1.1 73.6 0 2.1.5 4.2.8 6.3l24.4.3c4.6 0 4.7-.1 4.7-4.7V18.3c4.4 5.8 9 11.4 13.1 17.4 1 1.4.6 3.9.6 5.8 0 31.7 0 63.5.1 95.2 0 2 .7 4.1 1 6.1 8.1.1 16.3.2 24.4.1 4.4 0 4.4-.1 4.5-4.4v-36.9c0-7.3-.8-6.6 6.8-6.6 8.3 0 11.2 2.9 11.2 11.1v32.4c0 4.3.1 4.4 4.5 4.4 7 .1 14 .1 21 0 4.3 0 4.4-.1 4.4-4.5 0-11.6.1-23.3 0-34.9-.1-7.3-1.8-14.2-5.9-20.3-1.5-2.3-1.4-3.9 0-6.2 5.5-9 7.2-18.8 4.9-29.2-.7-3.1-1.7-6.1-2.5-9.1 4.5 5.4 8.9 10.9 13.4 16.3 1.2 1.5 2.6 3 3.9 4.4 0 2.2.1 4.3.1 6.5v70.8c0 6.8-.4 6.3 6.1 6.3h37.4c6.9-.1 14.1-.2 21.2-.3zM271.4 39.1c.9.6 2 1 2.6 1.8 4.3 5.3 8.3 10.7 12.7 16 2 2.4 2 5.1 2 8v71.6c0 2.1.5 4.2.8 6.3l61.8.3c2.8 0 3.3-1.5 3.3-3.8v-20.9c0-5.2-.1-5.3-5.2-5.3H323c-4.1 0-4.1-.1-4.2-4.3-.1-3.3.1-6.6 0-10-.1-2.7.9-3.9 3.7-3.8 5.5.2 11-.1 16.4.1 2.8.1 3.8-1.1 3.8-3.8-.1-7.3 0-14.6-.1-21.9 0-4-.2-4.1-4.4-4.1-5.3-.1-10.6-.1-15.9 0-2.5 0-3.6-.9-3.6-3.5.1-3.5-.1-7 0-10.5.1-4 .2-4.1 4.4-4.1 9-.1 17.9 0 26.9 0 4.4 0 4.5-.1 4.6-4.4V18.4c.7.5 1.5.8 2 1.4 6.9 8.7 13.8 17.5 20.6 26.3.9 1.2 1.4 3.1 1.4 4.6.1 7.6.1 15.3 0 22.9-.1 4.2-.3 4.3-4.7 4.4-5.2.1-10.3 0-15.5 0-1.6 0-3.2.1-5.9.3 3.4 4.3 6.1 8.1 9.3 11.4 3.9 4 5.4 8.4 5 13.9-.4 7 0 14-.1 20.9-.1 3.2.5 6 3 8.1 7.7 6.8 10.5 15.3 9.1 25.4-.5 3.4 0 7-.1 10.5-.1 5.3-.1 5.4-5.3 5.4-15.3 0-30.6.1-45.9 0-4.8 0-10.3 1-14.2-.9-3.8-1.9-5.9-6.9-8.8-10.6-2.6-3.4-5.2-6.8-8.1-10.6-1.1 1.5-1.9 2.5-2.6 3.6-7.2 11.7-17.8 17.8-31.3 18.4-12.4.5-24.9.1-37.4.2-2.7 0-4.3-1.2-5.8-3.2-3.6-4.8-7.2-9.5-10.9-14.3-1-1.3-2.1-2.4-3.4-3.9-.8 1.4-1.5 2.3-2 3.3-12.9 22.7-44.3 26.8-62.1 7.7-8-8.6-14.7-18.4-22.1-27.7 1.1.7 2.3 1.3 3.4 2 13.5 8.6 27.5 9.6 41.6 2.2 13.8-7.3 19.9-19.5 19.9-34.8.1-16.1-.1-32.2.1-48.3.1-7.3-1.2-14.2-4.2-20.8 4.5 5.4 9 10.8 13.4 16.3 1.6 1.9 3.1 3.8 4.6 5.8v79.2c0 5.6 0 5.6 5.8 5.6h33.9c2.1 0 4.3-.1 6.4-.6 19.2-3.8 31.3-18.4 31.5-38.6.2-15.8.1-31.6 0-47.3 0-6.2-1.1-12-3.8-17.5z"/><path class="st1" d="M1066.7 38.6c.8 3 1.8 6 2.5 9.1 2.3 10.4.6 20.2-4.9 29.2-1.4 2.3-1.6 3.9 0 6.2 4.1 6.1 5.8 13 5.9 20.3.1 11.6.1 23.3 0 34.9 0 4.4-.1 4.5-4.4 4.5-7 .1-14 .1-21 0-4.4 0-4.5-.1-4.5-4.4V106c0-8.2-2.9-11.1-11.2-11.1-7.6 0-6.8-.7-6.8 6.6v36.9c0 4.4-.1 4.4-4.5 4.4-8.1 0-16.3-.1-24.4-.1V23c0-5.6.4-5.9 6-6 9.6 0 19.3-.3 28.9.1 10.4.4 20.6 2.1 28.6 9.7 2.4 2.3 4.4 4.9 6.5 7.5 1.1 1.4 2.2 2.9 3.3 4.3zm-44.4 17.5c0 2 .1 4 0 6s.6 3.2 2.8 3.1c2.5-.1 5 .1 7.5-.1 4.1-.4 7-3.3 7.6-7.3.8-5.8-2.9-10.4-9.1-10.5-10.8-.2-8.6-.9-8.8 7.9v.9zM271.4 39.1c2.7 5.5 3.8 11.3 3.8 17.4.1 15.8.2 31.6 0 47.3-.3 20.2-12.3 34.8-31.5 38.6-2.1.4-4.3.5-6.4.6-11.3.1-22.6 0-33.9 0-5.7 0-5.8 0-5.8-5.6V58.2 23.3c0-5.6.4-6 5.9-6 10 0 20-.4 29.9.1 5.7.3 11.6 1.3 17.1 3 8.8 2.7 15 8.9 19.5 16.8.4.6 1 1.2 1.4 1.9zm-44 40.7c0 8.3-.1 16.6 0 24.9.1 9.1-1.6 8.3 8.7 8.2 5.7-.1 9.2-3.2 9.3-8.9.2-16 .2-31.9 0-47.9-.1-5.6-3.6-8.7-9.3-9.1-1.5-.1-3-.1-4.5 0-4.1.1-4.2.1-4.2 4.3v28.5zM930.6 35.2c2.2 5.8 4.2 11.5 4.2 17.8 0 4.1 0 4.2-4.1 4.3-7 .1-14-.1-21 .1-3 .1-4.3-.7-4.8-4-1-6.5-6.9-9.6-12.7-7-3.6 1.6-5.1 4.6-5.1 8.4v28.4c0 7.7-.2 15.3.1 23 .2 6.6 6.4 10.3 12.4 7.9 4.4-1.8 7.4-9.6 5.2-13.7-.3-.5-.9-.9-1.5-1.1s-1.3-.1-2-.1c-7.1-.4-7.1-.4-7.1-7.3 0-6.3.1-12.6 0-19 0-2.5.8-3.6 3.4-3.6 11.1.1 22.3.1 33.4 0 2.6 0 3.6 1.1 3.6 3.5-.2 13.1.5 26.3-.7 39.4-1.8 20.1-21.6 34.9-42 32.4-7.2-.9-14-2.9-19.7-7.6-10.6-8.6-15-20-15-33.3 0-16.3-.2-32.6.1-48.9.1-9.2 2.8-17.6 8.7-25 6.2-7.7 14.3-12 23.8-13.2 11.1-1.5 21.6.2 30.5 7.8 2.4 2 4.4 4.5 6.5 6.8 1.5 1.2 2.6 2.6 3.8 4zM179.6 36.1c3 6.6 4.2 13.5 4.2 20.8-.2 16.1 0 32.2-.1 48.3-.1 15.3-6.1 27.6-19.9 34.8-14.1 7.4-28.1 6.4-41.6-2.2-1.1-.7-2.3-1.3-3.4-2h.1c-3.4-4.9-6.7-9.9-10.1-14.8-2.7-9.9-1.9-20.1-1.9-30.2 0-12.8-.1-25.6 0-38.4.1-20 16.3-36.1 36.2-36.3 6.6-.1 12.9.8 18.9 3.6 6.4 2.9 11.1 7.7 15.2 13.2.7 1.1 1.5 2.1 2.4 3.2zm-25.8 44.4V54.6c0-.3 0-.7-.1-1-.5-4.8-3.8-7.9-8.5-8.1-4.4-.2-8.1 2.5-9.1 6.9-.3 1.3-.3 2.6-.3 4v47.8c0 1.5.1 3 .6 4.4 1.8 5.8 8.8 8.1 13.7 4.6 2.9-2 3.7-4.9 3.7-8.2V80.5zM605 19.2c-5.8 14.8-11.7 29.7-17.5 44.5-1.6 4-3 8.1-4.8 12-1.5 3.1-1.2 5.8.1 9 7 17.2 13.8 34.5 20.7 51.8.8 2 1.5 3.9 2.4 6.5-9.6 0-18.6-.1-27.5 0-2.7 0-3.2-1.9-4-3.7-4.9-12.2-9.7-24.4-14.6-36.6-.6-1.5-1.3-2.9-2.7-4.3-.1 1.6-.2 3.1-.2 4.7V138c0 4.9-.1 4.9-5 4.9h-19.4c-5.2 0-5.3 0-5.3-5.1v-30.9-70.8c0-4.7 0-9.3.1-14 .1-4.3.6-4.9 4.9-5 6-.1 12-.1 18 0 5.6 0 6 .4 6 5.9v35.9c0 1.5.3 3 .4 4.4.5-.2 1-.4 1.4-.7 3.8-9.5 7.5-19.1 11.3-28.6 1.7-4.1 3.5-8.2 5.1-12.4 1.2-3.2 3.1-4.8 6.7-4.7 6.5.2 12.9-.1 19.4.2 1.4.2 3 1.4 4.5 2.1zM728.8 143c1.4-6.2 2.6-12.3 4.1-18.5 7.8-32.8 15.5-65.6 23.4-98.4 2.3-9.7 1.1-9 11.4-9 6.1 0 12.3-.1 18.4.1 1.9 0 3.8.7 5.7 1.1 9.8 41.3 19.6 82.6 29.5 124.2-1.6.2-2.5.4-3.5.4-7.5 0-15-.1-22.4.1-3.2.1-4.5-1.2-4.9-4.2-.2-1.8-.9-3.5-1.2-5.3-.4-2.6-1.9-3.5-4.5-3.4-4.8.2-9.6 0-14.5 0-8.9 0-9.1 0-11.1 8.8-.8 3.4-2.4 4.1-5.5 4.1-8.3-.1-16.6 0-24.9 0zm46.6-67.7c-.4 0-.8.1-1.2.1-1.8 7.6-3.6 15.1-5.4 22.7-.5 2 .2 3.2 2.5 3.3h7c2.6.1 3.1-1.2 2.5-3.4-1.9-7.6-3.6-15.2-5.4-22.7zM354.5 18.3c0 8.1.1 16.3 0 24.4 0 4.3-.1 4.4-4.6 4.4H323c-4.2 0-4.3.1-4.4 4.1-.1 3.5.1 7 0 10.5-.1 2.6 1 3.5 3.6 3.5 5.3-.1 10.6-.1 15.9 0 4.2.1 4.3.2 4.4 4.1.1 7.3 0 14.6.1 21.9 0 2.7-.9 3.9-3.8 3.8-5.5-.1-11 .1-16.4-.1-2.9-.1-3.8 1.1-3.7 3.8.1 3.3 0 6.6 0 10 .1 4.1.1 4.2 4.2 4.3 8.8.1 17.6 0 26.4 0 5.2 0 5.2 0 5.2 5.3v20.9c0 2.3-.5 3.8-3.3 3.8-20.6-.2-41.2-.2-61.8-.3 0-38 0-76-.1-114.1v-5.5c.1-5.6.4-6 6-6h53.3c2.1.1 4 .8 5.9 1.2zM684 21.3c0 7 .1 14 .1 20.9 0 4.7-.1 4.8-4.7 4.8h-26.9c-4.1 0-4.2.1-4.3 4.2-.1 3.3.1 6.7-.1 10-.2 3.1 1.2 4 4.2 4 5.1-.2 10.3-.1 15.5 0 4.1.1 4.3.2 4.3 4.2.1 7.3 0 14.6.1 21.9 0 2.8-1.1 3.8-3.8 3.7-5.3-.1-10.6-.1-16 0-4.1 0-4.1.1-4.2 4.3-.1 3.2-.1 6.3 0 9.5.1 4.1.1 4.2 4.2 4.2 8.8.1 17.6 0 26.4 0 5.2 0 5.2.1 5.2 5.3v20.9c0 2.3-.5 3.8-3.3 3.7-20.6-.2-41.2-.2-61.8-.3 0-39.1 0-78.2-.1-117.3 0-8.2 0-8.2 8.2-8.2h50.9c3.3 0 5.9.3 6.1 4.2zM69.7 102.9c6.1 0 12.2 0 18.4.1 1.9 0 3.8.7 5.7 1-.6 4.6-.5 9.3-1.8 13.7-7.7 26.3-39.9 35.6-62.2 18.1-3.1-4.2-6.6-8.3-9.3-12.8-2.7-4.6-3.7-9.9-3.7-15.3.1-18.6 0-37.2 0-55.8C17 32.5 33.4 16.4 53 16.1c7.1-.1 13.9.8 20.3 4.1s11.1 8.3 15 14.2c.8 1.2 1.6 2.5 2.4 3.8 1.1 4.7 2.5 9.3 3.1 14 .6 5 .2 5.1-4.7 5.1H69.2c-4.4 0-4.4-.1-5.2-4.5-1-5.2-5.5-8.2-10.7-7.1-4.7 1-7.2 4.4-7.2 10.4-.1 15.9 0 31.9 0 47.8 0 1.6.2 3.3.7 4.9 1.3 4 5.1 6.4 9.3 6 4-.4 7.1-3.1 7.9-7.1.8-4.7.8-4.7 5.7-4.8z"/><path d="M728.8 143c8.3 0 16.6-.1 24.9 0 3.1.1 4.7-.7 5.5-4.1 2-8.8 2.2-8.8 11.1-8.8 4.8 0 9.6.1 14.5 0 2.6-.1 4 .8 4.5 3.4.3 1.8 1 3.5 1.2 5.3.4 3 1.7 4.3 4.9 4.2 7.5-.2 15-.1 22.4-.1 1 0 1.9-.2 3.5-.4-9.9-41.6-19.7-82.9-29.5-124.2 5.4 6.7 10.7 13.5 16.4 20 5.5 6.3 8.5 13.4 10.4 21.6 8.3 36.1 17 72.1 25.5 108.1.2.6.3 1.3.5 1.9.6 3.6.5 3.8-3 3.9-7.6.1-15.3.2-22.9-.1-1.7-.1-3.4-1.6-5-2.5-.3-.1-.5-.5-.6-.8-5.2-12.5-16.1-9.5-25.9-9.3-.9 0-2 1.5-2.4 2.5-.8 2.2-1.4 4.5-1.7 6.7-.4 2.7-1.9 3.5-4.5 3.5-7.8-.1-15.6 0-23.4-.1-1.3 0-3.2-.6-3.9-1.5-7.5-9.5-14.8-19.2-22.2-28.8-.3-.1-.3-.3-.3-.4z"/><path class="st1" d="M1149 142.7c-7.1.1-14.3.2-21.4.2h-37.4c-6.5 0-6.1.5-6.1-6.3V65.8c0-2.2-.1-4.3-.1-6.5.1-11.5.1-23 .2-34.4 0-1.5 0-3 .1-4.5.1-2 1.1-3.2 3.1-3.2h22.5c2 0 3.1 1.1 3.2 3.1.1 1.5.1 3 .1 4.5 0 27.1 0 54.2.1 81.4 0 2.2.7 4.5 1.1 6.7 7.9 0 15.8-.1 23.7-.1 2.2.1 4.3.1 6.5.2 4 .2 4.6.7 4.6 4.8-.2 8.3-.2 16.6-.2 24.9zM469.1 142.7c-4 .1-8 .3-11.9.3-17.6.1-35.2.1-52.9.1V24.4c0-1 .1-2 0-3-.1-2.9 1.3-4.2 4.2-4.2 6.8.1 13.6.1 20.5 0 3 0 4.2 1.4 4.1 4.3-.1 1.5 0 3 0 4.5 0 26.8 0 53.5.1 80.3 0 2.2.7 4.5 1.1 6.7h23c2.5 0 4.9-.1 7.4 0 3.7.2 4.3.7 4.3 4.4.1 8.5.1 16.9.1 25.3zM978.5 18.3v119.9c0 4.7-.1 4.7-4.7 4.7-8.1 0-16.2-.2-24.4-.3 0-37.9 0-75.7-.1-113.6v-5.5c.1-6.3.2-6.5 6.4-6.5 5.6 0 11.3-.1 16.9 0 2.1.2 4 .9 5.9 1.3zM513.2 18.2v116.9c0 8.9 1.1 7.8-8 7.8-7 0-13.9-.1-20.9-.2V24.2c0-1.3-.3-2.8.2-3.9.5-1.2 1.7-2.9 2.7-2.9 8.4-.1 16.9.2 25.3.3.1.1.4.4.7.5z"/><path d="M29.9 135.9c22.2 17.5 54.5 8.2 62.2-18.1 1.3-4.4 1.2-9.1 1.8-13.7 2.5 2.8 5.1 5.5 7.6 8.3s4.9 5.8 7.3 8.7c3.4 4.9 6.7 9.9 10.1 14.8-.3 1.2-.9 2.4-1 3.7-1.6 16.2-9.4 28-24.9 33.4-15.5 5.5-30.1 2.9-41.6-9.3-7.7-8.2-14.1-17.5-21.1-26.4-.4-.3-.3-.9-.4-1.4zM69.7 102.9c-4.9.1-4.9.1-5.8 4.8-.8 4-3.9 6.7-7.9 7.1-4.2.4-8-2-9.3-6-.5-1.5-.7-3.2-.7-4.9 0-15.9-.1-31.9 0-47.8 0-6.1 2.5-9.5 7.2-10.4 5.2-1 9.7 1.9 10.7 7.1.9 4.4.9 4.4 5.2 4.5H89c4.8 0 5.2-.1 4.7-5.1-.5-4.7-2-9.3-3.1-14 .8.4 1.8.6 2.3 1.2 4.2 5.3 9.7 10.2 12.1 16.3 2.1 5.4.7 12.1.7 18.3 0 3.5-.1 7 0 10.5.1 2.4-.8 3.8-3.4 3.6-.8-.1-1.7-.1-2.5 0-8.1 1.3-14.3-1-18.5-8.7-2.2-4-6.1-3.9-8.8-.2-1.5 2-2.2 4.8-2.4 7.3-.4 5.4-.3 10.9-.4 16.4zM1137.9 112.8c-7.9 0-15.8.1-23.7.1-.1-18.3-.1-36.5-.2-54.8V24.2c0-1.6.1-3.2.3-5.8 1.8 2.1 3 3.4 4.1 4.8 5.3 6.8 10.5 13.8 16 20.4 2.6 3.2 3.6 6.4 3.6 10.5-.2 19.5-.1 39.1-.1 58.7zM457.3 113h-23c-.1-1.7-.3-3.3-.3-5V25.2c0-1.7.2-3.5.3-6.4 1.9 1.9 2.9 2.9 3.8 4 5.7 7.2 11.3 14.3 16.8 21.6 1.2 1.6 2.5 3.8 2.5 5.7.1 21-.1 42-.1 62.9zM569.2 34.2c-3.8 9.5-7.5 19.1-11.3 28.6-.3-1.3-.8-2.5-.8-3.8-.1-12.6 0-25.1 0-37.7 0-.6.2-1.3.4-3.2 4.3 5.9 8.9 10.3 11.7 16.1zM1022.3 56.1v-1c.3-8.8-2-8.1 8.8-7.9 6.2.1 9.9 4.7 9.1 10.5-.6 4-3.5 6.9-7.6 7.3-2.5.2-5 0-7.5.1-2.2.1-2.9-1.1-2.8-3.1v-5.9zM227.4 79.8V51.4c0-4.1.1-4.1 4.2-4.3 1.5 0 3-.1 4.5 0 5.6.3 9.2 3.5 9.3 9.1.2 16 .2 31.9 0 47.9-.1 5.7-3.6 8.8-9.3 8.9-10.3.1-8.5.9-8.7-8.2-.1-8.4 0-16.7 0-25zM153.8 80.5v24.4c0 3.3-.9 6.2-3.7 8.2-5 3.5-11.9 1.2-13.7-4.6-.4-1.4-.6-2.9-.6-4.4V56.3c0-1.3 0-2.7.3-4 1.1-4.4 4.7-7.1 9.1-6.9 4.7.2 8 3.3 8.5 8.1 0 .3.1.7.1 1v26zM775.4 75.3c1.8 7.5 3.5 15.1 5.4 22.6.5 2.2.1 3.5-2.5 3.4-2.3-.1-4.6 0-7 0-2.2 0-2.9-1.2-2.5-3.3 1.8-7.6 3.6-15.1 5.4-22.7h1.2z"/></svg>