<svg xmlns="http://www.w3.org/2000/svg" viewBox="0 0 390 82"><style>.st0{fill:#000}</style><path class="st0" d="M113.8 32.4c-10.9 0-17.3 19-17.3 31.1 0 7.5 3.2 11.3 9 11.3 10.9 0 17.3-19 17.3-31.1 0-7.5-3.2-11.3-9-11.3m20 16.1c0 17.2-13.1 32-28.3 32-12.4 0-20-9-20-21.7 0-17.2 13.1-32 28.3-32 12.4-.1 20 9 20 21.7M23.1 26c-2.9 4.6-5.1 10.1-6.9 16.4-1.7 6.8-2.2 12.8-1.5 18.2.8 5.9 3.1 10.2 6.8 12.5 2.7 1.7 5.7 2.5 9 2.3 4.9-.3 9.3-2.3 13.1-5.9 3.8-3.8 5.8-8.1 5.9-12.8l8.5 1.7c-1.4 5.9-4.8 11.2-10.1 15.8-5.5 4.6-12 7.2-19.7 7.7C18 82.4 10.3 79 5.1 71.6 2.5 68 1 63.9.4 59.3c-1.5-11 1.6-22.4 9.5-34.5C18.7 11 30.1 3.7 44 2.8c6.2-.4 11.5.8 15.9 3.5 5.2 3.1 7.8 7.7 8 13.8v1.1c.2 5.1-3.2 11.5-9.4 11.8-4.9.2-8-3-8.2-7.4-.2-3.9 2.4-9.4 6.6-9.9 0 0-.3-6.9-11.5-6.9-11.1 0-18.5 11.4-22.3 17.2"/><path class="st0" d="M89 16.2c.1-.3.2-.5.2-.8.7-2.7 1.8-5.4 2-8.2V5.6c-.2-4.2-2.7-6.1-8-5.3-2 .3-3.5 1-4.6 2-.2.2-.3.5-.1.8.5.6.7 1.5.8 2.6.1 1.7-.3 4.1-1 7l-2 6.8-.8 2.8-8.2 29.2c-2.4 7.9-4.2 14.3-4.4 18.4 0 6.5 3.3 10.4 9.8 10.4 3.6 0 7-1.4 10.1-5.5l-3-4c-.7.9-1.9 3.2-4.6 3.2-1.3 0-2.5-.7-2.5-2.9 0-.6.1-1.4.2-2.3.3-1.3 1.2-5 1.8-6.9l.3-.9c.3-.8.5-1.7.8-2.5.4-1.2.8-2.5 1.2-3.8l1.5-4.8c.6-1.8 1.1-3.5 1.7-5.3.6-1.9 1.2-3.9 1.8-5.8.6-1.8 1.2-3.7 1.7-5.5.6-1.9 1.2-3.8 1.8-5.6.4-1.4.9-2.8 1.3-4.2.7-2.1 1.3-4.2 1.9-6.3.1-.2.2-.6.3-1M173 26.2c-4.2.1-7.4 4.3-7.3 8.8.1 4.1 2.6 6.4 6.1 6.3.7 0 1.9-.3 2.6-.6-1 13.9-8.8 31.6-19.4 31.8-4.2.1-6.8-1.6-6.9-5.4-.1-5.5 5.1-14.7 7.1-23.8 1.7-5.6 2.4-9.6 2.3-12-.3-4.2-3.1-6-8.4-5.2-2 .3-3.5 1.1-4.6 2.1-.2.2-.3.5-.1.8.5.6.8 1.5.8 2.6.1 2.3-.4 5.7-1.6 10.2-2 7.4-7.5 18.9-6.1 27.3 1.2 7 5.7 12 14 11.9 18.4-.4 29.7-28.8 29.4-44-.1-7.8-3-10.9-7.9-10.8M245.8 49.5c6.6-15 12.6-22.8 20-22.8 4.2 0 7.4 2.8 7.4 7.6 0 5.1-3.3 9.4-7.3 9.4-3.5 0-5.9-2.3-5.9-6.5-3.9 1.7-12.6 14.3-20.2 42.3h-11.2s11.1-49.4 11.2-50.7h10.4l-4.4 20.7zM213.4 32.3c3.7 0 6.3 2.2 6.3 5.1 0 7.6-7.4 13.8-24.1 15.9 2.7-9.8 9.3-21 17.8-21M225 63.4l-5.8-1.4c-.2.4-1.1 3-2.4 4.6-4 4.7-8.9 7.6-12.9 7.6-5.8 0-9.6-3-9.6-11.9 0-1.1.1-2.4.2-3.7 23.5-1.9 35-11.6 35-21.5 0-6.5-5.5-10.4-14.2-10.4-16.6 0-32 16.4-32 33.7 0 12.1 8.3 20.2 18.1 20.2 9.4 0 15.7-5 20.9-12.2.1-.1.1-.2.2-.2 0-.1 1.5-2.3 2.5-4.8M255.1 77.4c0-1.3 1-3.2 2.9-3.2 1.4 0 2.7 1 2.7 2.8 0 1.3-1 3.2-2.9 3.2-1.5 0-2.7-1-2.7-2.8M282.5 63.4c0 1.6-.9 3.5-2.8 3.5-1.4 0-2.4-1-2.4-2.2 0-1 .5-2 1.5-3-.4-.5-1.2-.9-2.5-.9-4.9 0-7.6 7.8-7.6 11.4 0 3.7 1.9 5.1 4.1 5.1 2.1 0 4.2-1.7 5.9-4.7l1.9 1.1c-1.9 3.6-4.3 6.3-8.4 6.3-4.7 0-7.8-3.4-7.8-8.1 0-6.8 5.9-13.3 12.1-13.3 3.6-.2 6 2.1 6 4.8M295.5 60.7c-4.3 0-6.9 7.6-6.9 12.4 0 3 1.3 4.5 3.6 4.5 4.3 0 6.9-7.6 6.9-12.4 0-3-1.2-4.5-3.6-4.5m8 6.4c0 6.9-5.2 12.8-11.3 12.8-5 0-8-3.6-8-8.7 0-6.9 5.2-12.8 11.3-12.8 5 0 8 3.7 8 8.7M329.1 79.5l3.6-13.8c.2-.8.3-1.5.3-2.2 0-1.2-.5-1.6-1.2-1.6-2.3 0-6.5 4.3-10 17.6h-4.4l3.3-12.2c.3-1 .5-2.2.5-3.2 0-1.2-.3-2.2-1.4-2.2-2.3 0-6.5 4.3-10 17.6h-4.5l4.8-20.8h4c-.2.9-1.3 6-1.6 7.2-.1.6-.3 1.2-.6 1.8l.3.1c2.8-6.1 6.1-9.4 9.2-9.4 2.4 0 3.6 1.8 3.6 4.4 0 1.4-.4 2.9-1.1 4.8l.3.1c2.8-6.1 6.1-9.4 9.2-9.4 2.4 0 3.8 2.1 3.8 4.8 0 .8-.2 1.7-.4 2.6l-3.1 13.6M339.1 77.4c0-1.3 1-3.2 2.9-3.2 1.4 0 2.7 1 2.7 2.8 0 1.3-1 3.2-2.9 3.2-1.4 0-2.7-1-2.7-2.8M355.7 76.7c-2 0-2.9-1.7-2.9-4.5 0-3.5 2.8-11.2 7.2-11.2 1.7 0 2.7 1.4 2.7 3.8 0 3.6-3.1 11.9-7 11.9m10.9.2c-.3.3-.7.5-1.2.5s-1-.3-1-1.2c0-.2 0-.6.1-.9.1-.3.2-.8.3-1.4.1-.4.2-.8.3-1.3l3.8-13.9h-4.2l-.9 3.3c-.3-1.9-1.5-3.5-3.9-3.5-2.5 0-5.1 1.5-7.4 3.7-2.4 2.4-4.2 6.2-4.2 10.8 0 4 2.2 7 5.7 7 2.4 0 5-1.7 6.7-4.8l.3.1v.9c0 2.4 1.4 3.7 3.3 3.7 1.1 0 2.2-.4 3.3-1.3l-1-1.7zM380.6 79.5c.2-.7 2.2-7.9 2.5-8.7l-.1-.1c-2.8 6.1-6 9.3-9 9.3-2.4 0-3.8-2.1-3.8-4.7 0-1.1.2-2.4.5-3.7.2-1 3.5-12.7 3.5-12.7h4.5s-3.7 12-3.9 13.1c-.3 1-.4 2-.4 2.8 0 1.4.5 1.9 1.2 1.9 2.3 0 6.3-4.2 10-17.8h4.5l-5.3 20.7h-4.2z"/></svg>