<svg xmlns="http://www.w3.org/2000/svg" viewBox="0 0 225 47"><path d="M57.8 27.5H4.1L.2 35.2h61.5l-3.9-7.7z" opacity=".3"/><ellipse cx="31" cy="23.5" rx="23" ry="23.5" fill="#b0b0b0"/><path d="M11 35.2c4 7 11.4 11.8 20 11.8s16-4.7 20-11.8H11z" fill="#a4a4a4"/><path d="M99 16.2l-3.9 2.4c-1.3-2-3.6-3.2-6-3.2-4.2 0-7.2 3-7.2 7.5 0 4.6 3.2 7.5 7.2 7.5 2.4.1 4.7-1.1 6-3.1l3.8 2.7c-2.1 3-5.5 4.9-9.7 4.9-7.1 0-12.1-5-12.1-11.9s5-11.9 12.1-11.9c4.2 0 7.9 1.9 9.8 5.1zm26.6 6.8c0 6.9-5 11.9-12.1 11.9s-12.1-5-12.1-11.9 5-11.9 12.1-11.9c7 0 12.1 5 12.1 11.9zm-19.4 0c0 4.5 3.1 7.5 7.3 7.5 4.3 0 7.3-3 7.3-7.5s-3.1-7.5-7.3-7.5c-4.2 0-7.3 3-7.3 7.5zm22.9 11.5v-23h4.6v23h-4.6zm26.1 0l-11.7-15.4v15.4h-4.6v-23h4.3l11.7 15.4V11.5h4.6v23h-4.3zm14.7.4c-3.8 0-6.1-1.7-7.3-3.2l2.7-3.4c1.1 1.4 2.7 2.2 4.5 2.1 2.4 0 3.9-1.5 3.9-4.8V11.5h4.6v14.6c-.1 5.8-3.6 8.8-8.4 8.8zm28.9-.4l-2-5.4H187l-2 5.4h-4.8l8.9-23h5.6l8.9 23h-4.8zm-3.6-9.6l-3.3-8.9-3.3 8.9h6.6zm29.6-6.4c0 3.8-2.6 6.3-7 6.8l7.1 9.2h-5.6l-6.7-9.1h-1.4v9.1h-4.6v-23h9.7c5.5 0 8.5 2.6 8.5 7zm-13.6 2.8h5.1c2.5 0 3.8-.9 3.8-2.9 0-1.9-1.3-2.8-3.8-2.8h-5.1v5.7z" fill="#474747"/></svg>