<svg xmlns="http://www.w3.org/2000/svg" xmlns:xlink="http://www.w3.org/1999/xlink" version="1.1" id="Layer_1" x="0" y="0" viewBox="0 0 327.6 148.9" xml:space="preserve" enable-background="new 0 0 327.6 148.9">
  <path d="M27.3 127.3l-0.3-0.5 -0.5 0.4 -0.2 0.2c-1.2 1-4.5 3.6-9.2 3.6 -6 0-10.2-4.3-10.2-10.4 0-6.2 4-10.3 9.8-10.3 2.5 0 6 1.1 6 3v2.1 0.5h0.5 5.2H29v-0.5 -3.7c0-2.5-1.6-4.5-4.6-5.9 -2.2-1-5.1-1.5-7.8-1.5 -9.5 0-16.6 7.1-16.6 16.5 0 4.8 1.8 8.9 5.1 12 3.1 2.8 7.3 4.4 11.8 4.4 6.7 0 11.3-3.7 12.5-4.8l0.3-0.3 -0.2-0.3L27.3 127.3z"/>
  <path d="M50.1 104.2c-9.6 0-16.9 7-16.9 16.4 0 9.4 7.3 16.5 16.9 16.5S67 129.9 67 120.5C67 111.2 59.8 104.2 50.1 104.2zM50.1 131c-5.7 0-10-4.5-10-10.4 0-5.9 4.3-10.3 10-10.3 5.6 0 10 4.5 10 10.3C60.1 126.4 55.7 131 50.1 131z"/>
  <path d="M83.1 130.6c-2 0-2.7-1-2.7-3.8V93.4v-0.5h-0.5H69h-0.5v0.5 4.5 0.5H69h4.5v28.8c0 6.3 2.8 9.3 8.6 9.3 1.4 0 2.6-0.1 2.6-0.1l0.4 0 0-0.4 0.1-4.8 0-0.6 -0.6 0.1C84.7 130.6 84 130.6 83.1 130.6z"/>
  <path d="M100.3 130.6c-2 0-2.7-1-2.7-3.8V93.4v-0.5h-0.5H86.2h-0.5v0.5 4.5 0.5h0.5 4.5v28.8c0 6.3 2.8 9.3 8.6 9.3 1.4 0 2.6-0.1 2.6-0.1l0.4 0 0-0.4 0.1-4.8 0-0.6 -0.6 0.1C101.9 130.6 101.2 130.6 100.3 130.6z"/>
  <path d="M132.5 130.8c-0.6 0-0.8-0.2-0.8-0.8v-13.6c0-8-4.3-12.2-12.3-12.2 -7.2 0-11.7 3.6-11.9 3.7l-0.3 0.3 0.2 0.4 2.3 4.1 0.3 0.5 0.5-0.3c0 0 3.8-2.8 8.4-2.8 4 0 6 2 6 6v0.6h-1.4c-11.8 0-18.2 3.8-18.2 10.7 0 6.7 5.5 9.7 10.6 9.7 5 0 8-2.9 9.4-4.9v0.4c0 2.5 1.5 3.8 4.3 3.8h6.1 0.5v-0.5 -4.5 -0.5h-0.5H132.5zM124.9 122.2c0 4.5-3.2 9.4-7.9 9.4 -3.4 0-5-2.4-5-4.7 0-4.5 6.4-5.4 11.8-5.4h1V122.2z"/>
  <path d="M157.8 104.2c-5 0-7.9 2.5-9.3 4.1 0-0.3 0-0.6 0-0.9V93.4v-0.5H148h-10.9 -0.5v0.5 4.5 0.5h0.5 4.6v37.4 0.5h0.5 5.5 0.5v-0.5 -2.4c0-0.2 0-0.5 0-0.7 1.4 1.7 4.2 4.3 9.1 4.3 8.5 0 14.4-6.8 14.4-16.4C171.7 110.8 166.1 104.2 157.8 104.2zM156.5 131c-5.6 0-8.2-5.3-8.2-10.3 0-7.7 4.3-10.4 8.3-10.4 4.8 0 8.1 4.2 8.1 10.4C164.7 127.8 160.6 131 156.5 131z"/>
  <path d="M192.2 92.5c-3.4 0-11.4 1.1-11.4 11.4v1h-4.5 -0.5v0.5 4.5 0.5h0.5 4.5v20.4h-4.2 -0.5v0.5 4.5 0.5h0.5 16.2 0.5v-0.5 -4.5 -0.5h-0.5 -5.1v-20.4h6.8 0.5v-0.5 -4.5 -0.5h-0.5 -6.8v-1.1c0-3.7 1.8-5.5 5.2-5.5 1.3 0 2 0.2 2.1 0.2l0.6 0.1 0-0.6v-4.8 -0.4l-0.4-0.1C195 92.6 193.9 92.5 192.2 92.5z"/>
  <path d="M214.7 104.2c-9.6 0-16.9 7-16.9 16.4 0 9.4 7.3 16.5 16.9 16.5s16.9-7.1 16.9-16.5C231.6 111.2 224.4 104.2 214.7 104.2zM214.7 131c-5.7 0-10-4.5-10-10.4 0-5.9 4.3-10.3 10-10.3 5.6 0 10 4.5 10 10.3C224.7 126.4 220.3 131 214.7 131z"/>
  <path d="M256.1 104.5c-3.8 0-7.2 2.3-9.1 5.9v-1.5c0-2.7-1.4-4-4.4-4h-6.9 -0.5v0.5 4.5 0.5h0.5 3.8c0.6 0 0.8 0.2 0.8 0.8v19.6h-4.1 -0.5v0.5 4.5 0.5h0.5 14.9 0.5v-0.5 -4.5 -0.5h-0.5 -4v-7.6c0-8.3 4.4-12 8.8-12 0.9 0 1.6 0.2 1.6 0.2l0.6 0.2 0-0.6v-5.8 -0.4l-0.4-0.1C257.7 104.7 256.9 104.5 256.1 104.5z"/>
  <path d="M288 104.9c-2.5 0-3.8 1-4 3.1 -2.2-2.8-6.1-3.8-9.4-3.8 -8.4 0-13.8 6.2-13.8 15.7 0 9.5 5.8 16.1 14.1 16.1 3.7 0 6.5-1.3 8.6-3.8 0 0.1 0 0.2 0 0.3v2.4c0 7.1-5.7 8.2-9.1 8.2 -4.4 0-8.1-2-8.1-2l-0.5-0.3 -0.2 0.5 -1.9 4.4 -0.2 0.4 0.4 0.2c3.3 1.7 7.1 2.6 10.6 2.6 4.3 0 8.1-1.2 10.9-3.3 3.3-2.5 5-6.3 5-11.1v-23.4c0-0.5 0.3-0.7 0.8-0.7h3.4 0.5v-0.5 -4.5 -0.5h-0.5H288zM276 129.9c-5 0-8.3-4-8.3-10.1 0-6 2.9-9.5 7.7-9.5 5.4 0 8.1 3.2 8.1 9.7C283.6 128.2 279.5 129.9 276 129.9z"/>
  <path d="M314 104.2c-9.2 0-15.7 6.8-15.7 16.4 0 9.5 7 16.4 16.6 16.4 7.4 0 12-4.2 12.2-4.3l0.3-0.3 -0.2-0.3 -2.4-4.3 -0.3-0.5 -0.5 0.4c0 0-3.7 3.3-8.7 3.3 -6.3 0-9.5-4.6-10-9.3H327h0.4l0.1-0.4c0-0.1 0.2-1.5 0.2-2.3C327.6 110 322.3 104.2 314 104.2zM305.6 116.9c0.9-4.3 4.1-7.1 8.3-7.1 3.8 0 6.4 2.8 6.7 7.1H305.6z"/>
  <path d="M275.5 26.3c0.4 0.1 0.8 0.2 1.2 0.3 1.5 1 3 1.9 4.5 2.9 1.6 1.1 3.4 1.6 5.4 1.6 4 0 7.8-0.7 11.7-1.3 0.4-0.1 0.9-0.2 1.4-0.3 -0.6-0.9-1.3-1-2.1-1.1 -2.5-0.1-4.8 0.5-7.2 1 -2.5 0.5-5 0.5-7.4-0.6 -2-0.9-4.1-1.7-6.2-2.5 -1.2-0.6-2.5-1.1-3.7-1.7 -1.3-0.6-2.1-1.5-2.5-3 -0.2-0.7-0.4-1.4-0.6-2 -0.5-2.1-1.2-4.1-1.3-6.3 -0.1-2.4-0.3-4.7-0.6-7.1 -0.1-1.7-0.3-3.3-0.5-5 -0.1-0.5-0.4-0.9-0.6-1.3 -0.2 1.4-0.3 2.7-0.2 4 0.1 1.7 0.4 3.3 0.4 5 0.1 4.2 0.7 8.2 2.2 12.1 0.2 0.5 0.3 1 0.5 1.7 -1 0.1-1.9 0.1-2.7 0.2 -1.6 0.2-3.2 0.4-4.6 1.4 -1.5 1.1-2.1 2.7-1.6 4.5 0.2 0.7 0.5 1.3 0.8 2 0.5 1.2 0.1 2.1-1.3 2.2 -1.9 0.1-3.7 0.3-5.5 1.5 -0.1-2.5-0.2-4.7-0.2-7 0-2.3-0.3-4.6-0.7-6.9 -0.2-1.1 0-2.3 0-3.4 0-0.6 0.1-1.2 0.1-1.8 0-0.2-0.3-0.5-0.5-0.8 -0.8 1-1 2-0.9 3.1 0.3 3.3 0.6 6.5 1 9.8 0.2 2.1 0.5 4.2 0.7 6.4 0 0.5-0.1 1.2-0.4 1.6 -0.9 1.4-1.9 2.7-3 4.2 -0.4-0.8-0.8-1.5-1.1-2.2 -0.6-1.4-1.1-2.7-1.7-4.1 -0.7-1.6-1.6-3-3-4 -1.1-0.8-2.1-1.6-3.1-2.5 -1.6-1.4-2.7-3.1-2.5-5.3 0-0.1-0.1-0.3-0.1-0.5 -0.9 1.3-1 2.6-0.4 3.8 0.6 1 1.3 2 2.1 2.8 0.8 0.8 1.7 1.5 2.6 2.2 1.7 1.4 3.1 2.9 3.8 5.1 0.7 2 1.4 4 2 6.1 0.1 0.4 0.1 0.8-0.1 1.2 -0.2 0.6-0.6 1.1-0.9 1.8 -0.6-0.1-1.1-0.1-1.6-0.3 -1.1-0.5-2.2-1-3.4-1.5 -1-0.5-2.1-1-3.1-1.4 -3-1-5-0.3-6.9 2.2 -0.4 0.6-0.8 1.3-1.2 1.9 -0.7 1.2-1.4 2.5-2.2 3.7 -2.8 4.6-6.1 8.9-10.9 11.7 -0.2 0.1-0.3 0.3-0.4 0.5 0.9 0.3 1.6 0.1 2.2-0.3 0.6-0.4 1.3-0.8 1.8-1.4 3.8-3.6 7.4-7.4 10-12 0.5-0.8 1-1.6 1.6-2.4 0.9-1.1 2-1.9 3.2-2.5 1.5-0.6 3.5 0 4.5 1.5 -2.6 0.8-4.6 2.4-6.7 4 -2.2 1.6-3.2 3.8-3.2 6.5 0 3.6 3 6 6.5 5.3 2-0.3 3.7-1.3 5.1-2.7 1.6-1.7 3.2-3.4 4.7-5.1 1-1.2 1.9-2.6 2.9-4 -0.1 0.7-0.1 1.3-0.2 2 -0.4 2.4-1.3 4.6-2.6 6.6 -1.5 2.4-3.1 4.8-4.6 7.2 -1.2 1.9-2.5 3.8-3.4 5.9 -1.5 3.6-3.4 7-5.2 10.5 -1.4 2.8-2.7 5.8-4 8.7 -0.3 0.6-0.6 1.3-0.2 2.3 0.3-0.5 0.5-0.9 0.7-1.2 0.8-1.6 1.5-3.3 2.3-4.9 2.6-5.3 5.2-10.6 7.8-15.8 1.8-3.5 4.2-6.6 6.6-9.8 1.6-2.3 2.8-4.7 3.2-7.5 0.1-1 0.4-2 0.8-3 0.3-1 0.9-1.9 1.9-2.3 1 0.2 1.8 0.7 2.5 1.4 1.6 1.6 3.3 3 5.2 4.2 1.2 0.8 2 2 2.3 3.4 0.6 2.5 1.4 5 2.7 7.3 0.8 1.4 1.6 2.7 3 3.6 1.2 0.8 2.5 1.3 4 0.7 -0.6-1-0.8-1.3-1.9-1.7 -0.8-0.3-1.6-0.6-2.4-0.9 -1.6-0.7-2.5-2-2.7-3.7 -0.1-1.3-0.2-2.6-0.3-3.8 -0.1-2-0.7-3.7-2.2-4.9 -1.2-1-2.5-1.7-3.8-2.5 -0.7-0.4-1.5-0.7-2.1-1.1 -0.5-0.3-1-0.8-1.3-1.3 -0.5-0.8-0.3-1.3 0.4-1.8 0.9-0.6 1.7-1.3 2.7-2 0.5 0.9 1.5 1 2.3 0.9 3.7-0.3 7.2-1.3 10.3-3.3 0.8-0.5 1.7-0.8 2.7-0.8 2 0 3.9 0.1 5.9 0 1.3-0.1 2.5-0.3 3.8-0.6 0.7-0.2 1.4-0.5 1.3-1.6 -0.3 0-0.7-0.1-1-0.1 -0.8 0.1-1.7 0.2-2.5 0.4 -2.9 0.4-5.8 0.9-8.7 1.3 -2.4 0.4-4.7 0.9-6.8 2 -1 0.5-2 1-3.1 1.4 -0.7 0.2-1.5 0.3-2.4 0.4 1.2-2.2 1.5-4.3 2-6.4 0.1-0.7 0.4-1.3 0.6-2 1.2 0 2.1 0 3.1 0 2.1 0 3.7-0.9 4.8-2.6 0.9-1.4 1.6-2.9 1.4-4.7C274.3 26.5 274.8 26.2 275.5 26.3z"/>
</svg>
