<?xml version="1.0" encoding="utf-8"?>
<!-- Generator: Adobe Illustrator 23.0.6, SVG Export Plug-In . SVG Version: 6.00 Build 0)  -->
<svg version="1.1" id="Layer_1" xmlns="http://www.w3.org/2000/svg" xmlns:xlink="http://www.w3.org/1999/xlink" x="0px" y="0px"
	 viewBox="0 0 220 110" style="enable-background:new 0 0 220 110;" xml:space="preserve">
<style type="text/css">
	.st0{fill:#090B0A;}
</style>
<path class="st0" d="M60.1,86.7c-0.8,0.3-1.7,0.5-2.6,0.5c-1.5,0-2.8-0.3-4-1c-1.1-0.7-2-1.6-2.6-2.7c-0.6-1.1-0.9-2.3-0.9-3.7
	c0-1.5,0.3-2.8,0.9-3.9c0.6-1.2,1.4-2,2.5-2.7c1.1-0.6,2.3-1,3.7-1c0.9,0,1.7,0.1,2.5,0.4c0.8,0.2,1.4,0.5,2,0.9l-1.1,2.7
	c-1-0.8-2.1-1.2-3.2-1.2c-0.7,0-1.4,0.2-2.1,0.6c-0.6,0.4-1.2,1-1.5,1.7C53.2,78,53,78.8,53,79.7s0.2,1.8,0.5,2.5
	c0.4,0.7,0.9,1.3,1.5,1.7c0.7,0.4,1.4,0.6,2.3,0.6c0.7,0,1.4-0.1,1.9-0.3c0.6-0.2,1-0.5,1.3-0.8l1.2,2.6
	C61.5,86.1,60.9,86.4,60.1,86.7z M67.6,76c0.7-1.2,1.6-2.1,2.7-2.7c1.1-0.7,2.4-1,3.7-1s2.6,0.3,3.7,1s2.1,1.6,2.7,2.7
	c0.7,1.2,1,2.4,1,3.7c0,1.3-0.3,2.6-1,3.7c-0.7,1.1-1.6,2-2.7,2.7s-2.4,1-3.7,1c-1.3,0-2.6-0.3-3.7-1c-1.1-0.7-2-1.6-2.7-2.7
	c-0.7-1.1-1-2.4-1-3.7S66.9,77.2,67.6,76z M70.2,82.1c0.4,0.7,1,1.3,1.6,1.7c0.7,0.4,1.5,0.6,2.3,0.6c0.8,0,1.6-0.2,2.2-0.6
	c0.7-0.4,1.2-1,1.6-1.7s0.6-1.5,0.6-2.4s-0.2-1.7-0.6-2.4c-0.4-0.7-0.9-1.3-1.6-1.7C75.6,75.2,74.9,75,74,75c-0.8,0-1.6,0.2-2.3,0.6
	c-0.7,0.4-1.2,1-1.6,1.7s-0.6,1.5-0.6,2.4C69.6,80.6,69.8,81.4,70.2,82.1z M95,87l-3-4.6h-2V87h-2.9V72.4h4.4c1.8,0,3.2,0.4,4.2,1.3
	s1.5,2.1,1.5,3.6c0,0.9-0.2,1.7-0.6,2.5c-0.4,0.8-1,1.4-1.7,1.9l3.4,5.3C98.3,87,95,87,95,87z M90,79.6h2c0.8,0,1.3-0.2,1.7-0.7
	c0.4-0.5,0.5-0.9,0.5-1.5s-0.2-1-0.5-1.5c-0.3-0.5-0.9-0.7-1.8-0.7H90C90,75.2,90,79.6,90,79.6z M112.1,72.4v2.8h-3.6V87h-2.9V75.2
	h-3.4v-2.8C102.2,72.4,112.1,72.4,112.1,72.4z M120.5,72.4V87h-2.9V72.4H120.5z M136.3,86.7c-0.8,0.3-1.7,0.5-2.6,0.5
	c-1.5,0-2.8-0.3-4-1c-1.1-0.7-2-1.6-2.6-2.7s-0.9-2.3-0.9-3.7c0-1.5,0.3-2.8,0.9-3.9c0.6-1.2,1.4-2,2.5-2.7c1.1-0.6,2.3-1,3.7-1
	c0.9,0,1.7,0.1,2.5,0.4c0.8,0.2,1.4,0.5,2,0.9l-1.1,2.7c-1-0.8-2.1-1.2-3.2-1.2c-0.7,0-1.4,0.2-2.1,0.6c-0.6,0.4-1.2,1-1.5,1.7
	c-0.4,0.7-0.6,1.5-0.6,2.3c0,0.9,0.2,1.8,0.5,2.5c0.4,0.7,0.9,1.3,1.5,1.7c0.7,0.4,1.4,0.6,2.3,0.6c0.7,0,1.4-0.1,1.9-0.3
	c0.6-0.2,1-0.5,1.3-0.8l1.2,2.6C137.7,86.1,137.1,86.4,136.3,86.7L136.3,86.7z M150.9,84.2h-4.8l-1.2,2.8H142l6.6-15.2h0.2l6.6,15.2
	H152L150.9,84.2z M149.9,81.7l-1.4-3.6l-1.5,3.6H149.9z M163.1,72.4v11.8h6.9V87h-9.7V72.4H163.1z M88.9,93.4v10h5.8v1.5h-7.4V93.4
	H88.9z M106.1,101.9h-4.4l-1.2,3H99l5-11.9h0.1l5,11.9h-1.8L106.1,101.9z M105.6,100.5l-1.6-4.2l-1.7,4.2H105.6z M120.8,100
	c0.4,0.5,0.6,1,0.6,1.6c0,0.7-0.2,1.3-0.5,1.8c-0.4,0.5-0.8,0.8-1.4,1.1c-0.6,0.2-1.2,0.3-1.9,0.3h-3.4V93.4h3
	c1.2,0,2.1,0.2,2.7,0.7s1,1.2,1,2.2c0,0.6-0.1,1.1-0.4,1.6s-0.7,0.8-1.2,1.1C119.9,99.2,120.4,99.5,120.8,100z M115.6,98.4h1.7
	c0.6,0,1-0.2,1.3-0.5s0.5-0.8,0.5-1.3c0-0.6-0.2-1-0.5-1.3c-0.4-0.3-0.9-0.4-1.5-0.4h-1.5C115.6,94.9,115.6,98.4,115.6,98.4z
	 M119.1,103c0.4-0.3,0.7-0.7,0.7-1.3c0-0.6-0.2-1-0.7-1.3s-1-0.4-1.7-0.4h-1.7v3.5h1.8C118.1,103.4,118.7,103.3,119.1,103z
	 M131.4,94.9c-0.5-0.1-0.9-0.2-1.3-0.2c-0.6,0-1.1,0.1-1.5,0.4c-0.4,0.3-0.5,0.7-0.5,1.2s0.2,0.9,0.6,1.2c0.4,0.3,1,0.6,1.8,0.9
	c0.6,0.2,1.1,0.4,1.5,0.7c0.4,0.2,0.7,0.6,1,1s0.4,1,0.4,1.7c0,0.6-0.2,1.2-0.5,1.7c-0.3,0.5-0.7,0.9-1.3,1.2
	c-0.6,0.3-1.2,0.4-2,0.4c-0.7,0-1.4-0.1-2-0.3c-0.7-0.2-1.2-0.5-1.7-0.9l0.7-1.2c0.4,0.3,0.9,0.5,1.4,0.8s1.1,0.3,1.5,0.3
	c0.6,0,1.2-0.2,1.6-0.5c0.5-0.3,0.7-0.8,0.7-1.4c0-0.5-0.2-0.9-0.6-1.3c-0.4-0.3-0.9-0.6-1.6-0.9c-0.6-0.2-1.2-0.5-1.6-0.7
	c-0.4-0.2-0.8-0.6-1.1-1c-0.3-0.4-0.5-0.9-0.5-1.5c0-0.9,0.3-1.6,0.9-2.2s1.4-0.8,2.5-0.9c1.2,0,2.4,0.3,3.4,0.9l-0.6,1.2
	C132.3,95.2,131.9,95,131.4,94.9z"/>
<g>
	<path class="st0" d="M143.9,12l0.7-1.8l-17.3,10l-0.9,0.5l0.3,1c1.9,5.4-0.3,11.5-5.3,14.4c-1.8,1-3.9,1.6-6,1.6
		c-4.3,0-8.3-2.3-10.4-6c-3.3-5.7-1.3-13,4.4-16.3c1.8-1,3.9-1.6,5.9-1.6c3.5,0,6.9,1.5,9.1,4.2l0.7,0.8l0.9-0.5l19.8-11.5l0.7-1.8
		l-21,12.1c-2.6-3-6.3-4.6-10.1-4.6c-2.2,0-4.5,0.6-6.6,1.8c-6.3,3.6-8.5,11.7-4.8,18c2.4,4.2,6.9,6.6,11.5,6.6
		c2.2,0,4.5-0.6,6.6-1.8c5.6-3.2,7.9-10,5.8-15.9C127.9,21.2,143.9,12,143.9,12z"/>
	<path class="st0" d="M115.4,16c-1.7,0-3.4,0.4-4.8,1.3c-4.6,2.7-6.2,8.6-3.5,13.2c1.7,3,4.9,4.8,8.4,4.8c1.7,0,3.4-0.4,4.8-1.3
		c2.2-1.3,3.8-3.4,4.5-5.9s0.3-5.1-1-7.3C122.1,17.9,118.9,16,115.4,16z M119.7,33c-1.3,0.8-2.8,1.1-4.2,1.1c-2.9,0-5.7-1.5-7.3-4.2
		c-2.3-4-0.9-9.2,3.1-11.5c1.3-0.8,2.8-1.1,4.2-1.1c2.9,0,5.7,1.5,7.3,4.2C125.1,25.5,123.7,30.7,119.7,33z M98.2,24.4
		c0-0.5,0.1-1.3,0.1-1.9c0-0.4-0.3-0.8-0.7-0.7c-1.5,0.1-4.5,0.6-4.3,2.9c0.1,0.8,0.2,1.9,0.3,2.9c0.1,1.6-0.5,3.1-1,4.5
		c-0.4,1.3-0.8,2.9-1.9,4.2c-0.9,1-2.5,1.5-3.9,2.5c-1.1,0.8-2.3,1.8-3.7,2.7c-2.1,1.2-1.9,1.6-4.1,2.8c-2.1,1.2-2.3,1-4.4,2.3
		c-1.2,0.7-1.4,2.2-0.7,3.3c0.8,1.2,2.5,1.5,3.7,0.7c1.6-1,1.7-1.3,3.6-2.5c2.1-1.2,2-1.4,4.2-2.7c1.5-0.8,3-1.2,4.3-1.7
		c1.6-0.7,3.1-0.8,4.4-1.1c1.7-0.3,3.1-0.5,4.5-0.2c1.6,0.3,3,0.8,4.2,1.6c0.7,0.5,1.1,0.7,2.3,1.4c2.3,1.3,3.8-0.8,4.4-2
		c0.2-0.4,0-0.8-0.4-1c-0.5-0.2-1-0.4-1.4-0.6c-1.6-0.8-3.1-1.9-4.4-3.1c-1.3-1.2-2.1-2.8-3-4.4c-0.9-1.5-1.9-3.1-2.3-4.8
		C97.7,27.9,98.1,26.1,98.2,24.4z"/>
</g>
</svg>
