<?xml version="1.0" encoding="utf-8"?>
<!-- Generator: Adobe Illustrator 19.2.1, SVG Export Plug-In . SVG Version: 6.00 Build 0)  -->
<svg version="1.1" id="Layer_1" xmlns="http://www.w3.org/2000/svg" xmlns:xlink="http://www.w3.org/1999/xlink" x="0px" y="0px"
	 viewBox="0 0 39.2 8" style="enable-background:new 0 0 39.2 8;" xml:space="preserve">
<rect x="-712.3" y="-364.6" style="fill:none;" width="394" height="455"/>
<text transform="matrix(1 0 0 1 -712.3361 -344.4265)"><tspan x="0" y="0" style="font-family:'Baskerville-Italic'; font-size:30px;">`1234567890-=~!@#$%^&amp;*()_</tspan><tspan x="0" y="36" style="font-family:'Baskerville-Italic'; font-size:30px;">+qwertyuiop[]\QWERTYU</tspan><tspan x="308.5" y="36" style="font-family:'Baskerville-Italic'; font-size:30px;">-</tspan><tspan x="0" y="72" style="font-family:'Baskerville-Italic'; font-size:30px;">IOP{}|asdfghjkl;’ZXCVBNM&lt;&gt;?</tspan></text>
<g>
	<g>
		<path d="M27.3,3c-0.8-0.8-1.7-1.3-2.8-1.5s-1.9,0-2.6,0.7c-0.4,0.4-0.6,0.8-0.6,1.3s0.1,0.8,0.3,1.1c0.3,0.3,0.6,0.3,0.8,0
			l0.1-0.1c0.1-0.1,0.1-0.2,0.2-0.2c0.3-0.3,0.6-0.5,1-0.5c0.4,0,0.7,0.1,0.9,0.3C25,4.4,25.1,4.7,25.1,5c0,0.4-0.1,0.7-0.4,1
			c-0.4,0.4-1,0.7-1.6,0.6S22,6.4,21.5,5.9c-0.6-0.6-0.9-1.3-0.9-2.1c0-0.8,0.3-1.5,0.9-2.1c0.9-0.9,2-1.3,3.4-1.3
			c1.4,0,3.1,1,5,2.9c1.7,1.7,3.2,2.7,4.4,3c1.2,0.3,2.3,0,3.3-1c0.6-0.6,0.8-1.2,0.9-1.9s-0.2-1.3-0.8-1.8
			c-0.3-0.3-0.5-0.4-0.7-0.5c-0.2-0.1-0.4,0-0.5,0.1c-0.1,0.1-0.2,0.3-0.2,0.6c-0.1,0.4-0.2,0.7-0.4,0.9c-0.3,0.3-0.6,0.4-1,0.4
			c-0.4,0-0.7-0.2-1-0.4c-0.3-0.3-0.5-0.7-0.5-1.1c0-0.4,0.2-0.8,0.5-1.1c0.5-0.5,1.1-0.7,2-0.6c0.8,0.1,1.6,0.5,2.3,1.2
			c0.7,0.7,1.1,1.6,1,2.7S38.7,5.8,38,6.6c-0.7,0.7-1.6,1.2-2.6,1.3s-2,0.1-2.9-0.3c-0.9-0.4-1.9-1.2-3.1-2.3L27.3,3z"/>
	</g>
	<g>
		<path d="M9.8,5.3C8.6,6.4,7.6,7.2,6.7,7.6C5.8,8,4.8,8.1,3.8,7.9S1.9,7.3,1.2,6.6C0.5,5.8,0.1,4.9,0,3.9S0.3,2,1,1.2
			C1.8,0.5,2.5,0.1,3.4,0s1.5,0.1,2,0.6c0.3,0.3,0.5,0.7,0.5,1.1S5.8,2.4,5.4,2.8c-0.3,0.3-0.6,0.4-1,0.4c-0.4,0-0.7-0.1-1-0.4
			C3.2,2.6,3,2.3,3,1.9C2.9,1.6,2.8,1.4,2.7,1.3C2.6,1.2,2.4,1.1,2.2,1.2C2,1.2,1.8,1.4,1.5,1.7C1,2.2,0.7,2.8,0.8,3.5
			c0,0.7,0.3,1.3,0.9,1.9c0.9,0.9,2,1.3,3.3,1C6.1,6,7.6,5,9.3,3.3c1.9-1.9,3.6-2.8,5-2.9c1.4,0,2.6,0.4,3.4,1.3
			c0.6,0.6,0.9,1.3,0.9,2.1c0,0.8-0.3,1.5-0.9,2.1c-0.5,0.5-1,0.7-1.6,0.7c-0.6,0-1.1-0.2-1.6-0.6c-0.3-0.3-0.5-0.6-0.4-1
			c0-0.4,0.1-0.7,0.4-0.9c0.3-0.3,0.6-0.4,0.9-0.3s0.7,0.2,1,0.5c0,0,0.1,0.1,0.2,0.2l0.1,0.1c0.3,0.3,0.6,0.3,0.8,0
			c0.2-0.2,0.3-0.6,0.3-1.1s-0.2-0.9-0.6-1.3c-0.6-0.6-1.5-0.9-2.6-0.7s-2,0.7-2.8,1.5L9.8,5.3z"/>
	</g>
</g>
</svg>
