<svg id="Layer_1" xmlns="http://www.w3.org/2000/svg" viewBox="0 0 452 175"><style>.st0{fill:#a2a2a2}.st1{fill:#6c6c6c}.st2{fill:#414141}.st3{fill:#878787}</style><path class="st0" d="M92.1.4v50.3l-42-25.1z"/><path class="st1" d="M134.1 25.6l-42 25.1V.4zM92.1 124.3v50.3l-42-25.2z"/><path class="st2" d="M134.1 149.4l-42 25.2v-50.3z"/><path class="st1" d="M99.6 62.3v50.4l42 25.1V87.5z"/><path class="st2" d="M183.7 62.3v50.4l-42.1 25.1V87.5z"/><path class="st3" d="M141.6 37.2l-42 25.1 42 25.2 42.1-25.2z"/><path fill="#b9b9b9" d="M42.6 37.2L.4 62.3v50.4l42.2 25.1z"/><path class="st0" d="M42.6 137.8l42.1-25.1V62.3L42.6 37.2z"/><g><path d="M203 49.2h50.4v17.3h-31.2v13.3h20.3v17.4h-20.2v30.6H203V49.2zM292.5 127.9v-10h-.3c-2.7 3.9-5.5 6.7-8.2 8.5-2.8 1.7-6.2 2.6-10.3 2.6-6.9 0-12.7-3-17.5-8.9S249 107 249 98.6s2.6-15.5 7.7-21.5 11.2-9 18.3-9c3.4 0 6.4.7 9.1 2.2 2.7 1.5 5.5 3.9 8.5 7.2v-8.1H310v58.5h-17.5zm-12.8-42.3c-3.5 0-6.3 1.4-8.7 4.1-2.3 2.7-3.5 6.2-3.5 10.4 0 3.9 1.1 7.1 3.3 9.4s5.1 3.6 8.7 3.6c3.5 0 6.4-1.4 8.9-4.1 2.5-2.7 3.7-6.1 3.7-10 0-3.6-1.2-6.8-3.7-9.4-2.5-2.7-5.4-4-8.7-4zM361.2 107.6V125c-6 2.7-11 4.1-14.9 4.1-8.8 0-16.2-2.9-22.1-8.7-5.9-5.8-8.9-13.1-8.9-21.8 0-8.8 2.7-16 8.2-21.8 5.5-5.8 12.4-8.7 20.8-8.7 5.9 0 11.5 1.4 17 4.1v16.5c-5.1-2.5-9.7-3.7-14-3.7-3.9 0-7.1 1.2-9.4 3.6-2.4 2.4-3.6 5.5-3.6 9.4 0 3.9 1.2 7 3.5 9.4s5.5 3.6 9.3 3.6c3.7 0 8.3-1.2 14.1-3.4zM375 49.2h17.4v20.1h8.4v16h-8.4v42.6H375V85.3h-6.7v-16h6.7V49.2zM407.7 69.3h17.4v58.6h-17.4zM434.1 49.2h17.4v78.7h-17.4V49.2z"/><g><path class="st1" d="M407.7 51.1v10.5l8.7 5.2V56.3z"/><path class="st2" d="M425.1 51.1v10.5l-8.7 5.2V56.3z"/><path class="st3" d="M416.4 45.9l-8.7 5.2 8.7 5.2 8.7-5.2z"/></g></g></svg>