<?xml version="1.0" encoding="utf-8"?>
<!-- Generator: Adobe Illustrator 19.2.1, SVG Export Plug-In . SVG Version: 6.00 Build 0)  -->
<svg version="1.1" id="Layer_1" xmlns="http://www.w3.org/2000/svg" xmlns:xlink="http://www.w3.org/1999/xlink" x="0px" y="0px"
	 viewBox="0 0 72.2 140.8" style="enable-background:new 0 0 72.2 140.8;" xml:space="preserve">
<style type="text/css">
	.st0{fill:#E6E7E8;}
</style>
<g>
	<path class="st0" d="M69.7,116.5c0.9-29.8,3.1-59.8,2.3-89.5c-0.2-6.4-0.1-13.6-1.8-19.9c-1.2-4.5-4.3-6.6-8.8-6.8
		C46.8-0.5,31.7,0.6,17.2,1.1C12.9,1.2,8.6,1.5,5.3,4.6c-3.2,3-4.2,7.5-4.6,11.7c-1.4,14.1-0.2,28.8-0.2,42.9c0,17.2,0,34.4,0,51.6
		c0,4.6,0,9.3,0,13.9c0,3.2-0.3,6.6,0.5,9.7c1.1,4.1,4.3,6.9,8.4,6.3c0.1,0,0.2,0,0.3,0c15.5-0.2,31.1-1.1,46.6-2
		c4.3-0.2,9.4,0.1,11.8-4.3C70.8,129.6,69.5,121.8,69.7,116.5z M66.3,102.7c-0.2,6.9-0.4,13.8-0.6,20.7c-0.2,5,1,9.7-5.4,11.4
		c-2.9,0.8-6.7,0.4-9.7,0.5C37.4,136,24.2,136.8,11,138c-0.4-0.5-1-0.9-1.8-0.7c-6.9,1.4-5-15.1-5-18.5c0-6.3,0-12.6,0-18.8
		c0-12.2,0-24.5,0-36.7c0-12.2,0-24.5,0-36.7c0-4.5-0.3-9.2,0.8-13.6c1.9-7.2,7.3-8,14-8.1c11.6-0.2,23.2-0.5,34.8-0.7
		c3.4-0.1,6.5-0.6,9.6,0.9c2.5,1.2,2.6,1.6,3.2,4.2c0.3,1.5,0.4,3,0.6,4.5c0.7,5.9,0.9,11.9,0.9,17.8C68.3,55.3,67,79,66.3,102.7z"
		/>
	<path class="st0" d="M42.1,9.8c-2.3-0.8-5,0-7.5,0.1c-2.8,0.1-5.5,0.2-8.3,0.4c-1.3,0.1-1.8,2.2-0.3,2.5c2.9,0.5,5.7,0.7,8.6,0.7
		c2.6,0,5.5,0.4,7.9-0.9C43.7,11.9,43.3,10.2,42.1,9.8z"/>
	<path class="st0" d="M40.5,119.1c-1.7-1.2-4.1-1.5-6-0.5c-0.4,0.2-0.8,0.5-1.2,0.9c-0.1,0-0.3,0.1-0.4,0.2c-3.2,2-4,6.6-1.3,9.5
		c2.6,2.8,7.5,2.9,10.1-0.1C44.1,126.1,43.7,121.3,40.5,119.1z M38.5,127.2c-1.4,1-3.7,0.7-4.7-0.7c-0.5-0.7-0.7-1.5-0.6-2.3
		c0.5,0.1,1-0.1,1.3-0.6c0.5-0.8,0.8-1.8,1.7-2.1c1.1-0.4,2.3,0.2,2.9,1C40.2,123.8,39.9,126.2,38.5,127.2z"/>
	<path class="st0" d="M60.8,61.4c0.6-14.2,4.9-29,0.7-43c-0.2-0.7-0.9-1.3-1.7-1.3c-9.8,0-19.6,0-29.4,0.1c-6.2,0-13.2-0.4-18.2,3.6
		c-0.5,0-1,0.1-1.3,0.6c-4.1,6.6-2.5,17.6-2.4,25C8.4,56,8.6,65.6,9,75.2c0.3,9.6,0.7,19.3,1.4,28.9c0.3,3.8,0.4,11.3,6.1,10.7
		c0,0,0.1,0,0.1,0c1.6,0.6,3.2,0.2,5.4,0.1c4.3-0.2,8.5-0.4,12.8-0.7c7.9-0.5,16.4-0.1,24.1-1.7c2-0.4,1.3-3.1-0.4-3.3
		c-8-0.7-16.6,0.7-24.6,1.2c-3.9,0.2-7.9,0.5-11.8,0.8c-2.5,0.2-4.3-0.1-6,1c-3.3-1.7-2.4-19-2.6-22c-0.3-7.6-0.5-15.3-0.7-22.9
		c-0.2-7.6-0.3-15.3-0.4-22.9c0-3.8-0.1-7.7,0-11.5c0.1-3.3,1-6.6,1.1-9.9c6.2-4,15.8-2.4,22.7-2.3c7.5,0,14.9,0,22.4,0
		c3.8,14-0.8,29.4-1.2,43.7C57,72.1,57.2,80,57.7,87.8c0.4,7.2,0.5,14.9,2,21.9c0.4,1.7,2.9,1.2,2.9-0.4c0.3-7.7-1.1-15.7-1.6-23.5
		C60.6,77.7,60.4,69.5,60.8,61.4z"/>
	<path class="st0" d="M56.5,39c0-2.6,0.4-5.6-0.1-8.2c-0.7-3.4-2.8-3.7-5.9-4c-6.5-0.6-13.1-0.9-19.6-1.2c-3.5-0.1-9.3-1.6-11.7,1.8
		c-2.4,3.3-2.7,9.8-2.6,13.7c0.3,10.4,13.2,7.8,20.8,6.6c0,0.2,0.1,0.4,0.2,0.6c2.1,3.7,6,6.4,9.9,8c1.8,0.7,2.4-1.8,1.2-2.8
		c-1.2-0.9-1.7-2.9-2-4.6c0,0,0.1,0,0.1,0c2.9-0.4,8.5,0,9.6-3.5C57,43.8,56.5,40.9,56.5,39z M53.6,42.5c-0.3,2.6,0,2.3-2.5,2.9
		c-1.6,0.4-3.4,0.5-5.1,0.8c-0.6,0.1-0.9,0.4-1,0.8c-0.1,0.1-0.2,0.3-0.2,0.5c-0.1,1.3-0.1,2.6,0.2,3.9c0,0,0,0,0,0
		c-1.8-1.4-3.4-3-5-4.9c-0.3-0.3-0.6-0.5-1-0.5c-0.2-0.2-0.4-0.3-0.6-0.3c-3.6-0.3-7.2-0.5-10.8-0.5c-1.3,0-3,0.3-4.2,0
		c-3.9-1.1-3.5-3.4-3.3-6.4c0.2-4.1,0.3-9.3,5.2-10.2c3.2-0.5,7.1,0.2,10.3,0.3c3.1,0.1,6.2,0.3,9.3,0.5c1.7,0.1,3.9,0,5.6,0.4
		c2.6,0.6,2.7,0.9,3.1,3.7C54,36.2,53.9,39.9,53.6,42.5z"/>
	<path class="st0" d="M48,33.2c-3.5-0.9-7.4-0.4-10.9-0.4c-3.6,0-7.4-0.2-10.9,0.6c-0.8,0.2-0.8,1.5,0,1.6c3.5,0.8,7.3,0.5,10.9,0.6
		c3.6,0,7.5,0.6,10.9-0.4C49,35,49,33.5,48,33.2z"/>
	<path class="st0" d="M52.1,38.2c-4.4-0.6-8.9-0.2-13.4-0.1c-4.3,0.1-9-0.4-13.2,0.9c-0.6,0.2-0.6,1,0,1.1c4.1,1.3,8.9,0.8,13.2,0.9
		c4.4,0.1,9,0.5,13.4-0.1C53.4,40.7,53.4,38.4,52.1,38.2z"/>
</g>
</svg>
