<svg xmlns="http://www.w3.org/2000/svg" viewBox="0 0 512 512"><path d="M209.4 176.1c25.9-26.4 55.6-46.6 92.1-55.5 16.9-4.1 33.9-4 50.7.2 28.5 7.2 44.1 28.5 40 57.7-2.9 20.3-8.8 40.2-13.1 60.4-3.8 17.7-8 35.4-10.4 53.3-1.5 11.3 2 22.3 13.7 27.6 12.1 5.5 23.8 3.5 34-4.9 5.1-4.2 9.6-9.1 14.5-13.5 7-6.2 13.8-7.2 19.4-3.1 5.6 4.2 7.5 11.2 3.6 19.4-7.7 16.5-19.8 29.8-33.5 41.5-33.2 28.4-71 41.9-114.7 32.2-39.4-8.7-60.7-39.6-54.4-79.6 2.8-18.1 8.4-35.8 13.2-53.5 4-15.1 8.7-30.1 13-45.1.5-1.8.6-3.8.6-5.7-.1-9.1-1.6-17.8-10.1-23-8.4-5.2-17.3-3.1-24 2.3-9.4 7.4-18.5 15.8-25.6 25.3-17.7 23.8-26.4 51.9-34.8 79.8-7.9 26.4-15 52.9-15.9 80.8-.4 12.7-5.6 16.6-18.3 17.3-21.4 1.2-42.9 2.5-64.3 4.3-24.2 2-32.3-4.9-28.2-29 5.2-30.6 13-60.8 18.9-91.3 5.9-30.2 11.2-60.5 15.8-91 1-6.7-1-14.2-3.1-20.9-4.2-13.3-2.1-20.5 10.2-27.7 15.3-9 32.4-12.3 49.6-14.3 12.8-1.5 25.8-2.1 38.7-2 20.8.1 30.1 11.5 26.8 32.1-1.1 8.6-2.9 17.2-4.4 25.9z"/></svg>