<?xml version="1.0" encoding="utf-8"?>
<!-- Generator: Adobe Illustrator 22.0.1, SVG Export Plug-In . SVG Version: 6.00 Build 0)  -->
<svg version="1.1" id="Layer_1" xmlns="http://www.w3.org/2000/svg" xmlns:xlink="http://www.w3.org/1999/xlink" x="0px" y="0px"
	 viewBox="0 0 512 512" style="enable-background:new 0 0 512 512;" xml:space="preserve">
<path d="M175,409.6H64.5c9.6-12.8,17.7-25.3,27.2-36.2c14.3-16.4,20.2-34.3,19.6-56.8c-1.5-52.8,0-105.6-0.6-158.4
	c0-7.5-3.6-16-7.9-22.4c-8.3-12.8-18.1-24.5-28.3-37.9c4.3-0.2,6.6-0.6,9.1-0.6c29.2,0,58.5,0.2,87.7-0.2c6.8,0,9.8,2.5,12.4,8.3
	c26,57.9,52.2,115.6,78.4,173.5c1.3,3,3,5.8,5.5,10.4c2.8-6.4,4.9-11.1,6.8-16c22.4-56,44.7-112,66.9-168c1.9-4.5,3.2-8.1,9.6-8.1
	c30.5,0.4,60.9,0.2,91.5,0.2c1.1,0,2.3,0.4,5.1,0.9c-9.6,10.7-18.7,20.2-26.6,30.4c-3.6,4.5-6.6,10.9-6.6,16.6
	c-0.4,73.9-0.2,147.7-0.4,221.6c0,7.4,2.6,12.3,7.7,17.2c8.1,8.1,15.7,16.8,23.4,25.3H300c9.2-8.9,17-16.8,25.3-23.9
	c6.2-5.3,8.7-11.1,8.5-19.6c-0.2-63.2,0.2-126.3,0.4-189.5c0-0.6-0.4-1.1-1.5-4.3c-32.6,81.5-64.3,161-97.1,243.1
	C199.7,335.3,165,258,129.2,178.2c-0.6,4.5-1.1,6.4-1.1,8.3c-0.2,48.5-0.8,96.7,0,145.2c0.2,9.1,4,19.2,9.1,27
	C148.6,375.8,161.6,391.7,175,409.6z"/>
</svg>
