<?xml version="1.0" encoding="utf-8"?>
<!-- Generator: Adobe Illustrator 23.0.6, SVG Export Plug-In . SVG Version: 6.00 Build 0)  -->
<svg version="1.1" id="Layer_1" xmlns="http://www.w3.org/2000/svg" xmlns:xlink="http://www.w3.org/1999/xlink" x="0px" y="0px"
	 viewBox="0 0 512 512" style="enable-background:new 0 0 512 512;" xml:space="preserve">
<style type="text/css">
	.st0{fill-rule:evenodd;clip-rule:evenodd;}
</style>
<path class="st0" d="M456.1,340.1c0,0-57.9,59.2-114.4,59.2c-51.5,0-83.2-30.7-83.2-69.6c0-55.1,28.9-91.4,28.9-126.6
	c0-14.4-8.1-25.3-20.8-25.3c-15.3,0-37.1,15.3-57,55.1c-15.3,30.7-38.8,107.6-38.8,142.8c0,15.3-6.3,18.9-19.9,18.9
	c-27.1,0-62.4,4.5-75.9,4.5c-11.7,0-18.9-4.5-18.9-19.9c0-33.5,38-155.5,38-204.3c0-15.3-6.3-17.2-6.3-28.9
	c0-19.9,48.8-33.5,101.2-33.5c19.9,0,30.7,8.1,30.7,23.5c0,14.4-7.2,40.7-7.2,40.7c16.3-19.9,69.6-64.2,123-64.2
	c49.7,0,69.6,22.5,69.6,57c0,41.6-25.3,86.8-25.3,123.9c0,23.5,12.7,32.5,28.9,32.5c15.3,0,22.5-7.2,34.4-18.9
	c0.8-0.8,1.6-1.6,2.4-2.3L456.1,340.1z"/>
</svg>
