<?xml version="1.0" encoding="utf-8"?>
<!-- Generator: Adobe Illustrator 23.0.6, SVG Export Plug-In . SVG Version: 6.00 Build 0)  -->
<svg version="1.1" id="Layer_1" xmlns="http://www.w3.org/2000/svg" xmlns:xlink="http://www.w3.org/1999/xlink" x="0px" y="0px"
	 viewBox="0 0 512 512" style="enable-background:new 0 0 512 512;" xml:space="preserve">
<g>
	<path d="M85.4,398.2V239.3H56v-38.7h29.4v-16.8c0-22.2,6.4-39.4,19.1-51.6c12.7-12.2,30.5-18.4,53.4-18.4c7.3,0,16.3,1.2,26.9,3.7
		l-0.5,40.9c-4.4-1.1-9.7-1.6-16.1-1.6c-19.9,0-29.8,9.3-29.8,27.9v15.9h39.3v38.7h-39.3v158.9H85.4z"/>
	<path d="M341.1,223.9l49.9-91.7h63l-77.4,131.9L456,398.2h-63.7L341.1,305L290,398.2h-63.8l79.5-134.1l-77.5-131.9h63L341.1,223.9z
		"/>
</g>
</svg>
