<?xml version="1.0" encoding="utf-8"?>
<!-- Generator: Adobe Illustrator 23.0.6, SVG Export Plug-In . SVG Version: 6.00 Build 0)  -->
<svg version="1.1" id="Layer_1" xmlns="http://www.w3.org/2000/svg" xmlns:xlink="http://www.w3.org/1999/xlink" x="0px" y="0px"
	 viewBox="0 0 512 512" style="enable-background:new 0 0 512 512;" xml:space="preserve">
<path d="M347.7,133.3c0.3-4.4,1.3-8.7,2.5-12.9c-0.4-5.1,0-10.3-0.8-15.4c-3.8-24.9-16.5-44.7-34.6-61.6
	c-5.5-5.1-11.7-8.8-18.8-11.1c-21.9-7.2-44.3-8.2-66.8-3.4c-22,4.7-39.2,16.6-51.1,36c-7.6,12.4-12.3,25.7-15.2,39.9
	c-0.6,2.8-1.7,5.5-1.1,8.8c3.7-2.1,4.9-6.5,9-8.7c-1,10.7-1.9,20.7-2.9,31c2.8-0.7,3.6-3.2,6.2-3.2c1.1,7.1,0.9,14.2-0.1,21.7
	c4.3-2.3,6-6.5,9-10.6c1.4,5.1,2,9.4,2.1,13.7c0.1,4.4,0,8.7,0,13.8c2.6-5.2,2.8-10.5,5.3-15.4c2.5,3.4,2.2,7.4,4.6,10.2
	c1.4-1.1,0.1-3.1,1.5-3.7c3.5-1.5,2.8,2.4,4.3,3.5c1.2-1.9,0.8-4.1,2.3-5.8c2.8,1.6,3.3,5.4,6.7,6.6c1.2-2.7-0.5-4.8-1.1-6.9
	c-0.1-0.3-0.2-0.7-0.3-1c0,0,9.3,13.3,13.9,17.8c5.1,6.1,11.6,10,18.8,13.1c1.1,0.5,2.2,0.9,3.3,1.4v12c-4.6,1.9-9.3,3.8-13.4,6.7
	c-1.6-1.1-1.7-3.1-2.6-4.7c-4.6-8-14.2-9.5-21.5-6.3c-6.6,2.9-9.9,12.1-7.6,19.6c0.9,2.9,3.7,4.5,4.4,7.4c-3.1,0.4-2.3,2.7-2.3,4.7
	c-1.5,2-1.3,4.3-1.1,6.5c-3.3,1.3-2,4.2-2.3,6.6c-2,1.5-0.9,3.6-1.1,5.5c-3.1,1.5-2,4.2-2.1,6.6c-3.1,1.4-2.1,4.1-2,6.5
	c-2.5,1.6-2.4,4.1-2.3,6.7c-1.6,2-1.2,4.3-1.1,6.6c-2.8,1.1-2.2,3.4-2.1,5.6c-2.3,1.6-2.2,4.1-2.2,6.5c-3.1,4.7-6.1,9.5-8.4,14.7
	c-2.5,5.7-4.2,11.7-4.7,17.9c-0.1,1.6-0.3,3.4,1.4,4.4c1.9,1.1,3.6,0.2,5.1-0.8c3.4-2.1,5.3-5.5,7-8.9c1.4-2.8,3-5.4,5.5-7.4
	c3.9-3.1,5.5-7.1,5-12.1c-0.2-2-0.2-4-0.3-6c1.9-1.7,1.2-4,1.3-6.2c3.2-1.4,2-4.2,2.3-6.6c2-1.5,0.9-3.6,1.2-5.5
	c3-1.5,2-4.2,2.1-6.6c3.1-1.4,2.1-4.2,2.1-6.6c2.5-1.6,2.4-4.1,2.3-6.7c1.7-2,1.2-4.3,1.2-6.5c2.8-1.1,2.2-3.4,2.1-5.6
	c1.4-1.6,1.4-3.5,1.3-5.4c1.3-1.1,1.9-2.6,2.1-4.3c3.7,0.2,7.2-1.2,10.8-1.7c0.4,2.3,0.8,4.7,1.4,7c1.2,4.7,2,9.7,5.6,13.5
	c-0.3,2.7-0.2,5.2,0.5,7.9c0.6,1.9,1.3,3.3,3.4,3.3c0.5,2.1,0.4,4.2,1.2,6.3c0.7,1.9-0.3,4.5,2.5,5.4c-0.4,2.5-0.3,5,0.1,7.4
	c-8.5,1.7-16,4.7-17.8,14.6c-2.6,6.1-3.8,12.6-5.1,19c-2.8,14.6-4,29.4-0.6,44.1c2,8.9,4.6,17.7,7,26.5c-0.4,1.7,0.3,3.2,0.7,4.8
	c4.9,17.4,9.7,34.8,14.7,52.2c0.9,3.2,1.3,6.3,1.2,9.7c-0.3,11.6,2.1,22.5,9.1,32.1c1.7,2.3,3.5,4.9,7,4.4l-0.1-0.2
	c2.9,0.5,4.2-1.3,5.7-3.3c6.2-8.5,8.1-18.2,8.7-28.3c0.2-4.2,0.1-8.4,1.4-12.5c3.2-10.6,6.4-21.3,9.6-31.9c2.1-7.2,4-14.4,6.3-21.5
	c0.6-1.7,1.9-12.8,3.2-16.3c3.9-10.1,5.7-20.8,5.5-31.5c-0.2-9.5-0.9-19.2-3.4-28.6c-1.5-5.6-1.9-11.4-5-16.5
	c0-7.8-4.9-12-11.1-15.4c-1.9-1-4.5-0.7-5.5-3.1c0-1.5,0.1-3,0.1-4.5c3.4-3.7,2.8-8.5,3.5-12.9c3.9-3,3-7.2,2.8-11.2
	c3.1-3,4.3-7,5.3-11c0.8-3.1,1.5-6.2,2.2-9.4c3.7,0.7,7.3,2,11.2,1.6c-0.1,1.8,1,3.1,1.8,4.5c-0.9,2.3,0.1,3.9,1.9,5.2
	c-2,3.5,1.6,6.1,1.6,9.2c0.2,1.2,0.5,2.3,1.6,3c0.3,2.4-0.9,5.4,2.5,6.7c-1,2.4-0.6,4.5,1,6.4c-0.3,2.7,0.5,5.1,2.5,7
	c-0.8,2.2-1,4.2,1.5,5.4c0.2,2.4-0.8,5.1,2.2,6.5c-0.9,2.5-0.5,4.8,1.5,6.6c-0.1,0.9,0,1.9-0.3,2.7c-1.9,6.6,0.7,11.9,5.6,16
	c2.2,1.8,3.7,3.9,4.9,6.4c1.6,3.6,3.9,6.6,6.9,9c1.5,1.2,3.3,1.6,5.1,0.7c1.7-0.9,1.8-2.8,1.5-4.4c-2-12.2-5.7-23.7-14.4-33
	c1-1.9,1.4-3.7-0.7-5.2c-0.4-2.8-0.2-5.8-2.8-7.9c0.7-1.9,0.5-3.6-0.9-5.1c0.3-3-0.6-5.7-2.6-8c1.1-2.3-0.2-3.8-1.8-5.2
	c0.4-2.6,0.8-5.1-2-6.8c0.6-2,0.7-3.9-1.1-5.4c-0.3-2.5,0.9-5.5-2.6-6.7c1.2-2.7,0.6-4.9-1.9-6.5c1.6-2,0.2-4-0.1-6
	c-0.1-2,1.1-3.5,1.9-5.1c3.6-7.2-0.7-17.4-8-20.7c-7-3.1-15.2-2.4-20.6,5.8c-0.9,1.3-1.1,3.1-2.5,4.1c-3.5-2.2-7.3-3.9-11.1-5.5
	c0-0.2,0-0.3,0-0.5V191c1.1-0.4,2.2-0.9,3.3-1.3c7.2-3.1,13.7-7,18.8-13.1c4.6-4.5,7.3-10.3,11-15.4c0.9,4.6-3.2,7.1-4.3,10.9
	c2.7,0,4.7-1.7,6.7-3.2c5.4-4.1,10.4-8.5,14.2-14c1.9,1,1,3,2.1,4.4c2.3-3.2,3-7,5.3-9.5c2.1,0.5,1.8,3.1,3.7,3.3
	c2-0.8,2-3.5,4.1-4.1c1.5,0.9,0.1,2.9,1.7,4.1c2.8-3.5,4.5-7.8,8.1-10.8c2.7,1.4,4.4,4.3,8,4.2C348.4,142,347.4,137.7,347.7,133.3z"
	/>
</svg>
