<svg version="1.1" id="Layer_1" xmlns="http://www.w3.org/2000/svg" xmlns:xlink="http://www.w3.org/1999/xlink" x="0px" y="0px" width="129px" height="40px" viewBox="0 0 129 40" enable-background="new 0 0 129 40" xml:space="preserve"><path fill="#000000" d="M68.8,20.5c0,4.6,4.101,8.4,9.2,8.4s9.2-3.801,9.2-8.4c0.1-4.6-4.101-8.3-9.2-8.3S68.8,15.9,68.8,20.5z M78,13.9c3.8,0,5.5,3,5.5,6.6c0.1,3.7-1.7,6.6-5.5,6.6c-3.7,0-5.5-3-5.5-6.6C72.5,16.9,74.3,13.9,78,13.9z"/><path fill="#000000" d="M90.4,7.4v14.4c0,4.601-0.5,5.3-3.601,5.3v1h10.4v-1C94.2,27.2,93.6,26.4,93.6,21.8V0l-6.8,1.1v1 C89.9,2.1,90.4,2.9,90.4,7.4z"/><path fill="#000000" d="M109.1,27.1c-3,0-3.6-0.8-3.6-5.3V21c0.1-0.1,0.1-0.2,0.2-0.2l0.2-0.2l7.5,7.4h5.1v-1 c-0.6,0.2-1.9-0.2-2.7-0.9l-7.6-7.7c1.3-1.2,2.2-1.9,3.2-2.5c2.3-1.6,3.899,1.5,5.6,0.1c0.8-0.6,0.7-1.5,0.2-2.2 c-0.9-1.2-3.3-1.6-5.8,0.1c-1.801,1.2-3.2,2.3-5.9,4.9V0l-6.8,1.1v1c3.1,0,3.6,0.8,3.6,5.3v14.4c0,4.601-0.5,5.3-3.6,5.3v1H109.1 V27.1z"/><path fill="#000000" d="M57.1,27.2v1h10.4v-1c-3.1,0-3.6-0.8-3.6-5.3v-7.3h4.6V13H64V8.6c0-5.2,1.1-7.1,3.4-7.1 C70.3,1.5,69,5,71.3,5c1,0,1.5-0.7,1.5-1.6c0-1.5-1.6-3.4-4.6-3.4c-3.7,0-7.5,2.4-7.5,8.6V13H57v1.6h3.7v7.3 C60.7,26.5,60.1,27.2,57.1,27.2z"/><path fill="#000000" d="M52.1,21.8V19c0-3.9-1.8-6.8-5.9-6.8c-2.9,0-5,1.6-6.2,3.1v-2.4c0-6.5-2.9-10-7.5-10c-4.1,0-7.3,2.1-7.3,4 c0,1.1,1,1.9,2.1,1.9c1.1,0,1.6-0.7,2.1-1.6c0.8-1.5,2.1-2.6,3.8-2.6c3.4,0,4.4,2.7,4.4,4.9c0,1.7-0.5,2.8-2.3,3.4L33,13.3v1 c3,0,3.6,0.7,3.6,5.3v2.3c0,4.6-0.6,5.3-3.6,5.3v1h10v-1c-2.8,0-3.2-0.601-3.2-5.3v-3c0-2.5,2.7-4.6,5.2-4.6c2.7,0,3.8,1.9,3.8,4.9 v2.6c0,4.601-0.6,5.3-3.6,5.3v1h10.4v-1C52.6,27.2,52.1,26.4,52.1,21.8z"/><path fill="#000000" d="M9.5,18.4c1.3-1.2,2.2-1.9,3.2-2.5c2.3-1.6,3.9,1.5,5.6,0.1c0.8-0.6,0.7-1.5,0.2-2.2 c-0.9-1.2-3.3-1.6-5.8,0.1c-1.8,1.2-3.2,2.3-5.9,4.9V0L0,1.1v1c3.1,0,3.6,0.8,3.6,5.3v14.4c0,4.601-0.5,5.3-3.6,5.3v1h10.4v-1 c-3,0-3.6-0.8-3.6-5.3V21C6.9,21,7,20.9,7,20.8l0.2-0.2l7.5,7.4h5.1v-1c-0.6,0-1.9-0.3-2.7-1.1L9.5,18.4z"/><path fill="#000000" d="M28,21.8v-9.7l-6.8,1.1v1c3,0,3.6,0.7,3.6,5.3v2.3c0,4.601-0.6,5.3-3.6,5.3v1h10.4v-1 C28.5,27.2,28,26.4,28,21.8z"/></svg>