<svg xmlns="http://www.w3.org/2000/svg" xmlns:xlink="http://www.w3.org/1999/xlink" version="1.1" id="Layer_1" x="0" y="0" viewBox="0 0 954.6 159" xml:space="preserve" enable-background="new 0 0 954.6 159">
  <path d="M298.8 73.8c16.8 0 26.7 11.7 26.7 30v53.1H303v-48.3c0-8.7-3.9-14.7-11.7-14.7 -5.7 0-11.1 3.6-12.6 10.5v52.5h-22.8v-48.3c0-8.7-3.6-14.7-11.4-14.7 -5.7 0-11.4 3.6-12.9 10.5v52.5h-22.5V75.6h22.5v6.6c3.9-5.1 11.4-8.7 20.7-8.7 9.6 0 17.4 4.5 21.9 10.5C279.6 78.6 287.4 73.8 298.8 73.8zM412.8 130.5c-3 17.4-15.6 28.5-36 28.5 -23.7 0-39.6-17.4-39.6-42.6 0-24.6 16.5-42.6 39.3-42.6 24 0 36.9 16.5 36.9 40.5v6.9h-54.3c0.6 12.3 7.8 19.5 17.7 19.5 7.8 0 13.2-3.3 15-10.2L412.8 130.5zM359.7 107.7h31.5c-0.3-8.7-5.4-15.3-14.7-15.3C367.8 92.4 361.5 97.5 359.7 107.7zM478.8 150.3c-3.6 4.5-11.7 8.7-20.4 8.7 -23.7 0-36.9-19.2-36.9-42.6s13.2-42.6 36.9-42.6c8.7 0 16.8 4.2 20.4 8.7V38.7h22.8v118.5h-22.8V150.3zM478.8 103.2c-2.7-5.4-8.7-9.6-15.3-9.6 -12.3 0-19.5 9.9-19.5 23.1 0 12.9 7.2 22.8 19.5 22.8 6.6 0 12.9-3.9 15.3-9.6V103.2zM523.5 93.9h-12.3V75.6h12.3V53.4H546v22.2h18v18.3h-18v35.7c0 6.3 3.6 9.3 9.3 9.3 3.6 0 7.2-1.2 9.9-2.7v20.1c-3 1.5-8.7 2.4-14.7 2.4 -16.5 0-27-8.1-27-26.1L523.5 93.9 523.5 93.9zM623.1 157.2v-4.5c-2.7 2.7-10.8 5.7-19.8 5.7 -16.5 0-30.3-9.6-30.3-26.4 0-15.6 13.8-26.1 31.5-26.1 7.2 0 15.3 2.4 18.6 4.8v-6c0-6.9-4.2-12.6-13.2-12.6 -6.3 0-10.2 3-12 7.8h-21.6c2.4-14.7 15.6-26.1 34.2-26.1 21.6 0 34.2 11.7 34.2 31.2v51.9h-21.6V157.2zM623.1 129c-2.1-4.5-8.1-7.2-14.7-7.2 -7.2 0-14.4 3-14.4 9.9 0 7.2 7.2 9.9 14.4 9.9 6.6 0 12.9-2.7 14.7-7.2V129zM678 132.9c1.8 5.7 6.9 9 13.8 9 6.9 0 11.4-2.7 11.4-8.1 0-3.6-2.7-5.4-8.1-6.9l-16.5-3.6c-12.3-3-21-9.3-21-23.1 0-15.9 14.1-26.4 32.4-26.4 20.7 0 31.8 9.9 34.5 25.2h-21.6c-1.5-4.5-5.4-8.1-12.9-8.1 -5.4 0-10.8 2.7-10.8 7.8 0 3.3 2.1 5.1 7.2 6.3l16.8 3.9c14.1 3.6 21.6 11.4 21.6 23.7 0 16.5-14.4 26.4-33.3 26.4 -19.8 0-33.9-9.6-36.3-26.1H678zM767.1 124.5l-6.6 7.2v25.8H738V38.7h22.5v67.2l27.9-30.3h28.2l-33 34.5 34.2 46.8h-26.7L767.1 124.5 767.1 124.5zM891.9 130.5c-3 17.4-15.6 28.5-36 28.5 -23.7 0-39.6-17.4-39.6-42.6 0-24.6 16.5-42.6 39.3-42.6 24 0 36.9 16.5 36.9 40.5v6.9h-54.3c0.6 12.3 7.8 19.5 17.7 19.5 7.8 0 13.2-3.3 15-10.2L891.9 130.5 891.9 130.5zM838.8 107.7h31.5c-0.3-8.7-5.4-15.3-14.7-15.3C846.9 92.4 840.9 97.5 838.8 107.7zM954.6 98.1c-3-1.8-7.2-2.7-11.4-2.7 -7.8 0-13.8 3.9-15.6 11.4v50.4h-22.5V75.6h22.5v8.1c3.6-5.7 10.2-9.9 18.3-9.9 3.9 0 7.2 0.6 8.7 1.5V98.1zM69.9 75.6h54v8.7h-54V75.6zM69.9 111.6h54v8.7h-54V111.6zM69.9 93.6h54v8.7h-54V93.6z"/>
  <path d="M84.3 34.2H57V6.6C57 3 53.7 0 50.1 0h-9c-3.6 0-6.6 3-6.6 6.6v27.6H6.6c-3.6 0-6.6 3-6.6 6.6v9C0 53.7 3 57 6.6 57h27.6v27.6c0 3.6 3 6.6 6.6 6.6h9c3.6 0 6.6-3 6.6-6.6V57H84c3.6 0 6.6-3 6.6-6.6v-9C91.2 37.2 88.2 34.2 84.3 34.2z"/>
  <path d="M131.1 38.7H99.6V57h31.5c3.3 0 5.7 2.7 5.7 5.7v70.5c0 3.3-2.7 5.7-5.7 5.7H62.7c-3.3 0-5.7-2.7-5.7-5.7V99.6H38.7v33.6c0 13.2 10.8 24 24 24h68.4c13.2 0 24-10.8 24-24V62.7C155.1 49.5 144.3 38.7 131.1 38.7z"/>
</svg>
