<?xml version="1.0" encoding="utf-8"?>
<!-- Generator: Adobe Illustrator 19.2.1, SVG Export Plug-In . SVG Version: 6.00 Build 0)  -->
<svg version="1.1" id="Layer_1" xmlns="http://www.w3.org/2000/svg" xmlns:xlink="http://www.w3.org/1999/xlink" x="0px" y="0px"
	 viewBox="0 0 800 278.7" style="enable-background:new 0 0 800 278.7;" xml:space="preserve">
<g>
	<path d="M8.1,118.9c0.4,0.1,0.8,0.1,1.2,0.1c3.1,0,5.9-2.3,6.6-5.5c1.3-6.4,3.1-12.7,5.3-18.8c17.7-48.7,63-81.5,112.7-81.5
		c49.5,0,94.8,32.6,112.6,81.2c2.2,6,4,12.2,5.3,18.5c0.7,3.6,4.2,5.9,7.8,5.1c3.6-0.7,5.9-4.2,5.1-7.8c-1.4-6.9-3.4-13.8-5.8-20.4
		C239.1,36.1,188.9,0,133.9,0C78.7,0,28.4,36.2,8.8,90.1c-2.4,6.7-4.4,13.7-5.8,20.6c0,0.1-0.1,0.4-0.1,0.5l6.5,1.3l-6.5-1.2
		C2.2,114.9,4.6,118.1,8.1,118.9z"/>
	<path d="M267.6,142.2c0.3-2.7-1.1-5.5-3.7-6.7c-9.2-4.4-20.6-8.2-33.6-11.3c-4.1-1-8.3-1.9-12.6-2.7c-9-1.7-18.6-3.2-28.6-4.3
		c-2-19.8-10.3-34.4-25.6-44.6c-16.8-11.1-37.7-11.8-56-1.7c-17.7,9.7-28.8,27.3-29.8,46.6c-29.9,3.7-55.8,10.2-73.9,19
		c-0.2,0.1-0.4,0.2-0.6,0.3c-0.2,0.1-0.3,0.2-0.5,0.3c-0.1,0.1-0.2,0.2-0.4,0.3c-0.2,0.2-0.5,0.4-0.7,0.6c0,0-0.1,0.1-0.1,0.1
		c-1,1.2-1.7,2.7-1.6,4.4c0.1,3.7,0.3,7.3,0.6,11c0.1,1,0.2,1.9,0.4,2.9c0.8,7,2.1,13.9,3.9,20.7c0.5,1.8,0.9,3.7,1.5,5.5
		c0.7,2.3,1.5,4.7,2.4,6.9c1.8,4.8,3.8,9.5,6,14.1c2.1,4.3,4.4,8.4,7,12.4c2,3.2,4.1,6.3,6.3,9.3c2.7,3.6,5.5,7,8.4,10.2
		c4.1,4.4,8.4,8.6,12.9,12.4c3.7,3.2,7.6,6.1,11.7,8.8c5,3.4,10.3,6.4,15.8,9.1c5.2,2.5,10.7,4.7,16.2,6.6
		c5.7,1.9,11.5,3.3,17.4,4.4c7.6,1.4,15.4,2.1,23.3,2.1c0.1,0,0.2,0,0.4,0c36.5-0.1,71.1-15.7,96-42.6c4.7-5.1,9.1-10.5,13.1-16.4
		c0.4-0.6,0.8-1.3,1.2-1.9c4.2-6.3,7.8-13,10.8-19.9c2.3-5.3,4.3-10.7,6-16.2C265.2,169.1,267.4,155.9,267.6,142.2
		C267.6,142.3,267.6,142.3,267.6,142.2z M229.8,137.6c8.9,2.3,16.9,4.8,23.8,7.7c-9.2,4.2-18,7.9-26.7,10.9c-5,1.8-9.9,3.3-14.8,4.7
		c-9.5,2.6-18.9,4.4-28.6,5.3c3.4-11.7,5.4-23.7,5.9-35.9c9.7,1.1,18.9,2.6,27.5,4.3C221.4,135.6,225.7,136.5,229.8,137.6z
		 M194.8,199.4c-8.6,1.1-17.3,1.7-26.1,1.6c3.9-6.8,7.3-13.8,10.1-21c9.5-0.5,18.8-1.9,28-4C203.6,183.8,199.6,191.7,194.8,199.4z
		 M168.7,233c-7.5,0.1-15-0.4-22.6-1.5c5.2-5.6,10-11.4,14.4-17.5c3.3,0.2,6.6,0.3,9.9,0.3c5,0,9.9-0.2,14.8-0.6
		C180.1,220.3,174.6,226.8,168.7,233z M107.8,221c4.2-4.5,8.2-9.1,11.8-14c8.6,2.5,17,4.3,25.4,5.5c-4.4,5.6-9.3,11-14.6,16
		C123,226.6,115.5,224.2,107.8,221z M17.8,174.2c-1.4-5.1-2.5-10.2-3.2-15.4c19.4-5,44.6-3.7,70.2,3.4c-2.5,5.4-5.4,10.6-8.6,15.6
		C51.7,171.5,31.2,172.3,17.8,174.2z M153.8,200.2c-8.7-0.8-17.4-2.4-26.3-4.7c3.7-5.9,7.1-12.1,10-18.4c9.4,1.7,18.3,2.7,27,2.9
		C161.5,187,157.9,193.7,153.8,200.2z M114.4,191.6c-4-1.4-8.1-3-12.2-4.8c-4.5-1.9-8.8-3.6-13.1-5c3-5,5.8-10.2,8.2-15.5
		c9.4,3.3,18.4,6,26.9,8.1C121.4,180.2,118.1,186,114.4,191.6z M81.7,193.1c5,1.6,10.1,3.5,15.3,5.8c3.1,1.4,6.2,2.6,9.3,3.8
		c-3.6,4.5-7.4,8.7-11.5,12.8c-8.3-3.3-16.6-6.1-24.8-8.2C74.1,202.8,78,198,81.7,193.1z M113.8,82.4c13.9-7.7,29.7-7.3,42.3,1.1
		c11.3,7.5,17.5,17.9,19.5,32.3c-13.3-1.1-27.3-1.7-41.6-1.7c-14.8,0-29.2,0.7-43,1.9C92.5,102.1,100.9,89.6,113.8,82.4z M134,127.3
		c1.8,0,3.7,0,5.5,0c2.8,0,5.5,0.1,8.2,0.2c9.8,0.3,19.3,0.8,28.5,1.6c-0.5,12.8-2.7,25.6-6.7,37.8c-8.6,0-17.5-0.7-26.9-2.3
		c-4.3-0.7-8.6-1.5-13.1-2.6c-8.6-2-17.7-4.7-27.2-8c-0.3-0.1-0.5-0.2-0.8-0.3c-3.9-1.4-7.9-2.6-11.8-3.8
		c-25.7-7.4-50.7-9.3-71.7-5.4C45.8,133.7,88.1,127.3,134,127.3z M21.9,187c11.2-1.4,27.1-1.8,46,2.4c-4.1,5.2-8.5,10.1-13.3,14.8
		c-8.9-1.4-17.5-2.1-25.7-1.9C26.3,197.4,23.9,192.3,21.9,187z M47.4,227.8c-3-3.2-5.8-6.6-8.5-10.1c-0.5-0.7-1-1.4-1.5-2.1
		c1.3,0.1,2.6,0.1,4,0.2c5.3,0.4,11.2,1.2,17.5,2.5c7.6,1.5,16,3.9,25,7.2c-6.8,5.7-14.1,10.9-21.9,15.6
		C56.8,237,51.9,232.6,47.4,227.8z M73.9,249.1c8.5-5.4,16.4-11.5,23.7-18.1c7.2,3.2,14.3,5.8,21.3,7.9c-8.1,6.9-17,13.7-26.8,19
		C85.8,255.5,79.7,252.5,73.9,249.1z M109.2,263c9.3-6.2,17.6-13.3,25.2-20.2c7.2,1.4,14.2,2.4,21.2,2.8
		c-8.7,7.9-16.9,14.5-25.1,19.9C123.2,265.3,116.1,264.4,109.2,263z M155.1,263.6c6.3-5.2,12.7-11.1,19.3-17.7
		c9.7-0.4,19.3-1.6,28.9-3.4C188.9,253.1,172.5,260.3,155.1,263.6z M232.4,212.4c-2.9,4.3-6.1,8.4-9.4,12.2
		c-11.9,3.3-23.7,5.8-35.4,7.2c5.5-6.5,10.6-13.3,15.1-20.1c11.9-1.9,23.6-4.6,35.1-8C236.1,206.6,234.3,209.5,232.4,212.4z
		 M211.6,196.6c4.4-8.2,8-16.5,10.9-24.9c9.9-3.1,19.9-7,30.3-11.6c-1.4,9.4-3.9,18.5-7.3,27.3C234.4,191.1,223.1,194.2,211.6,196.6
		z"/>
	<g>
		<path d="M378.3,80.1c1,8.6,1,20,0,28.6c-1.4,12.3-10.2,22.6-24.3,22.6s-22.9-10.3-24.3-22.6c-1-8.6-1-20,0-28.6
			c1.4-12.3,10.2-22.6,24.3-22.6S376.9,67.9,378.3,80.1z M363.9,108.7c1-8.6,1-20,0-28.6c-0.5-4.5-3.7-8.2-9.9-8.2s-9.4,3.7-9.9,8.2
			c-1,8.6-1,20,0,28.6c0.5,4.5,3.7,8.2,9.9,8.2S363.4,113.2,363.9,108.7z"/>
		<path d="M414.9,58.7c11.8,0,21.5,9.7,21.5,21.5c0,11.8-9.7,21.4-21.5,21.4h-9.2c-0.6,0-1,0.4-1,1v25.5c0,1.1-0.9,2-2,2h-10.2
			c-1.1,0-2-0.9-2-2V60.7c0-1.1,0.9-2,2-2H414.9z M405.7,73c-0.6,0-1,0.4-1,1v12.3c0,0.6,0.4,1,1,1h9.2c3.9,0,7.1-3.2,7.1-7.1
			c0-3.9-3.3-7.2-7.1-7.2H405.7z"/>
		<path d="M459.3,114.8c0,0.6,0.4,1,1,1h24.2c1.1,0,2,0.9,2,2v10.2c0,1.1-0.9,2-2,2H447c-1.1,0-2-0.9-2-2V60.7c0-1.1,0.9-2,2-2h37.1
			c1.1,0,2,0.9,2,2v10.2c0,1.1-0.9,2-2,2h-23.8c-0.6,0-1,0.4-1,1v12.3c0,0.6,0.4,1,1,1h23c1.1,0,2,0.9,2,2v10.2c0,1.1-0.9,2-2,2h-23
			c-0.6,0-1,0.4-1,1V114.8z"/>
		<path d="M530.2,130.2c-1.7,0-2.4-0.9-2.8-1.7l-13.9-35.9c-0.2-0.6-0.9-0.4-0.9,0.2v35.3c0,1.1-0.9,2-2,2h-10.2c-1.1,0-2-0.9-2-2
			V60.7c0-1.1,0.9-2,2-2h12.2c1.5,0,2.2,0.9,2.6,1.8l14,38.8c0.2,0.6,0.9,0.4,0.9-0.2V60.7c0-1.1,0.9-2,2-2h10.2c1.1,0,2,0.9,2,2
			v67.4c0,1.1-0.9,2-2,2H530.2z"/>
		<path d="M597.4,102.6v25.5c0,1.1-0.9,2-2,2h-10.2c-1.1,0-2-0.9-2-2V60.7c0-1.1,0.9-2,2-2h35.8c1.1,0,2,0.9,2,2v10.2
			c0,1.1-0.9,2-2,2h-22.5c-0.6,0-1,0.4-1,1v12.3c0,0.6,0.4,1,1,1h21.4c1.1,0,2,0.9,2,2v10.2c0,1.1-0.9,2-2,2h-21.4
			C597.8,101.6,597.4,102,597.4,102.6z"/>
		<path d="M681,80.1c1,8.6,1,20,0,28.6c-1.4,12.3-10.2,22.6-24.3,22.6c-14.1,0-22.9-10.3-24.3-22.6c-1-8.6-1-20,0-28.6
			c1.4-12.3,10.2-22.6,24.3-22.6C670.8,57.5,679.6,67.9,681,80.1z M666.6,108.7c1-8.6,1-20,0-28.6c-0.5-4.5-3.7-8.2-9.9-8.2
			c-6.2,0-9.4,3.7-9.9,8.2c-1,8.6-1,20,0,28.6c0.5,4.5,3.7,8.2,9.9,8.2C663,116.9,666.1,113.2,666.6,108.7z"/>
		<path d="M740.9,80.1c1,8.6,1,20,0,28.6c-1.4,12.3-10.2,22.6-24.3,22.6c-14.1,0-22.9-10.3-24.3-22.6c-1-8.6-1-20,0-28.6
			c1.4-12.3,10.2-22.6,24.3-22.6C730.7,57.5,739.5,67.9,740.9,80.1z M726.5,108.7c1-8.6,1-20,0-28.6c-0.5-4.5-3.7-8.2-9.9-8.2
			c-6.2,0-9.4,3.7-9.9,8.2c-1,8.6-1,20,0,28.6c0.5,4.5,3.7,8.2,9.9,8.2C722.8,116.9,726,113.2,726.5,108.7z"/>
		<path d="M776.5,58.7c12.6,0,21.3,10.3,22.8,22.6c1,8.6,1,17.8,0,26.4c-1.4,12.3-10.2,22.6-22.8,22.6H755c-1.1,0-2-0.9-2-2V60.7
			c0-1.1,0.9-2,2-2H776.5z M768.3,73c-0.6,0-1,0.4-1,1v40.9c0,0.6,0.4,1,1,1h8.2c4.7,0,7.9-3.8,8.4-8.3c1-8.6,1-17.8,0-26.4
			c-0.5-4.5-3.7-8.3-8.4-8.3H768.3z"/>
	</g>
	<g>
		<path d="M364.4,220.4c-1.1,0-1.5-0.3-2.1-1.6l-24.4-55.7c-0.2-0.4-0.8-0.3-0.8,0.2v55.2c0,1.1-0.9,1.9-2,1.9h-2
			c-1.1,0-2-0.9-2-1.9v-64.1c0-1.1,0.9-1.9,2-1.9h5.3c1.1,0,1.5,0.3,2.1,1.6l24.4,55.2c0.2,0.4,0.8,0.3,0.8-0.2v-54.7
			c0-1.1,0.9-1.9,2-1.9h2c1.1,0,2,0.9,2,1.9v64.1c0,1.1-0.9,1.9-2,1.9H364.4z"/>
		<path d="M389,213.3c0,0.6,0.4,1,1,1h26.7c1.1,0,2,0.9,2,1.9v2.3c0,1.1-0.9,1.9-2,1.9h-32.2c-1.1,0-2-0.9-2-1.9v-64.1
			c0-1.1,0.9-1.9,2-1.9h32c1.1,0,2,0.9,2,1.9v2.3c0,1.1-0.9,1.9-2,1.9H390c-0.6,0-1,0.4-1,1v22c0,0.6,0.4,1,1,1h25.3
			c1.1,0,2,0.9,2,1.9v2.2c0,1.1-0.9,1.9-2,1.9H390c-0.6,0-1,0.4-1,1V213.3z"/>
		<path d="M451.4,159.7v58.8c0,1.1-0.9,1.9-2,1.9h-2.6c-1.1,0-2-0.9-2-1.9v-58.8c0-0.6-0.4-1-1-1h-15.1c-1.1,0-2-0.9-2-1.9v-2.3
			c0-1.1,0.9-1.9,2-1.9h38.8c1.1,0,2,0.9,2,1.9v2.3c0,1.1-0.9,1.9-2,1.9h-15C451.8,158.7,451.4,159.1,451.4,159.7z"/>
		<path d="M497,220.4h-5.7c-0.9,0-1.7-0.5-1.9-1.5l-13.9-64.5c-0.2-1,0.4-1.9,2-1.9h2.5c0.9,0,1.7,0.4,1.9,1.5l11.5,55.5
			c0.1,0.4,0.3,0.6,0.6,0.6h0.2c0.3,0,0.5-0.2,0.6-0.6l10.8-55.5c0.2-1,1-1.5,1.9-1.5h3.5c0.9,0,1.7,0.5,1.9,1.5l11.6,55.5
			c0.1,0.4,0.3,0.6,0.6,0.6h0.2c0.3,0,0.5-0.2,0.6-0.6l12.5-55.5c0.2-1.1,1-1.5,1.9-1.5h2.4c1.6,0,2.2,1,2,1.9L530.2,219
			c-0.2,1-1,1.5-1.9,1.5h-5.7c-0.9,0-1.7-0.5-1.9-1.5l-10.7-51.8c-0.1-0.5-0.7-0.5-0.8,0L498.9,219C498.7,220,497.9,220.4,497,220.4
			z"/>
		<path d="M595.8,171.9c1.1,7.8,1.1,21.3,0,29.1c-1.7,12.5-10.5,20.2-22.8,20.2s-21-7.7-22.8-20.2c-1.1-7.9-1.1-21.4,0-29.1
			c1.5-10.6,9.3-20.2,22.8-20.2C586.5,151.7,594.3,161.3,595.8,171.9z M589,201c1.2-8,1.2-21.2,0-29.1c-1.1-7.1-6.2-14-15.9-14
			s-14.8,6.9-15.9,14c-1.2,8-1.2,21.2,0,29.1c0.8,5.6,4.9,14,15.9,14S588.2,206.7,589,201z"/>
		<path d="M614.7,193.3c-0.6,0-1,0.4-1,1v24.3c0,1.1-0.9,1.9-2,1.9h-2.4c-1.1,0-2-0.9-2-1.9v-64.1c0-1.1,0.9-1.9,2-1.9h17.4
			c11.8,0,21.4,9.1,21.4,20.4c0,8.7-4.8,14.1-12.2,18.4c-1.2,0.8-1.5,1.6-0.7,3.1l12.9,23.1c0.8,1.4,0.1,2.9-1.9,2.9h-2.2
			c-1.6,0-2.4-0.8-3-1.9l-13.1-24.1c-0.3-0.6-0.8-1.2-1.9-1.2H614.7z M614.7,158.7c-0.6,0-1,0.4-1,1v26.4c0,0.6,0.4,1,1,1h11.9
			c8.2,0,14.9-6.4,14.9-14.2c0-7.8-6.7-14.2-14.9-14.2H614.7z"/>
		<path d="M664,191.4c-0.2-0.3-0.8-0.3-0.8,0.2v26.9c0,1.1-0.9,1.9-2,1.9h-2.4c-1.1,0-2-0.9-2-1.9v-64.1c0-1.1,0.9-1.9,2-1.9h2.4
			c1.1,0,2,0.9,2,1.9v25.6c0,0.5,0.6,0.5,0.8,0.2l23.5-26.7c0.3-0.4,1.1-1.1,2.7-1.1h1.6c2.5,0,3,2.1,1.7,3.5l-25.2,28.2
			c-0.6,0.8-0.9,1.5-0.1,2.3l27,30.3c1.1,1.3,0.8,3.6-1.8,3.6H691c-1.5,0-2.2-0.9-2.7-1.3L664,191.4z"/>
	</g>
</g>
</svg>
