<?xml version="1.0" encoding="utf-8"?>
<!-- Generator: Adobe Illustrator 23.0.6, SVG Export Plug-In . SVG Version: 6.00 Build 0)  -->
<svg version="1.1" id="Layer_1" xmlns="http://www.w3.org/2000/svg" xmlns:xlink="http://www.w3.org/1999/xlink" x="0px" y="0px"
	 viewBox="0 0 900 400" style="enable-background:new 0 0 900 400;" xml:space="preserve">
<style type="text/css">
	.st0{fill:#575757;}
	.st1{fill:#818181;}
</style>
<g>
	<path class="st0" d="M242.1,249.6l-37.9-90.9l15.8-10l44.3,79.9l8.8-92.5l16.3-1.7l8.3,110.1L242.1,249.6z M230.1,257.5l-7.9,2.7
		l-5.4,9.2l3.1,7.9l44.5,40l12.5-4.7l2.7-8l-2.5-10.5l-7.4-7.8l-6.7-5l-26.2-20.9L230.1,257.5z M213.4,282.5l8.3-0.5l36.3,32.9
		l4.6,7.5l-3.9,9l-5.6,2.3l-7.6-3.6l-38.8-28.7l-2.5-11L213.4,282.5z"/>
	<path class="st0" d="M324.7,287L314,256.7l-11.6-7.1l-58.1,4.2l0.6,5.7l4,6.9l8.8,6.2l17,6l9.7,23.2l-6.2,16.3l-13.8,4.5l-0.1,10.9
		l-11,5.7l-41.7-28.7l7.2,29.3c0,0,18.2,15.2,20.2,15.4c2,0.2,17.1,7.1,18,8.8c1,1.7,5.6,16.1,5.6,16.1l66.9-14.4L324.7,287
		L324.7,287z"/>
	<g>
		<path class="st1" d="M610.1,74.8l41.6,62.3l-25.8,104.2l28.5-2.4l41.4-177.8l-26.5,3l-8.8,41.6l-22.7-35.4L610.1,74.8z
			 M299.1,67.4l7.4,179.5l26-2.2l-2.3-68.2c0,0,47-13.5,45.4-62.4S334.3,58.1,299.1,67.4z M327.8,146.9l-2.9-62.3
			c18.5-0.8,27,12,26.6,33.2C351.1,138.5,327.8,146.9,327.8,146.9L327.8,146.9z M432.4,119.8c0,0,17.9-12.2,12.6-38.2
			s-43.1-25.8-65.7-13.3l3.7,114.2l23.5-2.9l-1.5-50.1l8.2-1.3l30.7,68.3l24.8-4.7L432.4,119.8L432.4,119.8z M424,93.5
			c-0.9,13.8-21,14.5-21,14.5l-1.5-27C409.8,76.1,424.9,79.8,424,93.5L424,93.5z"/>
		<path class="st1" d="M501.7,59.4l-47.2,8.3l6.8,103.2l56-10.5l-1.8-22.5l-34.2,5.4l-1.6-17l22.4-3.4l-1-20.4l-22.5,4l-1.3-21.4
			l25.7-5.3L501.7,59.4z M344.3,363.5l-3.7-176.9l22.4-3.9l49.6,115.1L405,184.7l24.9-2.6L441.1,345l-28.5,5.9l-43.7-92l2.4,99.7
			L344.3,363.5z M496.4,195.8l-57.3,9.7l9.2,132.6l63.7-12.3l-2.6-27.7l-39.2,6.4l-1.3-25.7l31.1-5.3l-1.7-25l-32.4,4.6l-1.7-28.7
			l34.1-5.6L496.4,195.8z"/>
		<path class="st1" d="M544.2,163.8l-31.8,5.6l-9,125.2l24.9-3.7l2.2-43.3l18.2-3.1l18.9,48.1l24.9-4L544.2,163.8L544.2,163.8z
			 M530.8,229.4l2.1-43.1l12.9,40.1L530.8,229.4L530.8,229.4z"/>
		<path class="st1" d="M633.4,155.6l-74.2,12.5l2.2,27.9l27.6-4.6l9.5,124.2l24.2-4.3l-9.6-125.1l22.7-4.2L633.4,155.6z M515.3,52.2
			l7.4,106.8l23.6-4.1l-7.5-107.3l28-4.7l-1.6-23L482,34.1l2.1,23.5L515.3,52.2z"/>
		<path class="st1" d="M578,73.5l5.5,82.8l24.2-3.8l-6.3-84l28-4.6l-1.7-23.8l-83.2,14.2l2.2,24.7L578,73.5z"/>
	</g>
</g>
</svg>
