<?xml version="1.0" encoding="utf-8"?>
<!-- Generator: Adobe Illustrator 19.2.0, SVG Export Plug-In . SVG Version: 6.00 Build 0)  -->
<svg version="1.1" id="Layer_1" xmlns="http://www.w3.org/2000/svg" xmlns:xlink="http://www.w3.org/1999/xlink" x="0px" y="0px"
	 viewBox="0 0 426.5 66.3" style="enable-background:new 0 0 426.5 66.3;" xml:space="preserve">
<style type="text/css">
	.st0{fill:#000000;}
</style>
<path class="st0" d="M24.2,21.3L20.1,21c-3.9,0-6.5,1.2-7.6,3.7v25.4H0V10h11.7l0.4,5.2c2.1-3.9,5-5.9,8.8-5.9
	c1.3,0,2.5,0.1,3.5,0.4L24.2,21.3z"/>
<path class="st0" d="M52.1,50.1c-0.4-0.8-0.8-2-1.2-3.6c-2.3,2.9-5.5,4.3-9.6,4.3c-3.8,0-7-1.1-9.6-3.4c-2.6-2.3-4-5.2-4-8.6
	c0-4.4,1.6-7.6,4.8-9.9c3.2-2.2,7.9-3.3,14-3.3h3.9v-2.1c0-3.7-1.6-5.6-4.8-5.6c-3,0-4.4,1.5-4.4,4.4H28.6c0-3.9,1.6-7,4.9-9.4
	s7.5-3.6,12.6-3.6s9.2,1.2,12.1,3.7c3,2.5,4.5,5.9,4.6,10.3V41c0,3.7,0.6,6.5,1.7,8.5v0.6H52.1z M44.3,41.9c1.6,0,2.8-0.3,3.9-1
	c1-0.7,1.8-1.4,2.2-2.3v-6.4h-3.6c-4.4,0-6.5,2-6.5,5.9c0,1.1,0.4,2.1,1.1,2.8C42.1,41.6,43.1,41.9,44.3,41.9z"/>
<path class="st0" d="M84.8,0v10h6.6v8.7h-6.6V37c0,1.5,0.3,2.6,0.8,3.2c0.5,0.6,1.6,0.9,3.2,0.9c1.2,0,2.3-0.1,3.1-0.2v8.9
	c-2.2,0.7-4.6,1.1-7,1.1c-4.3,0-7.5-1-9.5-3c-2.1-2-3.1-5.1-3.1-9.2V18.6h-5.1V10h5.1V0H84.8z"/>
<path class="st0" d="M116.6,50.8c-6.2,0-11.1-1.8-14.9-5.5s-5.7-8.4-5.7-14.3v-1c0-4.1,0.8-7.7,2.3-10.9c1.5-3.1,3.7-5.6,6.7-7.3
	c2.9-1.7,6.4-2.6,10.4-2.6c5.6,0,10.1,1.7,13.3,5.2c3.3,3.5,4.9,8.4,4.9,14.6V34h-24.8c0.4,2.2,1.4,4,2.9,5.3
	c1.5,1.3,3.5,1.9,5.9,1.9c4,0,7-1.4,9.3-4.2l5.7,6.7c-1.6,2.2-3.8,3.9-6.6,5.1C123,50.2,119.9,50.8,116.6,50.8z M115.2,18.9
	c-3.7,0-5.8,2.4-6.5,7.3h12.6v-1c0-2-0.5-3.6-1.5-4.7C118.7,19.4,117.2,18.9,115.2,18.9z"/>
<path class="st0" d="M143.2,10l0.1,6.5c1.5-2.4,3.3-4.2,5.6-5.4c2.2-1.2,4.7-1.8,7.4-1.8c6.3,0,10.3,2.6,12,7.8
	c1.4-2.5,3.3-4.4,5.7-5.8c2.4-1.3,5-2,7.9-2c8.6,0,13,4.7,13.2,14.1v26.8h-4.4V23.7c0-3.6-0.8-6.2-2.3-8c-1.5-1.7-4-2.6-7.4-2.6
	c-3.2,0-5.9,1.1-8.1,3.1c-2.2,2-3.4,4.5-3.7,7.4v26.5h-4.4V23.3c0-3.4-0.8-6-2.4-7.7c-1.6-1.7-4-2.5-7.4-2.5c-2.8,0-5.2,0.8-7.2,2.4
	c-2,1.6-3.5,4-4.4,7.1v27.5h-4.4V10H143.2z"/>
<path class="st0" d="M218,43.7L229.7,10h4.8l-17.1,46.9l-0.9,2.1c-2.2,4.9-5.6,7.3-10.2,7.3c-1.1,0-2.2-0.2-3.4-0.5l0-3.7l2.3,0.2
	c2.2,0,3.9-0.5,5.3-1.6c1.3-1.1,2.5-2.9,3.4-5.5l2-5.4L200.6,10h4.9L218,43.7z"/>
<path class="st0" d="M261.5,50.1c-0.4-0.8-0.8-2-1.2-3.6c-2.3,2.9-5.5,4.3-9.6,4.3c-3.8,0-7-1.1-9.6-3.4c-2.6-2.3-4-5.2-4-8.6
	c0-4.4,1.6-7.6,4.8-9.9c3.2-2.2,7.9-3.3,14-3.3h3.9v-2.1c0-3.7-1.6-5.6-4.8-5.6c-3,0-4.4,1.5-4.4,4.4H238c0-3.9,1.6-7,4.9-9.4
	s7.5-3.6,12.6-3.6c5.1,0,9.2,1.2,12.1,3.7c3,2.5,4.5,5.9,4.6,10.3V41c0,3.7,0.6,6.5,1.7,8.5v0.6H261.5z M253.7,41.9
	c1.6,0,2.8-0.3,3.9-1c1-0.7,1.8-1.4,2.2-2.3v-6.4h-3.6c-4.4,0-6.5,2-6.5,5.9c0,1.1,0.4,2.1,1.1,2.8
	C251.5,41.6,252.5,41.9,253.7,41.9z"/>
<path class="st0" d="M277.7,29.7c0-4.1,0.7-7.6,2-10.8c1.3-3.1,3.2-5.5,5.7-7.2c2.5-1.7,5.4-2.5,8.7-2.5c4.2,0,7.4,1.4,9.8,4.2
	l0.4-3.5h11.3v38.6c0,3.5-0.8,6.6-2.5,9.2c-1.6,2.6-4,4.6-7.1,6c-3.1,1.4-6.7,2.1-10.8,2.1c-2.9,0-5.8-0.6-8.5-1.7
	c-2.8-1.1-4.9-2.6-6.3-4.3l5.2-7.3c2.3,2.7,5.4,4.1,9.2,4.1c5.5,0,8.3-2.8,8.3-8.5v-1.3c-2.4,2.6-5.4,4-9.1,4
	c-4.9,0-8.8-1.9-11.9-5.6c-3-3.7-4.5-8.8-4.5-15V29.7z M290.2,30.5c0,3.3,0.6,5.9,1.9,7.8c1.2,1.9,3,2.9,5.2,2.9
	c2.7,0,4.7-0.9,5.9-2.7V21.6c-1.2-1.8-3.2-2.7-5.8-2.7c-2.2,0-4,1-5.2,3C290.8,23.8,290.2,26.7,290.2,30.5z"/>
<path class="st0" d="M341.4,50.8c-6.2,0-11.1-1.8-14.9-5.5s-5.7-8.4-5.7-14.3v-1c0-4.1,0.8-7.7,2.3-10.9c1.5-3.1,3.7-5.6,6.7-7.3
	c2.9-1.7,6.4-2.6,10.4-2.6c5.6,0,10.1,1.7,13.3,5.2c3.3,3.5,4.9,8.4,4.9,14.6V34h-24.8c0.4,2.2,1.4,4,2.9,5.3
	c1.5,1.3,3.5,1.9,5.9,1.9c4,0,7-1.4,9.3-4.2l5.7,6.7c-1.6,2.2-3.8,3.9-6.6,5.1C347.8,50.2,344.7,50.8,341.4,50.8z M340,18.9
	c-3.7,0-5.8,2.4-6.5,7.3h12.6v-1c0-2-0.5-3.6-1.5-4.7C343.5,19.4,342,18.9,340,18.9z"/>
<path class="st0" d="M373.8,10l0.4,4.7c2.8-3.6,6.6-5.5,11.5-5.5c4.2,0,7.3,1.2,9.4,3.7c2.1,2.5,3.1,6.3,3.2,11.3v25.8h-12.5V24.8
	c0-2-0.4-3.5-1.2-4.5c-0.8-1-2.3-1.4-4.4-1.4c-2.4,0-4.3,1-5.5,2.9v28.3h-12.5V10H373.8z"/>
<path class="st0" d="M419.4,0v10h6.6v8.7h-6.6V37c0,1.5,0.3,2.6,0.8,3.2c0.5,0.6,1.6,0.9,3.2,0.9c1.2,0,2.3-0.1,3.1-0.2v8.9
	c-2.2,0.7-4.6,1.1-7,1.1c-4.3,0-7.5-1-9.5-3c-2.1-2-3.1-5.1-3.1-9.2V18.6h-5.1V10h5.1V0H419.4z"/>
</svg>
