<?xml version="1.0" encoding="utf-8"?>
<!-- Generator: Adobe Illustrator 23.0.6, SVG Export Plug-In . SVG Version: 6.00 Build 0)  -->
<svg version="1.1" id="Layer_1" xmlns="http://www.w3.org/2000/svg" xmlns:xlink="http://www.w3.org/1999/xlink" x="0px" y="0px"
	 viewBox="0 0 2400 800" style="enable-background:new 0 0 2400 800;" xml:space="preserve">
<style type="text/css">
	.st0{fill:#7C7C7C;}
</style>
<path class="st0" d="M1009,704c-6.2-1-12.3-1.9-18.5-2.9c-47.9-7.8-87.9-29.8-119.9-66.3c-29.1-33.1-45.3-71.9-49.7-115.6
	c-4.8-47.7-1.3-94.7,15.3-139.8c23-62.1,66.4-103.2,130.3-121.5c28.3-8.1,57.3-7.2,86.2-2.2c44.6,7.8,82.6,28.2,114.3,60.3
	c33.4,33.7,51.4,74.4,54,121.8c0.6,10.4,0.3,21,0,31.4c-0.5,15.6-11.8,26.6-27.6,26.9c-12,0.2-24,0-36,0.1l-156.9,1.2
	c-40.7,0.3-81.3,0.4-122,0.6h-6.8c1.5,10.1,2.5,19.7,4.3,29.1c6.7,33.2,21.3,62.2,45.6,86.1c21.9,21.5,48.5,33.9,78.5,38.8
	c42.2,6.9,80.3-3.7,114.3-29.2c19.3-14.4,33.4-33.4,44.8-54.4c5.9-10.9,15.4-15.4,27.2-15.1c14.2,0.4,25.7,11.9,25.3,25.1
	c-0.1,3.4-1.1,7-2.7,10c-29,54.4-72.3,91.6-132.2,108.2c-12,3.3-24.5,4.5-36.8,6.7c-1.1,0.2-2.1,0.6-3.2,0.9
	C1027.7,704,1018.3,704,1009,704L1009,704z M1167.2,446.9c-0.4-4.3-0.6-7.7-1-11.2c-4.4-43.4-24.7-78-59.1-104.2
	c-31.6-24-68-32.1-107-28.6c-37.6,3.3-67.6,21-90.3,50.9c-16.3,21.5-26,46-31.8,72.1c-1.6,7.3-2.8,14.6-4.4,23
	C971.8,448.2,1069.1,447.5,1167.2,446.9L1167.2,446.9z M1463,704c-2.6-0.6-5.2-1.5-7.9-1.8c-92-10.6-158.3-81.3-174.1-160.8
	c-5.4-27.3-6.1-54.9-4.2-82.6c1.8-26.4,6.3-52.2,15.2-77.2c20.8-58.1,60-98.3,117.8-119.8c24.1-9,49.2-11.2,74.8-9.3
	c25.1,1.8,49.5,6.9,72.5,17.4c47.2,21.4,83.4,54.4,105.2,102c9.6,21,14.4,43.2,15.6,66.2c0.5,10.1,0.3,20.3,0,30.4
	c-0.5,16-12,27.2-28.2,27.4c-14,0.2-28,0-42,0.1l-149.9,1.2c-40.8,0.3-81.6,0.4-122.4,0.6h-6.7c0.8,7.2,1.4,13.8,2.4,20.3
	c4.9,31.1,16.6,59.2,36.8,83.6c21,25.4,47.8,41.5,79.7,48.2c56.8,11.9,104.9-4.4,144.2-46.8c10-10.8,17.7-23.3,24.9-36.1
	c5.4-9.7,14.3-13.8,24.9-13.8c10.1,0,18.5,4.1,23.7,13.2c3.8,6.7,4.8,13.9,1,21c-21.8,41-52,73.5-94,94.3
	c-22.1,11-45.4,18.2-70,21.1c-1.2,0.1-2.2,0.9-3.4,1.3C1487,704,1475,704,1463,704L1463,704z M1330.4,448.7h6.7
	c18-0.1,36-0.3,54-0.4c50.6-0.3,101.3-0.7,151.9-1l76-0.3h5.3c-0.7-6.4-1.1-12.1-1.9-17.6c-7-46.4-31.2-81.5-70.7-106.1
	c-20.3-12.7-42.9-18.5-66.7-20.5c-48.7-4-88.6,12.4-118.6,51.4c-16.1,21-25.5,45.1-31.3,70.7C1333.3,432.4,1332,440.1,1330.4,448.7
	L1330.4,448.7z M450,573c0.5-1,1.1-2,1.5-3c4.9-11.6,14.9-17.2,27.3-15.2c11.8,1.9,19.5,10.6,20.3,23.1c1.4,20.3,11.8,35.3,27.7,47
	c18.4,13.5,39.3,20.9,61.7,24c17.3,2.4,34.7,3.9,52.3,2.1c22.3-2.3,43.5-8.1,62.3-21c23.9-16.4,33-45.6,28.5-70.1
	c-2.4-12.9-9.8-22.8-20.3-30.4c-11.2-8.1-23.9-13.3-36.9-17.3c-18-5.5-36.1-10.4-54.3-15.1c-20.3-5.3-40.9-9.4-61-15.2
	c-22.5-6.4-44-15.6-62.7-30c-26.7-20.6-38.7-47.9-36.6-81.5c1-16.3,3.8-32.1,10.4-47.1c10.5-23.8,29.1-39.5,52.2-50
	c47.8-21.7,97.1-24.5,147.1-8.9c26.1,8.2,49.6,21.3,68.2,41.9c14.8,16.4,23.7,35.7,27.8,57.3c2.4,12.7-6.9,26.1-19.4,28.5
	c-14.2,2.7-26.3-4.8-29-18.4c-4.7-24.5-19.4-41.1-40.6-52.7c-22.2-12-46-17.1-71.1-16.9c-19,0.1-37.6,2.5-55.1,10.2
	c-13.2,5.8-25,13.6-32.5,26.3c-8.9,15.1-11,31.7-7.3,48.7c2.1,9.6,8.7,16.7,16.3,22.7c11.5,9.1,24.8,15.2,38.8,19.1
	c22.7,6.4,45.7,11.9,68.5,18.1c22,6,44,11.9,65.6,19.1c18.8,6.2,35.7,16.5,50.5,29.8c20.6,18.4,30.9,41.7,31.7,69.3
	c0.6,19.5-1.6,38.6-9.5,56.7c-10.2,23.2-27.5,39.8-49,52.4c-24,14-49.9,21.7-77.6,23.9c-37.7,3-74.5-0.8-109.8-15.2
	c-20.2-8.2-39.2-18.5-54.9-34c-14.2-13.9-23.4-30.6-28-49.9c-1-4.1-2-8.2-3-12.2C450,583.7,450,578.3,450,573z M1950,293
	c-0.7,1.3-1.3,2.6-2,3.9c-3.9,7.9-9.6,13.3-18.9,14.6c-16.6,2.2-32.7,6.2-48,13c-32.9,14.4-55.6,38.9-69.9,71.4
	c-8.8,20.1-14.5,41.2-16.8,63c-1.4,13.3-0.3,27-0.2,40.4c0.2,17.3,0.7,34.6,0.7,51.9c0.1,37.5,0,75-0.2,112.5c0,5.5-0.3,11-0.9,16.4
	c-1.2,11.2-7.2,18.7-18,22.3c-1,0.3-1.9,1-2.9,1.6h-9c-0.8-0.5-1.5-1.3-2.3-1.6c-11.8-4.5-17.9-13.4-17.6-26.1
	c0.2-7.3,0.8-14.6,0.8-21.9c0-46.3,0-92.6-0.2-138.9c-0.1-27.5-0.8-54.9-0.9-82.4c-0.3-47.1-0.3-94.3-0.4-141.4
	c0-11.1,5-19.2,15.1-23.8c15.6-7.1,34.5,5,34.8,22.1c0.1,11.2,0,22.3,0,33.5c0,1.4,0.1,2.8,0.2,5c1.1-1,1.6-1.3,1.9-1.8
	c27.5-33.3,63.3-52.7,104.9-62.4c6.2-1.4,12.4-2.6,18.6-3.7c14.8-2.6,24.2,2.6,30.2,16.5c0.2,0.4,0.6,0.7,0.9,1
	C1950,283,1950,288,1950,293L1950,293z M714,96l3.6,1.5c7.1,2.6,9.8,8.2,6.6,15.1c-1.7,3.7-4.3,7.2-7,10.2
	c-18.3,20.7-36.8,41.2-55.2,61.8c-7.5,8.4-15,16.9-22.6,25.3c-14.2,15.6-32.6,15.8-46.7,0.1c-26.6-29.6-53-59.4-79.4-89.1
	c-2.4-2.7-4.5-5.9-5.9-9.2c-2.7-6.5-0.4-11.2,6.1-14c1.2-0.5,2.3-1.1,3.5-1.7C517,96,714,96,714,96z"/>
</svg>
