<svg xmlns="http://www.w3.org/2000/svg" xmlns:xlink="http://www.w3.org/1999/xlink" version="1.1" id="Layer_1" x="0" y="0" viewBox="0 0 706.6 136.5" xml:space="preserve" enable-background="new 0 0 706.6 136.5">
  <path d="M64 50.2c-6.9-1.8-13.8-3.5-20.7-5.5 -4.7-1.4-9.5-2.7-13.9-4.7 -5.1-2.2-7.3-6.6-6.9-12.2 0.3-5.3 3.4-8.6 8-10.5 7-2.9 14.1-2.8 21.3-0.7 7.2 2.1 11.4 6.8 12.5 14.3 0.1 0.9 0.3 1.7 0.5 2.6 6.1 0 12 0 18.2 0 0.2-6.6-1.5-12.6-5.3-17.9C71.6 7.1 63 2.7 53 1 40.3-1.1 28-0.2 16.9 7.2 7.1 13.6 2.9 23 4.2 34.6c1.2 11 7.9 17.9 17.9 21.6 4.5 1.7 9.3 2.8 13.9 4.1 7.6 2.1 15.1 4.1 22.6 6.4 4.3 1.3 7.6 4.1 8.6 8.9 1.7 8.1-1.6 14.5-9.2 17.8 -5.5 2.3-11.3 2.5-17.2 2 -13.4-1.1-22.1-9-22.3-20.8 0-0.5-0.9-1.5-1.4-1.5C11.5 73 6 73 0 73c0.3 12.2 4.4 22.2 14.1 29.3 7.2 5.3 15.5 7.4 24.3 8.1 11.6 0.8 22.9-0.4 33-6.6 11.1-6.8 15.8-17 14.3-29.9C84.3 62.3 76.1 53.5 64 50.2z"/>
  <path d="M442 41.1c-8.1-9.5-18.8-12.4-30.8-11.1 -8 0.8-14.7 4.1-18.9 11.4 -0.1 0.1-0.4 0.1-0.9 0.3 0-3.4 0-6.6 0-9.9 -5.3 0-10.4 0-15.7 0 0 34.9 0 69.6 0 104.8 4.7 0 9.2-0.1 13.8 0 2.2 0.1 3-0.5 3-2.9 -0.2-10.7-0.1-21.5-0.1-32.2 0-0.9 0-1.8 0.1-3.2 5.5 7.5 12.8 10.6 21.2 11.8 12.9 1.8 24.7-3.6 31.3-14.7 5.4-9.1 6.8-19.1 6.1-29.4C450.5 56.8 448.1 48.2 442 41.1zM428.3 90.4c-9.6 10.8-26.9 8.4-33-5 -5.3-11.7-4.9-23.6 1.9-34.7 5.7-9.5 24-11.7 32.3 1 3.9 6 4.9 12.6 5 19.1C434.1 78.1 433.1 84.9 428.3 90.4z"/>
  <path d="M690 2.8c0 6.5 0 12.8 0 19.1 0 6.3 0 12.7 0 19.1 -5.7-6.9-13-10-21.4-11.2 -13-1.9-25.8 4.4-32.1 16 -5 9.2-5.9 19-5.1 29.1 0.6 7.5 2.5 14.6 6.8 20.9 8 11.7 19.6 15.5 33.1 14.1 6.7-0.6 12.8-3 17.1-8.6 0.7-1 1.3-1.9 2-2.9 0.1 0.1 0.3 0.1 0.5 0.2 0 3.1 0 6.2 0 9.4 5.4 0 10.6 0 15.7 0 0-35.2 0-70.2 0-105.2C701 2.8 695.6 2.8 690 2.8zM685.2 88.6c-4.4 6.9-11.4 9.1-19.4 8 -7.6-1.1-12.5-5.7-15.1-12.6 -1.3-3.4-2.7-6.4-2.7-13.6s0.9-12.7 4.7-18.4c8.1-12.7 27.2-12.5 34.1 0.9C692.9 64.9 692.3 77.2 685.2 88.6z"/>
  <path d="M281 30c-14.7-1.7-26.6 3.7-34.7 16.2 -6.7 10.3-7.9 21.7-5.9 33.6 1.5 8.8 5 16.6 12.1 22.3 11.9 9.6 31 10.9 44.2 3 7.9-4.7 12.8-11.6 14.9-20.9 -5.1 0-9.9 0-14.7 0.1 -0.7 0-1.4 0.9-1.9 1.5 -1.7 2.2-2.9 4.9-4.9 6.8 -4.8 4.4-10.8 4.7-16.9 4 -10-1.1-18.1-12.2-16.3-22.3 18.4 0 36.9 0 55.6 0 1.1-7 0.3-13.5-1.9-19.7C305.5 40.7 295.9 31.8 281 30zM256.7 63c-0.4-9.1 7-20.1 19.6-20.1 10.5 0 19.4 9.1 19.2 20.1C282.6 63 269.8 63 256.7 63z"/>
  <path d="M529.7 43.1c-7.8-9.7-18.4-13.5-30.6-13.4 -10 0-19 2.8-26.3 9.7 -8.8 8.2-11.8 18.8-11.7 30.5 0 1.5-0.1 3 0 4.5 1 11.5 5.2 21.5 14.7 28.6 8.1 6.1 17.5 7.9 27.4 7.1 13.7-1.1 24.4-7.3 30.6-20 4-8.1 4.9-16.7 4-25.6C537.1 56.6 534.7 49.3 529.7 43.1zM517.5 86c-7.6 14.1-27.1 14.9-35.2 1.1C475.9 76 476 64.3 482 53c3.9-7.3 10.5-10.5 18.7-10.1 8.7 0.5 14.7 5.2 17.8 13.1 1.4 3.4 2.7 8.1 2.7 13.9S520.2 81 517.5 86z"/>
  <path d="M609.6 35.1c-12.1-9.4-31.9-6.6-40.8 5.9 -0.5 0.6-0.9 1.2-1.4 1.8 -0.2-0.1-0.4-0.2-0.6-0.3 0-3.5 0-7.1 0-10.7 -5.3 0-10.3 0-15.6 0 0 25.6 0 50.9 0.2 76.3 5.6 0 11 0 16.6 0 0-1.3 0-2.4 0-3.6 0.1-14.7-0.1-29.4 0.3-44 0.2-9.3 7.3-16.6 16.5-17.3 8.6-0.6 14.4 2.2 16 11.8 0.4 2.4 0.6 4.9 0.6 7.4 0 14.2 0 28.3 0 42.5 0 1 0 2.1 0.1 3.2 5.6 0 10.9 0 16.4 0 0.1-0.5 0.2-0.8 0.2-1.1 0-18.2 0.1-36.5-0.2-54.7C617.8 45.5 615.2 39.5 609.6 35.1z"/>
  <path d="M216 34c-5.6 17.8-11.3 35.7-17 53.5 -0.3 0.9-0.7 1.7-1.2 3.2 -1.4-4.2-2.6-7.6-3.7-11.1 -5.1-15.4-10.1-30.7-15.2-46 -0.2-0.7-1.2-1.8-1.8-1.8 -5.6-0.2-11.1-0.1-16.9-0.1 0.2 0.6 0.2 0.9 0.3 1.3 8.9 24.6 17.9 49.2 26.9 73.8 0.2 0.7 1.5 1.5 2.3 1.5 4.9 0.1 9.8 0 14.7 0.1 1.8 0.1 2.6-0.5 3.2-2.2 6.8-19.2 13.7-38.3 20.5-57.4 2-5.5 4-11.1 6.1-16.9 -5.3 0-10.3 0-15.3-0.1C217.1 31.7 216.5 32.4 216 34z"/>
  <path d="M133.7 108c5.6 0 11 0 16.6 0 0-35.2 0-70.2 0-105.2 -5.7 0-11.1 0-16.6 0C133.7 37.9 133.7 72.9 133.7 108z"/>
  <path d="M367.2 29.8c-7.4-0.9-14 0.9-19.4 6 -2.9 2.8-5.3 6.4-7.8 9.5 0-4.2 0-8.8 0-13.4 -5.3 0-10.4 0-15.5 0 0 25.4 0 50.7 0 76.1 5.6 0 11 0 16.7 0.1 0-1.2 0-2.2 0-3.2 0-11-0.1-22.1 0-33.2 0.1-2.9 0.4-5.9 1-8.7 2.7-12 11.4-18.4 23.2-17.2 1.2 0.1 2.4 0.2 3.8 0.4 0-5.2 0.1-10-0.1-14.8C369.1 30.8 367.9 29.9 367.2 29.8z"/>
  <path d="M99.3 108.1c5.5 0 10.9 0 16.5 0 0-25.6 0-50.9 0-76.2 -5.6 0-11.1 0-16.5 0C99.3 57.4 99.3 82.7 99.3 108.1z"/>
  <path d="M99.2 18.4c5.3 0 10.3 0 15.4 0 0.4 0 1.3-0.8 1.3-1.3 0.1-4.7 0.1-9.4 0.1-14.3 -5.8 0-11.2 0-16.8 0C99.2 7.9 99.2 13 99.2 18.4z"/>
</svg>
