<svg xmlns="http://www.w3.org/2000/svg" viewBox="0 0 400 77"><path d="M0 43.9c3.5-1.8 6.9-3.5 10.4-5.3.2 1.4.4 2.5.6 3.6 1.2 5.6 5.2 9.1 10.8 9.6 2.3.2 4.7.1 6.9-.9 2.5-1.1 4.2-2.9 4.4-5.8.2-2.9-1.2-5.1-3.8-6.1-2.4-1-5-1.5-7.6-2.1-2.2-.5-4.4-.8-6.6-1.5-6.1-2-10.8-5.6-12.4-12.3C.8 15.3 4.2 7.4 11.6 3.4c7.9-4.4 16-4.1 23.8 0 4.7 2.5 7.5 6.6 8.7 12-3.3 1.7-6.6 3.3-10 5-.2-.9-.4-1.6-.7-2.3-2.4-8.3-12.1-8.8-16.5-5.5-2.2 1.7-3.4 3.8-3 6.6.4 2.8 2.3 4.4 4.8 5.1 2.9.7 5.8 1.3 8.7 1.8 4.4.8 8.6 2.2 12 5.3 7.7 6.9 7.5 18.7-.3 25.5-4.9 4.2-10.6 5.6-16.9 5.4-3.8-.1-7.6-.8-11-2.6C4.9 56.4 1.1 51.3 0 43.9zM383.7 60.9h-10.3c-.2-1.1-.4-2.3-.7-3.5-1.4 1-2.5 2.1-3.8 2.8-4.7 2.6-9.6 2.4-14.4.7-5-1.8-8.6-5.2-10.9-10-4.1-8.5-2.7-19.2 3.3-26 5.1-5.7 13.3-7.6 20.5-5.2 1.8.6 3.4 1.9 5.3 3V.5h11.1c-.1 20.2-.1 40.2-.1 60.4zm-10.8-20.8c-.4-1.6-.5-3.5-1.2-5.2-1.5-3.8-4.5-5.9-8.6-6-4.2-.1-7.4 1.7-9.2 5.5-1.6 3.3-1.7 6.7-.7 10.2 1.3 4.4 4.7 7 8.9 7.2 4.6.2 8.4-2.3 9.8-6.9.6-1.4.7-3 1-4.8zM203.5 19.9h10.7c.1 1.3.2 2.5.4 4 2-2.1 4.1-3.5 6.6-4.2 9-2.6 20.3.5 23.7 12.9 2.1 7.7 1.5 15.3-3.3 22-5.1 7.2-15.6 9.7-23.3 5.6-1.2-.6-2.3-1.5-3.7-2.5v19.1h-10.8c-.6-1.6-.8-52.2-.3-56.9zm31.2 20.5c-.1-.8-.1-1.7-.2-2.5-.7-4.9-4.3-8.4-9.1-8.8-4.5-.4-8.7 2.3-10.2 6.8-1.2 3.7-1.1 7.3.7 10.8 3.2 6.4 12.4 7 16.5 1.4 1.8-2.3 2.3-5 2.3-7.7zM167.4 43.4H138.2c0 4.9 4.2 8.2 7.5 8.9 5.3 1.1 8.9-.6 12-5.8.5.1 1 .1 1.5.3l7.8 2.4c-1.7 5.4-4.9 9.2-9.9 11.3-6.5 2.8-13 2.5-19.3-.7-5.4-2.8-8.8-7.4-10.2-13.2-1.8-7.6-.7-14.7 4.3-20.9 8.3-10.3 24.2-8.5 30.5-1.2 3 3.5 4.6 7.6 5 12.1.1 2.1 0 4.4 0 6.8zm-11.3-7.9c.2-4-3-7.9-9.1-7.8-4.8.1-8.7 3.7-8.4 7.8h17.5zM293.8 40.4c0 11-6.9 19.6-17.3 21.5-15.6 2.8-27.7-9-25.8-24.3 1.2-9.8 7.3-16.7 16.6-18.6 15.5-3.1 26.8 7.9 26.5 21.4zm-32.1 0h.2c.1.9.1 1.7.2 2.6.7 5 4.5 8.6 9.3 8.9 5.1.3 9.1-2.5 10.6-7.3.9-2.9.8-5.8-.1-8.7-1.4-4.3-5-6.9-9.4-7-4.7 0-8.4 2.4-9.8 6.8-.5 1.5-.7 3.1-1 4.7zM310.2 61h-11.1V19.9h10.8c.1 1.3.1 2.4.2 3.9.5-.4.9-.7 1.3-1 4.7-4.2 10-5 15.8-3.1 5.5 1.8 8.1 6 9 11.4.3 1.7.4 3.6.4 5.3V61h-11.3v-2.6-19.1c0-1.3-.1-2.6-.3-3.9-.5-3.8-2.9-6.1-6.6-6.3-3.9-.3-7 1.8-7.9 5.5-.4 1.4-.5 2.9-.5 4.4-.1 6.5 0 13.1 0 19.6.2.6.2 1.4.2 2.4zM83.8 19.8h12.4c3.3 8.9 6.6 17.7 9.8 26.5h.4c3.1-8.8 6.3-17.6 9.4-26.5h11.9c-5.4 13.8-10.6 27.4-15.9 41h-11.4c-5.3-13.4-10.9-27-16.6-41zM67.8.6h11.1v60.3H68c-.5-1.5-.7-56.2-.2-60.3zM183.7 19.9v5.3c3.7-5.2 8.5-6.2 14.1-5.6v11.2c-1 0-1.9-.1-2.8-.1-6.7-.2-10.8 3.5-10.9 10.2-.1 5.7 0 11.5 0 17.2V61c-1.9 0-3.8 0-5.6.1h-5.3c-.5-1.8-.7-38.1-.2-41.2h10.7zM61.8 12.2v48.7H51.1c-.5-1.7-.7-37.9-.2-43.1 3.5-1.8 7.2-3.6 10.9-5.6zM388.9 54.8c3.6-1.8 7.2-3.7 11.1-5.7v11.8h-11.1v-6.1zM50.8 12.2V.6h11v6c-3.5 1.8-7.2 3.7-11 5.6z"/></svg>