<?xml version="1.0" encoding="utf-8"?>
<!-- Generator: Adobe Illustrator 19.2.1, SVG Export Plug-In . SVG Version: 6.00 Build 0)  -->
<svg version="1.1" id="Layer_1" xmlns="http://www.w3.org/2000/svg" xmlns:xlink="http://www.w3.org/1999/xlink" x="0px" y="0px"
	 viewBox="0 0 706.6 136.5" style="enable-background:new 0 0 706.6 136.5;" xml:space="preserve">
<style type="text/css">
	.st0{fill:#FFFFFF;}
</style>
<g>
	<path class="st0" d="M0,73c0.3,12.3,4.4,22.2,14.1,29.4c7.2,5.3,15.6,7.4,24.3,8.1c11.6,0.9,22.9-0.4,33-6.6
		c11.1-6.8,15.8-17,14.3-29.9C84.4,62.3,76.1,53.5,64,50.2c-6.9-1.9-13.9-3.6-20.7-5.5c-4.7-1.3-9.5-2.7-13.9-4.7
		c-5.1-2.3-7.2-6.6-6.9-12.2c0.4-5.3,3.4-8.6,8-10.5c6.9-2.9,14.1-2.8,21.3-0.7c7.2,2.1,11.4,6.9,12.5,14.3c0.1,0.9,0.3,1.7,0.5,2.6
		c6.1,0,12.1,0,18.2,0c0.1-6.7-1.6-12.6-5.3-17.9C71.7,7.1,63,2.7,53,1C40.3-1.1,28-0.2,16.9,7.1c-9.8,6.4-14,15.8-12.7,27.4
		c1.2,11,7.9,17.9,17.9,21.6c4.5,1.7,9.2,2.7,13.9,4.1c7.5,2.1,15.1,4.1,22.6,6.4c4.3,1.4,7.6,4.1,8.6,8.9
		c1.7,8.1-1.6,14.5-9.2,17.8c-5.5,2.4-11.3,2.5-17.2,2c-13.4-1.1-22.1-9-22.3-20.8c0-0.5-0.9-1.5-1.4-1.5C11.5,72.9,6,73,0,73z"/>
	<path class="st0" d="M375.7,31.8c0,34.9,0,69.6,0,104.6c4.7,0,9.3-0.1,13.8,0c2.2,0.1,3-0.5,3-2.9c-0.1-10.7-0.1-21.5-0.1-32.2
		c0-0.9,0.1-1.7,0.1-3.2c5.5,7.6,12.8,10.7,21.2,11.8c12.9,1.8,24.7-3.6,31.3-14.7c5.4-9.1,6.8-19,6.1-29.4
		c-0.6-9.2-3.1-17.8-9.1-24.9c-8.1-9.5-18.8-12.4-30.8-11.1c-8,0.9-14.7,4.1-18.9,11.4c-0.1,0.1-0.4,0.1-0.9,0.3c0-3.4,0-6.6,0-9.9
		C386.1,31.8,381.1,31.8,375.7,31.8z"/>
	<path class="st0" d="M690,41c-5.7-7-13-10-21.4-11.2c-13.1-1.8-25.8,4.5-32.1,16c-5,9.1-6,18.9-5.1,29.1c0.6,7.5,2.4,14.7,6.8,20.9
		c8,11.6,19.6,15.5,33.1,14.1c6.7-0.7,12.8-3.1,17.1-8.6c0.7-0.9,1.4-1.9,2-2.9c0.2,0.1,0.4,0.1,0.5,0.2c0,3.1,0,6.2,0,9.4
		c5.4,0,10.5,0,15.7,0c0-35.2,0-70.2,0-105.2c-5.6,0-11,0-16.6,0c0,6.5,0,12.8,0,19.1C690,28.3,690,34.7,690,41z"/>
	<path class="st0" d="M312.5,74.3c1.1-7,0.3-13.5-1.9-19.8c-5-13.9-14.6-22.9-29.6-24.6c-14.6-1.7-26.5,3.7-34.7,16.2
		c-6.7,10.3-7.9,21.7-5.9,33.6c1.5,8.8,5.1,16.6,12.1,22.3c11.9,9.7,31,11,44.2,3c7.9-4.7,12.8-11.7,14.9-20.9
		c-5,0-9.9-0.1-14.7,0.1c-0.6,0-1.4,0.9-1.9,1.5c-1.7,2.3-2.9,4.9-4.9,6.8c-4.8,4.5-10.8,4.7-16.9,4c-10-1.1-18.1-12.2-16.3-22.3
		C275.3,74.3,293.7,74.3,312.5,74.3z"/>
	<path class="st0" d="M461.1,69.9c0,1.5-0.1,3,0,4.5c1,11.5,5.1,21.5,14.7,28.6c8.1,6.1,17.5,7.9,27.4,7.1
		c13.8-1.1,24.4-7.3,30.6-20c3.9-8.1,4.8-16.7,4-25.6c-0.8-7.9-3.1-15.2-8.1-21.4c-7.9-9.8-18.5-13.5-30.6-13.4
		c-9.9,0.1-18.9,2.8-26.3,9.7C464,47.6,461,58.2,461.1,69.9z"/>
	<path class="st0" d="M551.2,31.8c0,25.6,0,50.9,0,76.2c5.6,0,11,0,16.6,0c0-1.3,0-2.5,0-3.6c0.1-14.7,0-29.3,0.3-44
		c0.2-9.4,7.3-16.7,16.5-17.3c8.6-0.6,14.4,2.2,16,11.8c0.4,2.5,0.6,5,0.6,7.4c0.1,14.2,0,28.3,0,42.5c0,1.1,0.1,2.1,0.1,3.2
		c5.6,0,11,0,16.4,0c0.1-0.4,0.2-0.7,0.2-1.1c0-18.2,0.1-36.5-0.2-54.7c-0.1-6.8-2.7-12.8-8.3-17.2c-12.1-9.4-31.9-6.6-40.8,5.9
		c-0.4,0.6-0.9,1.2-1.4,1.8c-0.2-0.1-0.4-0.2-0.6-0.3c0-3.5,0-7.1,0-10.7C561.5,31.8,556.5,31.8,551.2,31.8z"/>
	<path class="st0" d="M160.2,31.7c0.1,0.6,0.2,0.9,0.2,1.1c8.9,24.6,17.9,49.3,26.9,73.8c0.3,0.7,1.5,1.5,2.3,1.5
		c4.9,0.1,9.8,0,14.7,0.1c1.8,0,2.6-0.6,3.2-2.2c6.8-19.1,13.6-38.2,20.5-57.4c2-5.5,4-11.1,6.1-16.9c-5.3,0-10.3,0.1-15.3-0.1
		c-1.8-0.1-2.4,0.6-2.9,2.2c-5.6,17.9-11.3,35.7-17,53.5c-0.3,0.9-0.6,1.8-1.2,3.2c-1.4-4.1-2.6-7.6-3.7-11.1
		c-5.1-15.3-10.1-30.7-15.2-46c-0.2-0.7-1.2-1.8-1.8-1.8C171.6,31.6,166,31.7,160.2,31.7z"/>
	<path class="st0" d="M150.3,108c0-35.2,0-70.2,0-105.2c-5.7,0-11.1,0-16.6,0c0,35.2,0,70.1,0,105.2C139.3,108,144.6,108,150.3,108z
		"/>
	<path class="st0" d="M324.5,108c5.6,0,11,0,16.6,0c0-1.2,0-2.2,0-3.2c0-11.1-0.1-22.2,0-33.2c0-2.9,0.3-5.8,1-8.7
		c2.7-12,11.4-18.4,23.2-17.2c1.2,0.1,2.4,0.3,3.8,0.4c0-5.1,0.1-9.9-0.1-14.8c0-0.6-1.2-1.5-1.9-1.6c-7.3-0.9-14,0.8-19.4,6
		c-3,2.8-5.3,6.4-7.8,9.5c0-4.2,0-8.8,0-13.4c-5.3,0-10.4,0-15.5,0C324.5,57.3,324.5,82.6,324.5,108z"/>
	<path class="st0" d="M115.8,108.1c0-25.6,0-50.9,0-76.2c-5.7,0-11.1,0-16.5,0c0,25.5,0,50.8,0,76.2
		C104.8,108.1,110.2,108.1,115.8,108.1z"/>
	<path class="st0" d="M99.2,18.4c5.3,0,10.3,0,15.4-0.1c0.5,0,1.3-0.8,1.3-1.3c0.1-4.7,0.1-9.4,0.1-14.3c-5.7,0-11.2,0-16.8,0
		C99.2,7.9,99.2,13,99.2,18.4z"/>
	<path d="M0,73c6,0,11.5,0,17.1,0.1c0.5,0,1.4,1,1.4,1.5c0.2,11.8,8.9,19.7,22.3,20.8c5.9,0.5,11.7,0.3,17.2-2
		c7.6-3.3,10.9-9.7,9.2-17.8c-1-4.8-4.3-7.6-8.6-8.9c-7.5-2.3-15-4.3-22.6-6.4c-4.6-1.3-9.4-2.4-13.9-4.1
		c-10-3.7-16.7-10.6-17.9-21.6c-1.3-11.6,2.9-21,12.7-27.4C28-0.2,40.3-1.1,53,1c10,1.7,18.6,6.1,24.7,14.6
		c3.8,5.3,5.5,11.3,5.3,17.9c-6.2,0-12.1,0-18.2,0c-0.2-0.9-0.4-1.7-0.5-2.6c-1.1-7.5-5.3-12.2-12.5-14.3
		c-7.2-2.1-14.3-2.2-21.3,0.7c-4.6,1.9-7.7,5.2-8,10.5c-0.4,5.6,1.8,10,6.9,12.2c4.4,2,9.2,3.3,13.9,4.7c6.9,2,13.8,3.7,20.7,5.5
		c12.1,3.3,20.3,12.1,21.7,23.7c1.5,12.9-3.2,23.1-14.3,29.9c-10.1,6.2-21.4,7.4-33,6.6c-8.8-0.7-17.1-2.8-24.3-8.1
		C4.4,95.2,0.3,85.2,0,73z"/>
	<path d="M375.7,31.8c5.3,0,10.4,0,15.7,0c0,3.3,0,6.5,0,9.9c0.5-0.2,0.8-0.2,0.9-0.3c4.2-7.3,10.9-10.6,18.9-11.4
		c12-1.3,22.7,1.6,30.8,11.1c6.1,7.1,8.5,15.7,9.1,24.9c0.7,10.3-0.7,20.3-6.1,29.4c-6.6,11.1-18.4,16.5-31.3,14.7
		c-8.4-1.2-15.7-4.3-21.2-11.8c-0.1,1.4-0.1,2.3-0.1,3.2c0,10.7-0.1,21.5,0.1,32.2c0,2.4-0.8,3-3,2.9c-4.6-0.1-9.1,0-13.8,0
		C375.7,101.4,375.7,66.7,375.7,31.8z M434.5,70.8c-0.1-6.5-1.1-13.1-5-19.1c-8.3-12.7-26.6-10.5-32.3-1c-6.8,11.1-7.2,23-1.9,34.7
		c6.1,13.4,23.4,15.8,33,5C433.1,84.9,434.1,78.1,434.5,70.8z"/>
	<path d="M690,41c0-6.4,0-12.8,0-19.1c0-6.3,0-12.6,0-19.1c5.6,0,11,0,16.6,0c0,35,0,70,0,105.2c-5.1,0-10.3,0-15.7,0
		c0-3.2,0-6.3,0-9.4c-0.2-0.1-0.4-0.1-0.5-0.2c-0.7,1-1.3,1.9-2,2.9c-4.3,5.6-10.4,8-17.1,8.6c-13.5,1.4-25.1-2.4-33.1-14.1
		c-4.3-6.3-6.2-13.4-6.8-20.9c-0.8-10.1,0.1-19.9,5.1-29.1c6.3-11.6,19.1-17.9,32.1-16C677,31,684.3,34.1,690,41z M648,70.4
		c-0.2,0.1-0.4,0.1-0.6,0.2c1.1,4.5,1.7,9.2,3.3,13.4c2.6,6.9,7.5,11.5,15.1,12.6c8,1.1,15-1.1,19.4-8c7.1-11.4,7.7-23.7,1.6-35.7
		c-6.9-13.4-26-13.6-34.1-0.9C648.9,57.7,648.1,64,648,70.4z"/>
	<path d="M312.5,74.3c-18.7,0-37.2,0-55.6,0c-1.8,10.1,6.3,21.2,16.3,22.3c6.1,0.7,12.1,0.4,16.9-4c2-1.9,3.2-4.6,4.9-6.8
		c0.5-0.6,1.2-1.5,1.9-1.5c4.8-0.1,9.6-0.1,14.7-0.1c-2.1,9.3-7,16.2-14.9,20.9c-13.2,7.9-32.3,6.6-44.2-3
		c-7.1-5.7-10.6-13.5-12.1-22.3c-2-11.9-0.8-23.3,5.9-33.6c8.1-12.5,20-17.9,34.7-16.2c14.9,1.8,24.5,10.7,29.6,24.6
		C312.8,60.8,313.6,67.3,312.5,74.3z M256.7,63c13.1,0,25.9,0,38.8,0c0.2-11-8.7-20.1-19.2-20.1C263.7,42.9,256.3,53.9,256.7,63z"/>
	<path d="M461.1,69.9c-0.1-11.7,2.9-22.3,11.7-30.5c7.3-6.9,16.3-9.7,26.3-9.7c12.2-0.1,22.8,3.7,30.6,13.4c5,6.2,7.4,13.5,8.1,21.4
		c0.9,8.9,0,17.5-4,25.6c-6.2,12.7-16.9,18.9-30.6,20c-9.9,0.8-19.3-1-27.4-7.1c-9.5-7.1-13.7-17.1-14.7-28.6
		C461,72.9,461.1,71.4,461.1,69.9z M521.2,69.9c0.2-0.1,0.4-0.1,0.6-0.2c-1.1-4.6-1.6-9.4-3.3-13.7c-3.1-7.9-9.1-12.6-17.8-13.1
		c-8.2-0.4-14.8,2.8-18.7,10.1c-6,11.3-6.1,23,0.3,34.1c8.1,13.8,27.6,13,35.2-1.1C520.2,81,521.1,75.6,521.2,69.9z"/>
	<path d="M551.2,31.8c5.3,0,10.3,0,15.6,0c0,3.6,0,7.2,0,10.7c0.2,0.1,0.4,0.2,0.6,0.3c0.5-0.6,0.9-1.2,1.4-1.8
		c8.9-12.5,28.7-15.3,40.8-5.9c5.6,4.4,8.2,10.4,8.3,17.2c0.3,18.2,0.2,36.5,0.2,54.7c0,0.3-0.1,0.6-0.2,1.1c-5.5,0-10.8,0-16.4,0
		c-0.1-1.1-0.1-2.2-0.1-3.2c0-14.2,0-28.3,0-42.5c0-2.5-0.2-5-0.6-7.4c-1.6-9.6-7.4-12.4-16-11.8c-9.2,0.7-16.3,8-16.5,17.3
		c-0.4,14.6-0.2,29.3-0.3,44c0,1.2,0,2.3,0,3.6c-5.6,0-11,0-16.6,0C551.2,82.7,551.2,57.4,551.2,31.8z"/>
	<path d="M160.2,31.7c5.8,0,11.3-0.1,16.9,0.1c0.6,0,1.6,1.1,1.8,1.8c5.1,15.3,10.1,30.6,15.2,46c1.1,3.5,2.3,6.9,3.7,11.1
		c0.5-1.5,0.9-2.3,1.2-3.2c5.7-17.8,11.4-35.7,17-53.5c0.5-1.6,1.1-2.3,2.9-2.2c5,0.1,10,0.1,15.3,0.1c-2.1,5.8-4.1,11.4-6.1,16.9
		c-6.8,19.1-13.7,38.2-20.5,57.4c-0.6,1.7-1.4,2.3-3.2,2.2c-4.9-0.1-9.8,0-14.7-0.1c-0.8,0-2.1-0.8-2.3-1.5
		c-9-24.6-18-49.2-26.9-73.8C160.4,32.6,160.4,32.3,160.2,31.7z"/>
	<path d="M150.3,108c-5.6,0-11,0-16.6,0c0-35.1,0-70.1,0-105.2c5.5,0,10.9,0,16.6,0C150.3,37.8,150.3,72.8,150.3,108z"/>
	<path d="M324.5,108c0-25.4,0-50.7,0-76.1c5.1,0,10.2,0,15.5,0c0,4.6,0,9.2,0,13.4c2.5-3.1,4.9-6.7,7.8-9.5c5.4-5.1,12-6.9,19.4-6
		c0.7,0.1,1.9,1,1.9,1.6c0.2,4.8,0.1,9.6,0.1,14.8c-1.4-0.2-2.6-0.3-3.8-0.4c-11.8-1.2-20.5,5.2-23.2,17.2c-0.6,2.8-0.9,5.8-1,8.7
		c-0.1,11.1,0,22.2,0,33.2c0,1,0,2,0,3.2C335.5,108,330.1,108,324.5,108z"/>
	<path d="M115.8,108.1c-5.6,0-11,0-16.5,0c0-25.4,0-50.7,0-76.2c5.4,0,10.9,0,16.5,0C115.8,57.2,115.8,82.5,115.8,108.1z"/>
	<path d="M99.2,18.4c0-5.4,0-10.5,0-15.6c5.6,0,11,0,16.8,0c0,4.9,0,9.6-0.1,14.3c0,0.5-0.9,1.3-1.3,1.3
		C109.5,18.4,104.5,18.4,99.2,18.4z"/>
	<path class="st0" d="M434.5,70.8c-0.4,7.4-1.5,14.1-6.3,19.5c-9.6,10.8-27,8.5-33-5c-5.2-11.6-4.9-23.5,1.9-34.7
		c5.8-9.5,24-11.7,32.3,1C433.4,57.7,434.5,64.3,434.5,70.8z"/>
	<path class="st0" d="M648,70.4c0.2-6.5,1-12.8,4.6-18.4c8.1-12.7,27.2-12.4,34.1,0.9c6.2,11.9,5.5,24.2-1.6,35.7
		c-4.3,7-11.4,9.1-19.4,8c-7.6-1.1-12.5-5.7-15.1-12.6c-1.6-4.3-2.2-9-3.3-13.4C647.5,70.6,647.7,70.5,648,70.4z"/>
	<path class="st0" d="M256.7,63c-0.4-9.2,7-20.1,19.6-20.1c10.5,0,19.3,9.1,19.2,20.1C282.6,63,269.7,63,256.7,63z"/>
	<path class="st0" d="M521.2,69.9c0,5.6-1,11.1-3.7,16.1c-7.6,14.1-27.1,15-35.2,1.1c-6.4-11.1-6.3-22.8-0.3-34.1
		c3.8-7.2,10.5-10.5,18.7-10.1c8.7,0.5,14.7,5.2,17.8,13.1c1.7,4.3,2.3,9.1,3.3,13.7C521.6,69.8,521.4,69.9,521.2,69.9z"/>
</g>
</svg>
