<?xml version="1.0" encoding="utf-8"?>
<!-- Generator: Adobe Illustrator 19.2.1, SVG Export Plug-In . SVG Version: 6.00 Build 0)  -->
<svg version="1.1" id="Layer_1" xmlns="http://www.w3.org/2000/svg" xmlns:xlink="http://www.w3.org/1999/xlink" x="0px" y="0px"
	 viewBox="0 0 84 76.1" style="enable-background:new 0 0 84 76.1;" xml:space="preserve">
<g>
	<path fill="#fff" d="M49.1,31.1c0.5-0.4,0.7-1.1,0.7-2c0-0.8-0.2-1.5-0.7-1.9c-0.5-0.4-1.2-0.7-2.1-0.7h-1v5.2h0.8
		C47.9,31.8,48.6,31.6,49.1,31.1z"/>
	<path fill="#fff" d="M47.4,34H46v5.4h1.7c1.2,0,2.1-0.2,2.7-0.7c0.6-0.5,0.9-1.2,0.9-2c0-0.8-0.3-1.4-0.9-2C49.9,34.3,48.9,34,47.4,34z"/>
	<path fill="#fff" d="M42.5,0C18.7,0,0,14.9,0,33.9c0,11.4,8.5,19.7,15.6,24.6c0.4,0.2,0.6,0.7,0.6,1.1v16.5c3.1-1.8,9.6-5.7,15.2-12
		c0.3-0.3,0.8-0.5,1.3-0.4c3.5,0.6,7.6,1.3,11.1,1.3C67.9,65,84,52.5,84,33.9C84,14.6,66.2,0,42.5,0z M40.9,26.6h-4.1V42h-2.7V26.6
		H30v-2.5h10.9V26.6z M52.5,40.4c-0.6,0.6-1.3,1-2,1.2c-0.8,0.2-1.8,0.3-3.1,0.3h-4.1V24.1H46c1.2,0,2.2,0.1,2.9,0.3
		c0.7,0.2,1.3,0.5,1.8,0.9c0.5,0.5,0.9,1,1.2,1.7c0.3,0.7,0.5,1.4,0.5,2.1c0,1.3-0.5,2.4-1.5,3.3c1,0.3,1.7,0.9,2.3,1.7
		c0.6,0.8,0.8,1.7,0.8,2.8C54,38.3,53.5,39.5,52.5,40.4z"/>
</g>
</svg>
