<?xml version="1.0" encoding="utf-8"?>
<!-- Generator: Adobe Illustrator 20.1.0, SVG Export Plug-In . SVG Version: 6.00 Build 0)  -->
<svg version="1.1" id="Layer_1" xmlns="http://www.w3.org/2000/svg" xmlns:xlink="http://www.w3.org/1999/xlink" x="0px" y="0px"
	 viewBox="0 0 84 76.1" style="enable-background:new 0 0 84 76.1;" xml:space="preserve">
<style type="text/css">
	.st0{fill:#FFFFFF;}
	.st1{fill:#1DA1F2;}
</style>
<path class="st0" d="M41.5,0C17.8,0,0,14.6,0,33.9C0,52.5,16.1,65,40.1,65c3.6,0,7.6-0.6,11.1-1.3c0.5-0.1,1,0,1.3,0.4
	c5.5,6.3,12,10.3,15.2,12V59.6c0-0.4,0.2-0.8,0.6-1.1C75.5,53.6,84,45.3,84,33.9C84,14.9,65.3,0,41.5,0z"/>
<path class="st1" d="M54.7,26.7c0,0.3,0,0.6,0,0.8c0,8.7-6.6,18.7-18.7,18.7c-3.7,0-7.2-1.1-10.1-3c0.5,0.1,1,0.1,1.6,0.1
	c3.1,0,5.9-1,8.2-2.8c-2.9-0.1-5.3-2-6.1-4.6C30,36,30.4,36,30.8,36c0.6,0,1.2-0.1,1.7-0.2c-3-0.6-5.3-3.3-5.3-6.4v-0.1
	c0.9,0.5,1.9,0.8,3,0.8c-1.8-1.2-2.9-3.2-2.9-5.5c0-1.2,0.3-2.3,0.9-3.3c3.2,4,8.1,6.6,13.5,6.9c-0.1-0.5-0.2-1-0.2-1.5
	c0-3.6,2.9-6.6,6.6-6.6c1.9,0,3.6,0.8,4.8,2.1c1.5-0.3,2.9-0.8,4.2-1.6c-0.5,1.5-1.5,2.8-2.9,3.6c1.3-0.2,2.6-0.5,3.8-1
	C57.1,24.6,56,25.8,54.7,26.7z"/>
</svg>
