<?xml version="1.0" encoding="utf-8"?>
<!-- Generator: Adobe Illustrator 20.1.0, SVG Export Plug-In . SVG Version: 6.00 Build 0)  -->
<svg version="1.1" id="Layer_1" xmlns="http://www.w3.org/2000/svg" xmlns:xlink="http://www.w3.org/1999/xlink" x="0px" y="0px"
	 viewBox="0 0 84 76.1" style="enable-background:new 0 0 84 76.1;" xml:space="preserve">
<style type="text/css">
	.st0{fill:#FFFFFF;}
	.st1{fill:#57BAB5;}
</style>
<path class="st0" d="M42.5,0C18.7,0,0,14.9,0,33.9c0,11.4,8.5,19.7,15.6,24.6c0.4,0.2,0.6,0.7,0.6,1.1v16.5c3.1-1.8,9.6-5.7,15.2-12
	c0.3-0.3,0.8-0.5,1.3-0.4c3.5,0.6,7.6,1.3,11.1,1.3C67.9,65,84,52.5,84,33.9C84,14.6,66.2,0,42.5,0z"/>
<g>
	<path class="st1" d="M35.2,28.3c-2.4,0-4.4,2-4.4,4.4c0,2.4,2,4.4,4.4,4.4c2.4,0,4.4-2,4.4-4.4C39.6,30.3,37.6,28.3,35.2,28.3z
		 M34.8,32.6L33,34.4c-0.1,0.1-0.3,0.2-0.4,0.2c-0.1,0-0.3-0.1-0.4-0.2c-0.2-0.2-0.2-0.6,0-0.8l1.8-1.8c0.2-0.2,0.6-0.2,0.8,0
		S35,32.4,34.8,32.6z M34.8,30.5L33,32.3c-0.1,0.1-0.3,0.2-0.4,0.2c-0.1,0-0.3-0.1-0.4-0.2c-0.2-0.2-0.2-0.6,0-0.8l1.8-1.8
		c0.2-0.2,0.6-0.2,0.8,0C35,29.9,35,30.3,34.8,30.5z"/>
	<path class="st1" d="M48.7,28.3c-2.4,0-4.4,2-4.4,4.4c0,2.4,2,4.4,4.4,4.4c2.5,0,4.4-2,4.4-4.4C53.1,30.3,51.1,28.3,48.7,28.3z
		 M48,32.6l-1.8,1.8c-0.1,0.1-0.3,0.2-0.4,0.2c-0.1,0-0.3-0.1-0.4-0.2c-0.2-0.2-0.2-0.6,0-0.8l1.8-1.8c0.3-0.2,0.6-0.2,0.8,0
		S48.2,32.4,48,32.6z M48,30.5l-1.8,1.8c-0.1,0.1-0.3,0.2-0.4,0.2c-0.1,0-0.3-0.1-0.4-0.2c-0.2-0.2-0.2-0.6,0-0.8l1.8-1.8
		c0.3-0.2,0.6-0.2,0.8,0C48.2,29.9,48.2,30.3,48,30.5z"/>
	<path class="st1" d="M56.6,43.1V27.5c0-3.8-3.1-6.9-6.9-6.9h-7v-4.7c1-0.4,1.5-1.6,1.1-2.6c-0.4-1-1.6-1.5-2.6-1.1
		c-1,0.4-1.5,1.6-1.1,2.6c0.2,0.5,0.6,0.9,1.1,1.1v4.7h-7c-3.8,0-6.9,3.1-6.9,6.9v15.6c0,3.8,3.1,6.9,6.9,6.9h15.6
		c3.8,0,6.9-3.1,6.9-6.9H56.6z M42.1,13.5c0.3,0,0.5,0.2,0.5,0.5c0,0.3-0.2,0.5-0.5,0.5c-0.3,0-0.5-0.2-0.5-0.5
		C41.6,13.7,41.8,13.5,42.1,13.5z M31.4,23L31.4,23l-0.3,0.1C31.2,23.1,31.3,23,31.4,23z M31.9,47.9c-0.1,0-0.2-0.1-0.3-0.2h0.3
		V47.9z M42.8,46.2H40v-1.3h2.8V46.2z M40.8,43.2c0,0,0,0,0.1,0h2.2v1.3h-2.2c-0.5,0-0.8-0.1-1.1-0.4c-0.5-0.5-0.5-1.2-0.5-1.5
		c0-0.4,0.2-1.6,0.8-4v-0.2c0.1-0.4,0.2-0.7,0.2-0.9c0.1-0.8,0.9-1.6,1.6-2.2l0.3-0.3l0.8,1l0.1,0.2c-0.6,0.5-1.2,1.2-1.3,1.5
		c-0.1,0.2-0.2,0.6-0.3,1.1c-0.1,0.4-0.2,0.8-0.3,1.2c-0.2,1-0.5,2.3-0.5,2.6S40.7,43.1,40.8,43.2z M55,33.6h-0.6
		c-0.4,2.8-2.7,4.9-5.6,4.9c-2.9,0-5.2-2.1-5.6-4.9c-0.1,0-0.1,0-0.2,0h-2.2c-0.4,2.8-2.7,4.9-5.6,4.9c-2.9,0-5.2-2.1-5.6-4.9H29
		c-0.4,0-0.6-0.3-0.6-0.6c0-0.4,0.3-0.6,0.6-0.6h0.7c0.1-3,2.6-5.3,5.6-5.3s5.4,2.4,5.6,5.3H43h0.1c0.1-2.9,2.6-5.3,5.6-5.3
		s5.5,2.3,5.8,5.3H55c0.4,0,0.6,0.3,0.6,0.6C55.6,33.4,55.3,33.6,55,33.6z"/>
</g>
</svg>
