<?xml version="1.0" encoding="utf-8"?>
<!-- Generator: Adobe Illustrator 19.2.1, SVG Export Plug-In . SVG Version: 6.00 Build 0)  -->
<svg version="1.1" id="Layer_1" xmlns="http://www.w3.org/2000/svg" xmlns:xlink="http://www.w3.org/1999/xlink" x="0px" y="0px"
	 viewBox="0 0 84 76.1" style="enable-background:new 0 0 84 76.1;" xml:space="preserve">
<style type="text/css">
	.st0{fill:#FFFFFF;}
</style>
<g>
	<path class="st0" d="M41.9,35.3c-0.7,0.6-1.5,1.4-1.6,2.2c0,0.2-0.1,0.5-0.2,0.9l0,0.2c-0.6,2.4-0.8,3.6-0.8,4c0,0.3,0,1,0.5,1.5
		c0.3,0.3,0.6,0.4,1.1,0.4h2.2v-1.3h-2.2c-0.1,0-0.1,0-0.1,0c-0.1-0.1-0.1-0.3-0.1-0.6c0-0.3,0.3-1.6,0.5-2.6
		c0.1-0.4,0.2-0.8,0.3-1.2c0.1-0.5,0.2-0.9,0.3-1.1c0.1-0.3,0.7-1,1.3-1.5L43,36l-0.8-1L41.9,35.3z"/>
	<path class="st0" d="M34,29.7l-1.8,1.8c-0.2,0.2-0.2,0.6,0,0.8c0.1,0.1,0.3,0.2,0.4,0.2s0.3-0.1,0.4-0.2l1.8-1.8
		c0.2-0.2,0.2-0.6,0-0.8C34.6,29.5,34.2,29.5,34,29.7z"/>
	<path class="st0" d="M34,31.8l-1.8,1.8c-0.2,0.2-0.2,0.6,0,0.8c0.1,0.1,0.3,0.2,0.4,0.2s0.3-0.1,0.4-0.2l1.8-1.8
		c0.2-0.2,0.2-0.6,0-0.8C34.6,31.6,34.2,31.6,34,31.8z"/>
	<rect x="40" y="44.9" class="st0" width="2.8" height="1.3"/>
	<path class="st0" d="M31.4,23C31.4,23,31.4,23,31.4,23c-0.1,0-0.2,0.1-0.3,0.1h0.3V23z"/>
	<path class="st0" d="M31.9,47.9v-0.2h-0.3C31.7,47.8,31.8,47.9,31.9,47.9z"/>
	<path class="st0" d="M47.2,29.7l-1.8,1.8c-0.2,0.2-0.2,0.6,0,0.8c0.1,0.1,0.3,0.2,0.4,0.2c0.1,0,0.3-0.1,0.4-0.2l1.8-1.8
		c0.2-0.2,0.2-0.6,0-0.8C47.8,29.5,47.5,29.5,47.2,29.7z"/>
	<path class="st0" d="M48.7,27.1c-3,0-5.5,2.4-5.6,5.3c0,0-0.1,0-0.1,0h-2.1c-0.2-2.9-2.6-5.3-5.6-5.3c-3,0-5.5,2.3-5.6,5.3H29
		c-0.3,0-0.6,0.2-0.6,0.6c0,0.3,0.2,0.6,0.6,0.6h0.6c0.4,2.8,2.7,4.9,5.6,4.9c2.9,0,5.2-2.1,5.6-4.9H43c0.1,0,0.1,0,0.2,0
		c0.4,2.8,2.7,4.9,5.6,4.9c2.9,0,5.2-2.1,5.6-4.9h0.6c0.3,0,0.6-0.2,0.6-0.6c0-0.3-0.2-0.6-0.6-0.6h-0.5
		C54.2,29.4,51.7,27.1,48.7,27.1z M35.2,37.1c-2.4,0-4.4-2-4.4-4.4c0-2.4,2-4.4,4.4-4.4c2.4,0,4.4,2,4.4,4.4
		C39.6,35.1,37.6,37.1,35.2,37.1z M48.7,37.1c-2.4,0-4.4-2-4.4-4.4c0-2.4,2-4.4,4.4-4.4c2.4,0,4.4,2,4.4,4.4
		C53.1,35.1,51.2,37.1,48.7,37.1z"/>
	<path class="st0" d="M42.5,0C18.7,0,0,14.9,0,33.9c0,11.4,8.5,19.7,15.6,24.6c0.4,0.2,0.6,0.7,0.6,1.1v16.5
		c3.1-1.8,9.6-5.7,15.2-12c0.3-0.3,0.8-0.5,1.3-0.4c3.5,0.6,7.6,1.3,11.1,1.3C67.9,65,84,52.5,84,33.9C84,14.6,66.2,0,42.5,0z
		 M56.7,43.1c0,3.8-3.1,6.9-6.9,6.9H34.2c-3.8,0-6.9-3.1-6.9-6.9V27.5c0-3.8,3.1-6.9,6.9-6.9h7v-4.7c-0.5-0.2-0.9-0.6-1.1-1.1
		c-0.4-1,0.1-2.2,1.1-2.6c1-0.4,2.2,0.1,2.6,1.1c0.4,1-0.1,2.2-1.1,2.6v4.7h7c0,0,0,0,0,0c3.8,0,6.9,3.1,6.9,6.9V43.1z"/>
	<path class="st0" d="M42.1,14.5c0.3,0,0.5-0.2,0.5-0.5c0-0.3-0.2-0.5-0.5-0.5c-0.3,0-0.5,0.2-0.5,0.5c0,0,0,0,0,0
		C41.6,14.3,41.8,14.5,42.1,14.5z"/>
	<path class="st0" d="M47.2,31.8l-1.8,1.8c-0.2,0.2-0.2,0.6,0,0.8c0.1,0.1,0.3,0.2,0.4,0.2c0.1,0,0.3-0.1,0.4-0.2l1.8-1.8
		c0.2-0.2,0.2-0.6,0-0.8C47.8,31.6,47.5,31.6,47.2,31.8z"/>
</g>
</svg>
