<?xml version="1.0" encoding="utf-8"?>
<!-- Generator: Adobe Illustrator 19.2.1, SVG Export Plug-In . SVG Version: 6.00 Build 0)  -->
<svg version="1.1" id="Layer_1" xmlns="http://www.w3.org/2000/svg" xmlns:xlink="http://www.w3.org/1999/xlink" x="0px" y="0px"
	 viewBox="0 0 21 119.9" style="enable-background:new 0 0 21 119.9;" xml:space="preserve">
<style type="text/css">
	.st0{fill:#D2D8DB;}
</style>
<path class="st0" d="M20.5,58.7c-1.1,0-1.9-0.1-2.5-0.4c-0.7-0.3-1.4-0.7-1.9-1.4c-0.6-0.7-1-1.6-1.3-2.8c-0.3-1.4-0.5-3.1-0.5-4.9
	V11.4c0-4.2-0.9-7.1-2.8-8.9C9.8,0.9,7.4,0,4.6,0H0v2.6h4.6c2.4,0,4.1,0.7,5.2,2.2c1.1,1.6,1.6,3.7,1.6,6.5v37.9
	c0,3.6,0.6,6.4,1.8,8.1c0.8,1.2,1.9,2.1,3.1,2.6c-1.2,0.5-2.3,1.4-3.1,2.6c-1.2,1.5-1.8,4.1-1.8,8.1v37.9c0,2.9-0.5,5.1-1.6,6.5
	c-1.1,1.5-2.8,2.2-5.2,2.2H0v2.7h4.6c1.4,0,2.7-0.2,3.9-0.6c1.2-0.4,2.3-1.1,3.1-1.9c0.8-0.8,1.5-1.9,2-3.5c0.5-1.4,0.7-3.1,0.7-5.3
	V70.7c0-1.8,0.2-3.5,0.5-4.9c0.4-1.4,0.8-2.3,1.3-2.8c0.5-0.6,1.2-1.1,1.9-1.4c0.7-0.3,1.5-0.4,2.5-0.4H21v-2.6H20.5z"/>
</svg>
