<?xml version="1.0" encoding="utf-8"?>
<!-- Generator: Adobe Illustrator 19.2.1, SVG Export Plug-In . SVG Version: 6.00 Build 0)  -->
<svg version="1.1" id="Layer_1" xmlns="http://www.w3.org/2000/svg" xmlns:xlink="http://www.w3.org/1999/xlink" x="0px" y="0px"
	 viewBox="0 0 119.9 21" style="enable-background:new 0 0 119.9 21;" xml:space="preserve">
<style type="text/css">
	.st0{fill:#D2D8DB;}
</style>
<path class="st0" d="M61.2,20.5c0-1.1,0.1-1.9,0.4-2.5c0.3-0.7,0.7-1.4,1.4-1.9c0.7-0.6,1.6-1,2.8-1.3c1.4-0.3,3.1-0.5,4.9-0.5h37.8
	c4.2,0,7.1-0.9,8.9-2.8c1.6-1.7,2.5-4.1,2.5-6.9V0l-2.6,0v4.6c0,2.4-0.7,4.1-2.2,5.2c-1.6,1.1-3.7,1.6-6.5,1.6H70.7
	c-3.6,0-6.4,0.6-8.1,1.8c-1.2,0.8-2.1,1.9-2.6,3.1c-0.5-1.2-1.4-2.3-2.6-3.1c-1.5-1.2-4.1-1.8-8.1-1.8H11.4c-2.9,0-5.1-0.5-6.5-1.6
	C3.4,8.7,2.7,7,2.7,4.6V0L0,0l0,4.6C0,6,0.2,7.3,0.6,8.5s1.1,2.3,1.9,3.1s1.9,1.5,3.5,2c1.4,0.5,3.1,0.7,5.3,0.7h37.9
	c1.8,0,3.5,0.2,4.9,0.5c1.4,0.4,2.3,0.8,2.8,1.3c0.6,0.5,1.1,1.2,1.4,1.9c0.3,0.7,0.4,1.5,0.4,2.5V21h2.6v-0.5H61.2z"/>
</svg>
